<svg width="25" height="25" fill="none" xmlns="http://www.w3.org/2000/svg"><g id="left-arrow-in-circular-button-black-symbol 1" clip-path="url(#clip0_279_111)"><g id="Group"><g id="_x34__2_"><g id="Group_2"><path id="Vector" d="M12.5 0C5.596 0 0 5.596 0 12.5 0 19.403 5.596 25 12.5 25S25 19.403 25 12.5C25 5.596 19.404 0 12.5 0zm5.469 13.281h-8.27l3.219 3.22a.78.78 0 11-1.105 1.104l-4.42-4.42a.767.767 0 01-.202-.685.767.767 0 01.204-.687l4.42-4.42a.78.78 0 111.104 1.105l-3.22 3.22h8.27a.782.782 0 010 1.563z" fill="#fff"/></g></g></g></g><defs><clipPath id="clip0_279_111"><path fill="#fff" d="M0 0h25v25H0z"/></clipPath></defs></svg>