<svg width="12" height="12" fill="none" xmlns="http://www.w3.org/2000/svg"><g id="double-right-arrows-angles 3" clip-path="url(#clip0_212_26)"><g id="Group"><g id="_x35__40_"><g id="Group_2"><path id="Vector" d="M6.003 6.294a.494.494 0 00-.392.145l-4.402 4.51a.505.505 0 00.72.704l4.087-4.187 4.18 4.095a.505.505 0 00.703-.72L6.4 6.429a.495.495 0 00-.396-.136zM5.543.39L.147 5.92a.506.506 0 00.008.713.502.502 0 00.711-.008L5.95 1.418l5.198 5.092a.503.503 0 10.704-.72L6.33.382a.494.494 0 00-.395-.136.493.493 0 00-.392.144z" fill="#000"/></g></g></g></g><defs><clipPath id="clip0_212_26"><path fill="#fff" d="M0 0h12v12H0z"/></clipPath></defs></svg>