<svg width="44" height="44" fill="none" xmlns="http://www.w3.org/2000/svg"><g clip-path="url(#clip0_212_99)"><path d="M33.688 44H10.311C4.627 44 0 39.374 0 33.687V10.314C0 4.625 4.626 0 10.313 0h23.374C39.374 0 44 4.626 44 10.313v23.374C44 39.374 39.374 44 33.687 44zM10.311 3.437a6.883 6.883 0 00-6.874 6.876v23.374a6.883 6.883 0 006.874 6.876h23.376a6.883 6.883 0 006.874-6.876V10.314a6.883 6.883 0 00-6.874-6.876H10.311zm23.805 4.297a2.148 2.148 0 100 4.297 2.148 2.148 0 000-4.297zM22 33.172c-6.16 0-11.172-5.012-11.172-11.172.614-14.821 21.732-14.817 22.344 0 0 6.16-5.012 11.172-11.172 11.172zm0-18.906c-4.265 0-7.734 3.47-7.734 7.734.425 10.26 15.045 10.258 15.468 0 0-4.265-3.47-7.734-7.734-7.734z" fill="gray"/></g><defs><clipPath id="clip0_212_99"><path fill="#fff" d="M0 0h44v44H0z"/></clipPath></defs></svg>