<svg width="43" height="43" fill="none" xmlns="http://www.w3.org/2000/svg"><g clip-path="url(#clip0_212_161)"><path d="M21.5 14c-4.863 0-7.5 4-7.5 7.584C14 26 18 29 21.5 29c4.5 0 7.5-4 7.5-7.416C29 18 26.363 14 21.5 14zm0 0c-4.863 0-7.5 4-7.5 7.584C14 26 18 29 21.5 29c4.5 0 7.5-4 7.5-7.416C29 18 26.363 14 21.5 14zM36.701 0H6.3A6.301 6.301 0 000 6.299V36.7A6.301 6.301 0 006.299 43H36.7a6.301 6.301 0 006.3-6.299V6.3A6.301 6.301 0 0036.701 0zM21.5 33.5c-6.248 0-12-5.668-12-11.916S15.252 9.5 21.5 9.5s12 5.835 12 12.084c0 6.248-5.752 11.916-12 11.916zm13.857-23.254a2.527 2.527 0 01-2.52-2.52 2.527 2.527 0 012.52-2.519 2.527 2.527 0 012.52 2.52 2.527 2.527 0 01-2.52 2.52zM21.5 14c-4.863 0-7.5 4-7.5 7.584C14 26 18 29 21.5 29c4.5 0 7.5-4 7.5-7.416C29 18 26.363 14 21.5 14zm0 0c-4.863 0-7.5 4-7.5 7.584C14 26 18 29 21.5 29c4.5 0 7.5-4 7.5-7.416C29 18 26.363 14 21.5 14zm0 0c-4.863 0-7.5 4-7.5 7.584C14 26 18 29 21.5 29c4.5 0 7.5-4 7.5-7.416C29 18 26.363 14 21.5 14z" fill="#fff"/></g><defs><clipPath id="clip0_212_161"><path fill="#fff" d="M0 0h43v43H0z"/></clipPath></defs></svg>