<svg width="26" height="26" fill="none" xmlns="http://www.w3.org/2000/svg"><g id="instagram (1) 1" clip-path="url(#clip0_286_169)"><g id="Group"><path id="Vector" d="M13 8.465c-2.94 0-4.535 2.419-4.535 4.586 0 2.67 2.419 4.484 4.535 4.484 2.72 0 4.535-2.419 4.535-4.484 0-2.167-1.595-4.586-4.535-4.586zm0 0c-2.94 0-4.535 2.419-4.535 4.586 0 2.67 2.419 4.484 4.535 4.484 2.72 0 4.535-2.419 4.535-4.484 0-2.167-1.595-4.586-4.535-4.586zM22.191 0H3.81A3.81 3.81 0 000 3.809V22.19A3.81 3.81 0 003.809 26H22.19A3.81 3.81 0 0026 22.191V3.81A3.81 3.81 0 0022.191 0zM13 20.256c-3.778 0-7.256-3.427-7.256-7.205S9.222 5.744 13 5.744s7.256 3.529 7.256 7.307c0 3.778-3.478 7.205-7.256 7.205zm8.379-14.06a1.528 1.528 0 01-1.524-1.524c0-.838.686-1.524 1.524-1.524s1.523.686 1.523 1.524-.685 1.523-1.523 1.523zM13 8.465c-2.94 0-4.535 2.418-4.535 4.585 0 2.67 2.419 4.484 4.535 4.484 2.72 0 4.535-2.419 4.535-4.484 0-2.167-1.595-4.586-4.535-4.586zm0 0c-2.94 0-4.535 2.418-4.535 4.585 0 2.67 2.419 4.484 4.535 4.484 2.72 0 4.535-2.419 4.535-4.484 0-2.167-1.595-4.586-4.535-4.586zm0 0c-2.94 0-4.535 2.418-4.535 4.585 0 2.67 2.419 4.484 4.535 4.484 2.72 0 4.535-2.419 4.535-4.484 0-2.167-1.595-4.586-4.535-4.586z" fill="gray"/></g></g><defs><clipPath id="clip0_286_169"><path fill="#fff" d="M0 0h26v26H0z"/></clipPath></defs></svg>