<svg width="169" height="40" fill="none" xmlns="http://www.w3.org/2000/svg"><path d="M38.98 33.97H0V1.988h38.98V33.97zM1.86 32.119h35.263V3.84H1.859v28.278z" fill="gray"/><path d="M75.866 33.97H37.004V1.988h38.862V33.97zm-37.004-1.852h35.145V3.84H38.862v28.278zM24.196 18.021c.523.152.997.387 1.436.674.44.303.81.657 1.132 1.06.321.405.558.86.743 1.365a4.52 4.52 0 01.27 1.583c0 .674-.134 1.314-.388 1.903-.27.59-.608 1.112-1.064 1.55a4.84 4.84 0 01-1.572 1.044c-.608.253-1.25.37-1.926.37h-7.113a5.058 5.058 0 01-1.876-.404 4.822 4.822 0 01-1.537-1.027 5.288 5.288 0 01-1.048-1.516c-.27-.573-.389-1.196-.389-1.853h1.91c0 .405.084.775.253 1.129.169.354.389.674.659.943.27.27.591.489.963.64.372.152.76.236 1.183.236h6.894v-.034c.034 0 .05 0 .067.017s.034.017.068.017c.422 0 .81-.084 1.2-.236a2.72 2.72 0 00.963-.657c.27-.286.49-.606.659-.96.169-.37.253-.758.253-1.179a.129.129 0 00-.034-.084v-.319c-.017-.018-.034-.035-.034-.051 0-.068-.016-.118-.033-.135v-.068c0-.016 0-.033-.017-.033s-.017-.017-.017-.034v-.05l-.034-.034v-.05c0-.017-.017-.034-.034-.051 0-.034 0-.05-.017-.068-.017-.016-.017-.033-.017-.067-.016 0-.033-.017-.033-.034 0-.016 0-.033-.017-.033-.017-.017-.017-.034-.017-.068-.017 0-.034-.017-.034-.033v-.034c-.017-.017-.034-.034-.034-.05-.017-.017-.034-.034-.034-.051-.016-.017-.033-.034-.033-.05a.367.367 0 00-.051-.085c-.017-.034-.034-.05-.05-.084l-.034-.034v-.033l-.051-.05-.034-.051-.034-.051-.084-.084-.05-.05c0-.017-.018-.034-.035-.051l-.05-.05-.051-.051-.034-.05c-.017 0-.034 0-.034-.018 0-.017-.017-.017-.033-.017-.017-.016-.034-.033-.034-.05a.231.231 0 00-.068-.05l-.034-.034-.05-.05c-.017 0-.034 0-.034-.018 0-.016-.017-.016-.034-.016l-.05-.051-.051-.034a.45.45 0 00-.102-.084l-.05-.034c0-.016-.017-.033-.051-.033v-.034l-.05-.034c-.018 0-.034 0-.034-.016 0-.017-.017-.017-.034-.017-.034-.034-.068-.05-.102-.05a.458.458 0 00-.135-.051c-.017-.017-.034-.034-.05-.034-.017-.017-.034-.034-.051-.034-.017-.017-.034-.033-.05-.033h-.035c-.017-.017-.034-.034-.05-.034-.034-.017-.051-.034-.068-.034-.017 0-.034-.017-.068-.033-.017 0-.033 0-.05-.017s-.034-.017-.051-.017h-.084v-.034h.084a37.325 37.325 0 00-1.538-.354 81.246 81.246 0 00-2.314-.454 3.734 3.734 0 00-.423-.084 3.774 3.774 0 01-.422-.085c-.237-.033-.49-.084-.727-.134a11.02 11.02 0 00-.726-.135c-.017 0-.034 0-.034-.017-.017-.017-.017-.017-.034-.017a.836.836 0 01-.253-.05h-.135a.129.129 0 00-.085-.034c-.034 0-.068 0-.085-.017-.016-.017-.05-.017-.084-.017a.129.129 0 01-.085-.033h-.1a8.329 8.329 0 00-.525-.085c-.152-.033-.304-.05-.439-.084a4.961 4.961 0 00-.44-.084 4.474 4.474 0 01-.32-.05 8.099 8.099 0 01-.27-.051 4.448 4.448 0 01-1.437-.657 4.839 4.839 0 01-1.132-1.061 4.846 4.846 0 01-.743-1.364 4.547 4.547 0 01-.27-1.6c0-.657.117-1.28.371-1.886.253-.59.591-1.112 1.03-1.533a4.87 4.87 0 011.538-1.044 5.087 5.087 0 011.893-.421h7.4a4.738 4.738 0 011.758.438c.54.252 1.014.572 1.419.976.405.405.743.86 1.014 1.398.27.54.422 1.095.473 1.684h-1.91a3.422 3.422 0 00-.32-.993 3.045 3.045 0 00-.626-.825 2.907 2.907 0 00-.861-.556 3.068 3.068 0 00-1.031-.236h-7.299a3.173 3.173 0 00-1.133.253c-.354.151-.675.37-.929.656a3.06 3.06 0 00-.625.96 2.876 2.876 0 00-.236 1.129v.589l.033.034v.134c.017.018.034.034.034.051v.068l.034.033v.084l.034.034v.05c.017.018.033.034.033.051 0 .017 0 .034.017.034.017.017.017.017.017.034a.274.274 0 01.034.084c.017.034.017.05.034.084 0 .034.017.067.034.084 0 .017.016.034.033.05 0 .018 0 .034.017.034.017.017.017.017.017.034l.034.05c.017 0 .034.018.034.051h-.05c0 .034.016.05.033.05v.034l.034.034.034.034v.034c.016.016.033.033.033.05h.034c0 .034.017.05.034.05l.05.051v.017l.034.05.051.05.101.102.102.135c.017 0 .034 0 .034.017 0 .016.017.016.033.016l.051.05.05.052.051.033c0 .017.017.034.034.034v.034c.017 0 .034.016.05.033l.035.034h.034c0 .017.016.034.033.034l.034.033.034.034c.017 0 .034.017.05.034.018 0 .034 0 .034.017 0 .016.017.016.034.016l.321.186c.034 0 .068.016.102.05a.13.13 0 01.084.034h.05l.034.034h.051c.017.016.034.033.05.033h.035c0 .017.017.034.05.034.017 0 .034.017.051.034h-.101.05l.034.033h.05c.035 0 .069.017.085.034h.051a.13.13 0 01.085.034h.169c.016 0 .135.016.338.05.202.034.473.084.794.135.32.05.71.118 1.132.185.439.068.895.152 1.368.236a7.9 7.9 0 01.372.084c.845.135 1.673.303 2.518.472.81.017 1.52.202 2.112.387z" fill="gray"/><path d="M64.478 27.638h-1.893v-8.91H49.98v8.91h-1.892v-19.2h1.892v8.404h12.605V8.438h1.893v19.2z" fill="gray"/><mask id="path-5-inside-1_279_79" fill="#fff"><path d="M92.425 8.404c.338.101.659.236.93.421.286.186.523.404.726.674.202.253.371.539.49.859a2.867 2.867 0 01-.068 2.19 3.1 3.1 0 01-.693.976 2.922 2.922 0 01-1.014.657 3.436 3.436 0 01-1.25.236h-4.629a3.557 3.557 0 01-1.217-.253 2.854 2.854 0 01-.997-.657 2.993 2.993 0 01-.676-.96 2.789 2.789 0 01-.253-1.179h1.25c0 .253.05.489.169.725.101.219.254.42.422.59.17.168.39.302.626.403.236.101.49.152.76.152h4.478v-.017h.101a2.04 2.04 0 001.402-.556c.17-.168.321-.387.423-.606a1.83 1.83 0 00.169-.741c0-.017 0-.034-.017-.05v.016-.168c-.017-.017-.017-.017-.017-.034 0-.05 0-.067-.017-.084v-.051c0-.016 0-.016-.017-.016 0 0-.017 0-.017-.017v-.034l-.017-.017v-.034c0-.016 0-.016-.016-.033 0-.017 0-.034-.017-.034v-.034c-.017 0-.017 0-.017-.016 0-.017 0-.017-.017-.017 0 0-.017-.017-.017-.034-.017 0-.017 0-.017-.017v-.017c-.017-.017-.017-.017-.017-.033-.017-.017-.017-.017-.017-.034-.017-.017-.017-.017-.017-.034-.017-.017-.017-.033-.033-.05-.017-.017-.017-.034-.034-.05l-.017-.018v-.016l-.034-.034-.017-.034-.017-.034-.05-.05-.034-.034c0-.016 0-.016-.017-.033l-.034-.034-.034-.034-.017-.033h-.033l-.034-.034c0-.017-.017-.017-.05-.034l-.018-.017-.034-.033h-.033l-.034-.034-.034-.017c-.017-.017-.05-.034-.068-.05l-.033-.017c0-.017-.017-.017-.034-.017v-.017l-.034-.017h-.034a.128.128 0 00-.067-.033c-.051-.017-.068-.034-.085-.034-.017-.017-.017-.017-.034-.017-.016-.017-.016-.017-.033-.017-.017-.017-.017-.017-.034-.017h-.017c-.017-.016-.017-.016-.034-.016-.017-.017-.034-.017-.05-.017 0 0-.017 0-.051-.017h-.118V9.6h-.034c-.203-.05-.541-.135-.997-.219-.456-.101-.963-.185-1.504-.286-.084-.017-.186-.034-.27-.05-.085-.018-.186-.034-.27-.051a4.648 4.648 0 01-.474-.085 4.643 4.643 0 00-.473-.084h-.068c-.05 0-.1-.017-.168-.033h-.068c-.017-.017-.034-.017-.05-.017h-.102c-.017 0-.034 0-.05-.017h-.068a15.609 15.609 0 01-.338-.05 9.602 9.602 0 01-.288-.051c-.1-.017-.202-.034-.287-.05-.084-.018-.152-.018-.22-.034-.067-.017-.118-.017-.168-.034a2.882 2.882 0 01-.93-.404 2.768 2.768 0 01-.726-.674 3.072 3.072 0 01-.49-.859 2.897 2.897 0 01.067-2.206c.17-.37.389-.69.676-.977a3.374 3.374 0 012.23-.926h4.816a3.21 3.21 0 012.078.893c.27.252.49.538.66.875.168.337.27.69.303 1.061h-1.25a1.722 1.722 0 00-.22-.623 1.742 1.742 0 00-.405-.522 1.952 1.952 0 00-.558-.354 2.2 2.2 0 00-.676-.151h-4.747a2.273 2.273 0 00-.744.168c-.237.101-.44.236-.608.404a1.91 1.91 0 00-.406.607 1.74 1.74 0 00-.152.724v.05-.067.135l.017.016v.085c.017.017.017.017.017.033v.051l.017.017v.05l.017.017v.034c.017.017.017.017.017.033 0 .017 0 .017.017.017l.017.017c.016.017.016.034.033.05 0 .018.017.034.034.051 0 .017 0 .034.017.05 0 .018 0 .018.017.034 0 .017 0 .017.017.017v.017l.017.034c.017 0 .017.017.017.033h.016c0 .017 0 .034.017.034V6.4l.017.017.017.017v.017c.017.016.017.016.017.033h.017c0 .017 0 .034.017.034l.034.034v.016l.016.034.034.034.068.067.067.084h.034l.034.034.034.034.034.017c0 .016 0 .016.016.016v.017c.017 0 .017 0 .034.017l.017.017h.017c0 .017 0 .017.017.017l.017.017.017.016c.017 0 .017 0 .034.017h.033l.203.118c.017 0 .05.017.068.034.017 0 .033 0 .05.017h.034l.017.017h.034c.017.016.017.016.034.016h.017c0 .017.017.017.033.017.017 0 .017 0 .034.017h.051l.017.017h.034c.017 0 .033 0 .05.017h.034c.017 0 .034 0 .05.017h.102c.017 0 .085.016.22.033s.304.05.524.085c.202.033.456.067.743.117s.574.101.879.152c.118.017.186.034.236.05.54.085 1.099.186 1.64.304.523.134.996.252 1.368.37z"/></mask><path d="M92.425 8.404c.338.101.659.236.93.421.286.186.523.404.726.674.202.253.371.539.49.859a2.867 2.867 0 01-.068 2.19 3.1 3.1 0 01-.693.976 2.922 2.922 0 01-1.014.657 3.436 3.436 0 01-1.25.236h-4.629a3.557 3.557 0 01-1.217-.253 2.854 2.854 0 01-.997-.657 2.993 2.993 0 01-.676-.96 2.789 2.789 0 01-.253-1.179h1.25c0 .253.05.489.169.725.101.219.254.42.422.59.17.168.39.302.626.403.236.101.49.152.76.152h4.478v-.017h.101a2.04 2.04 0 001.402-.556c.17-.168.321-.387.423-.606a1.83 1.83 0 00.169-.741c0-.017 0-.034-.017-.05v.016-.168c-.017-.017-.017-.017-.017-.034 0-.05 0-.067-.017-.084v-.051c0-.016 0-.016-.017-.016 0 0-.017 0-.017-.017v-.034l-.017-.017v-.034c0-.016 0-.016-.016-.033 0-.017 0-.034-.017-.034v-.034c-.017 0-.017 0-.017-.016 0-.017 0-.017-.017-.017 0 0-.017-.017-.017-.034-.017 0-.017 0-.017-.017v-.017c-.017-.017-.017-.017-.017-.033-.017-.017-.017-.017-.017-.034-.017-.017-.017-.017-.017-.034-.017-.017-.017-.033-.033-.05-.017-.017-.017-.034-.034-.05l-.017-.018v-.016l-.034-.034-.017-.034-.017-.034-.05-.05-.034-.034c0-.016 0-.016-.017-.033l-.034-.034-.034-.034-.017-.033h-.033l-.034-.034c0-.017-.017-.017-.05-.034l-.018-.017-.034-.033h-.033l-.034-.034-.034-.017c-.017-.017-.05-.034-.068-.05l-.033-.017c0-.017-.017-.017-.034-.017v-.017l-.034-.017h-.034a.128.128 0 00-.067-.033c-.051-.017-.068-.034-.085-.034-.017-.017-.017-.017-.034-.017-.016-.017-.016-.017-.033-.017-.017-.017-.017-.017-.034-.017h-.017c-.017-.016-.017-.016-.034-.016-.017-.017-.034-.017-.05-.017 0 0-.017 0-.051-.017h-.118V9.6h-.034c-.203-.05-.541-.135-.997-.219-.456-.101-.963-.185-1.504-.286-.084-.017-.186-.034-.27-.05-.085-.018-.186-.034-.27-.051a4.648 4.648 0 01-.474-.085 4.643 4.643 0 00-.473-.084h-.068c-.05 0-.1-.017-.168-.033h-.068c-.017-.017-.034-.017-.05-.017h-.102c-.017 0-.034 0-.05-.017h-.068a15.609 15.609 0 01-.338-.05 9.602 9.602 0 01-.288-.051c-.1-.017-.202-.034-.287-.05-.084-.018-.152-.018-.22-.034-.067-.017-.118-.017-.168-.034a2.882 2.882 0 01-.93-.404 2.768 2.768 0 01-.726-.674 3.072 3.072 0 01-.49-.859 2.897 2.897 0 01.067-2.206c.17-.37.389-.69.676-.977a3.374 3.374 0 012.23-.926h4.816a3.21 3.21 0 012.078.893c.27.252.49.538.66.875.168.337.27.69.303 1.061h-1.25a1.722 1.722 0 00-.22-.623 1.742 1.742 0 00-.405-.522 1.952 1.952 0 00-.558-.354 2.2 2.2 0 00-.676-.151h-4.747a2.273 2.273 0 00-.744.168c-.237.101-.44.236-.608.404a1.91 1.91 0 00-.406.607 1.74 1.74 0 00-.152.724v.05-.067.135l.017.016v.085c.017.017.017.017.017.033v.051l.017.017v.05l.017.017v.034c.017.017.017.017.017.033 0 .017 0 .017.017.017l.017.017c.016.017.016.034.033.05 0 .018.017.034.034.051 0 .017 0 .034.017.05 0 .018 0 .018.017.034 0 .017 0 .017.017.017v.017l.017.034c.017 0 .017.017.017.033h.016c0 .017 0 .034.017.034V6.4l.017.017.017.017v.017c.017.016.017.016.017.033h.017c0 .017 0 .034.017.034l.034.034v.016l.016.034.034.034.068.067.067.084h.034l.034.034.034.034.034.017c0 .016 0 .016.016.016v.017c.017 0 .017 0 .034.017l.017.017h.017c0 .017 0 .017.017.017l.017.017.017.016c.017 0 .017 0 .034.017h.033l.203.118c.017 0 .05.017.068.034.017 0 .033 0 .05.017h.034l.017.017h.034c.017.016.017.016.034.016h.017c0 .017.017.017.033.017.017 0 .017 0 .034.017h.051l.017.017h.034c.017 0 .033 0 .05.017h.034c.017 0 .034 0 .05.017h.102c.017 0 .085.016.22.033s.304.05.524.085c.202.033.456.067.743.117s.574.101.879.152c.118.017.186.034.236.05.54.085 1.099.186 1.64.304.523.134.996.252 1.368.37z" fill="gray" stroke="gray" stroke-width="10" mask="url(#path-5-inside-1_279_79)"/><mask id="path-6-inside-2_279_79" fill="#fff"><path d="M107.091 9.01h-5.238v5.44h-1.267V2.393h7.722c.456.033.878.134 1.284.336.405.186.76.438 1.047.741.288.304.524.64.71 1.028.169.387.27.791.27 1.212 0 .422-.084.809-.236 1.196-.152.388-.389.708-.659 1.01a4.028 4.028 0 01-.997.742c-.389.202-.794.32-1.233.387h-1.403v-.033zm1.183-1.162c.287-.033.557-.117.811-.235.253-.135.473-.287.659-.472.186-.185.321-.404.439-.657.118-.252.169-.505.169-.791a1.88 1.88 0 00-.169-.809 2.309 2.309 0 00-.473-.673 2.222 2.222 0 00-.71-.455 2.476 2.476 0 00-.861-.202h-6.269v4.294h6.404z"/></mask><path d="M107.091 9.01h-5.238v5.44h-1.267V2.393h7.722c.456.033.878.134 1.284.336.405.186.76.438 1.047.741.288.304.524.64.71 1.028.169.387.27.791.27 1.212 0 .422-.084.809-.236 1.196-.152.388-.389.708-.659 1.01a4.028 4.028 0 01-.997.742c-.389.202-.794.32-1.233.387h-1.403v-.033zm1.183-1.162c.287-.033.557-.117.811-.235.253-.135.473-.287.659-.472.186-.185.321-.404.439-.657.118-.252.169-.505.169-.791a1.88 1.88 0 00-.169-.809 2.309 2.309 0 00-.473-.673 2.222 2.222 0 00-.71-.455 2.476 2.476 0 00-.861-.202h-6.269v4.294h6.404z" fill="gray"/><path d="M107.091 9.01h5v-5h-5v5zm-5.238 0v-5h-5v5h5zm0 5.44v5h5v-5h-5zm-1.267 0h-5v5h5v-5zm0-12.058v-5h-5v5h5zm7.722 0l.368-4.987-.184-.013h-.184v5zm1.284.336l-2.23 4.475.075.038.077.035 2.078-4.548zm1.757 1.769l4.583-2-.036-.082-.039-.081-4.508 2.163zm-.625 3.419l3.53 3.541.104-.104.098-.11-3.732-3.327zm-2.23 1.128v5h.381l.376-.058-.757-4.942zm-1.403 0h-5v5h5v-5zm1.994-1.431l2.109 4.533.12-.056.118-.063-2.347-4.414zm.625-3.402l3.53-3.542-.077-.076-.08-.074-3.373 3.692zm-.71-.455l-1.998 4.583.122.053.126.047L109 3.756zm-.861-.202l.276-4.993-.138-.007h-.138v5zm-6.269 0v-5h-5v5h5zm0 4.294h-5v5h5v-5zm5.221-3.837h-5.238v10h5.238v-10zm-10.238 5v5.44h10V9.01h-10zm5 .44h-1.267v10h1.267v-10zm3.733 5V2.39h-10v12.06h10zm-5-7.06h7.722v-10h-7.722v10zm7.354-.013a1.277 1.277 0 01-.214-.038 1.858 1.858 0 01-.364-.137l4.46-8.95a8.368 8.368 0 00-3.146-.848l-.736 9.973zm-.426-.102a1.645 1.645 0 01-.504-.368L114.269.03a8.364 8.364 0 00-2.599-1.85l-4.156 9.096zm-.504-.368a1.036 1.036 0 01-.169-.249l9.016-4.325A8.991 8.991 0 00114.269.03l-7.259 6.878zm-.244-.412a2.01 2.01 0 01-.147-.787h10c0-1.24-.301-2.326-.687-3.211l-9.166 3.998zm-.147-.787c0-.13.014-.26.039-.383.024-.12.054-.205.071-.248l9.308 3.654a8.21 8.21 0 00.582-3.023h-10zm.11-.63c.154-.394.347-.585.263-.491l7.464 6.656c.457-.513 1.122-1.343 1.581-2.512l-9.308-3.654zm.465-.704c-.004.004.016-.017.059-.05.045-.033.102-.07.167-.104l4.614 8.872a9.035 9.035 0 002.22-1.636l-7.06-7.082zm.226-.154a1.46 1.46 0 01.236-.098c.063-.02.095-.023.08-.021l1.515 9.884a8.898 8.898 0 002.783-.893L107.42 4.22zm1.074-.177h-1.403v10h1.403v-10zm3.597 5v-.033h-10v.033h10zm-3.235 3.77a7.65 7.65 0 002.338-.668l-4.218-9.067c.155-.072.399-.16.716-.197l1.164 9.932zm2.576-.787a7.727 7.727 0 001.842-1.345l-7.06-7.082a2.32 2.32 0 01.524-.402l4.694 8.83zm1.842-1.345a7.226 7.226 0 001.438-2.078l-9.057-4.24c.029-.062.193-.399.559-.764l7.06 7.082zm1.438-2.078c.461-.986.64-1.974.64-2.911h-10c0-.156.014-.37.067-.621.054-.255.136-.494.236-.708l9.057 4.24zm.64-2.911c0-.892-.162-1.906-.64-2.929l-9.057 4.24a3.136 3.136 0 01-.303-1.311h10zm-.64-2.929A7.33 7.33 0 00113.24.67l-7.06 7.083a2.683 2.683 0 01-.525-.748l9.057-4.24zM113.083.52a7.214 7.214 0 00-2.332-1.447L107.25 8.44a2.817 2.817 0 01-.913-.537L113.083.52zm-2.084-1.346a7.48 7.48 0 00-2.584-.612l-.553 9.985a2.514 2.514 0 01-.86-.207l3.997-9.166zm-2.86-.62h-6.269v10h6.269v-10zm-11.269 5v4.295h10V3.554h-10zm5 9.295h6.404v-10h-6.404v10z" fill="gray" mask="url(#path-6-inside-2_279_79)"/><mask id="path-8-inside-3_279_79" fill="#fff"><path d="M132.132 14.467h-1.369L128.33 9.92h-6.978l-2.434 4.547h-1.368l6.539-12.26h1.47l6.573 12.26zm-10.155-5.76h5.711l-2.839-5.339h-.017l-2.855 5.34z"/></mask><path d="M132.132 14.467h-1.369L128.33 9.92h-6.978l-2.434 4.547h-1.368l6.539-12.26h1.47l6.573 12.26zm-10.155-5.76h5.711l-2.839-5.339h-.017l-2.855 5.34z" fill="gray"/><path d="M132.132 14.467v5h8.353l-3.947-7.362-4.406 2.362zm-1.369 0l-4.409 2.36 1.414 2.64h2.995v-5zM128.33 9.92l4.408-2.359-1.413-2.641h-2.995v5zm-6.978 0v-5h-2.996l-1.413 2.641 4.409 2.359zm-2.434 4.547v5h2.996l1.413-2.64-4.409-2.36zm-1.368 0l-4.412-2.353-3.921 7.353h8.333v-5zm6.539-12.26v-5h-3l-1.412 2.646 4.412 2.353zm1.47 0l4.407-2.363-1.414-2.638h-2.993v5zm-3.582 6.5l-4.409-2.358-3.936 7.358h8.345v-5zm5.711 0v5h8.321l-3.906-7.347-4.415 2.347zm-2.839-5.339l4.415-2.347-1.41-2.653h-3.005v5zm-.017 0v-5h-2.996l-1.413 2.642 4.409 2.358zm7.3 6.1h-1.369v10h1.369v-10zm3.04 2.64l-2.434-4.547-8.817 4.718 2.433 4.547 8.818-4.718zM128.33 4.92h-6.978v10h6.978v-10zm-11.387 2.641l-2.433 4.547 8.817 4.718 2.433-4.547-8.817-4.718zm1.975 1.906h-1.368v10h1.368v-10zm3.044 7.353l6.539-12.26-8.824-4.707-6.539 12.261 8.824 4.706zm2.127-9.614h.017v-10h-.017v10zm.017 0h.405v-10h-.405v10zm.405 0h.321v-10h-.321v10zm.321 0h.321v-10h-.321v10zm.321 0h.389v-10h-.389v10zm.389 0h.017v-10h-.017v10zm-4.39-2.637l6.573 12.26 8.813-4.724-6.572-12.261-8.814 4.725zm.825 9.138h5.711v-10h-5.711v10zm10.126-7.347l-2.839-5.339-8.83 4.695 2.839 5.339 8.83-4.695zm-7.254-7.992h-.017v10h.017v-10zm-4.426 2.642l-2.855 5.34 8.818 4.716 2.855-5.34-8.818-4.716z" fill="gray" mask="url(#path-8-inside-3_279_79)"/><mask id="path-10-inside-4_279_79" fill="#fff"><path d="M140.022 13.221h1.859v1.196h-4.816V13.22h1.859V3.57h-1.859V2.375h4.816V3.57h-1.859v9.65z"/></mask><path d="M140.022 13.221h1.859v1.196h-4.816V13.22h1.859V3.57h-1.859V2.375h4.816V3.57h-1.859v9.65z" fill="gray"/><path d="M140.022 13.221h-5v5h5v-5zm1.859 0h5v-5h-5v5zm0 1.196v5h5v-5h-5zm-4.816 0h-5v5h5v-5zm0-1.196v-5h-5v5h5zm1.859 0v5h5v-5h-5zm0-9.65h5v-5h-5v5zm-1.859 0h-5v5h5v-5zm0-1.196v-5h-5v5h5zm4.816 0h5v-5h-5v5zm0 1.196v5h5v-5h-5zm-1.859 0v-5h-5v5h5zm0 14.65h1.859v-10h-1.859v10zm-3.141-5v1.196h10V13.22h-10zm5-3.804h-4.816v10h4.816v-10zm.184 5V13.22h-10v1.196h10zm-5 3.804h1.859v-10h-1.859v10zm6.859-5v-9.65h-10v9.65h10zm-5-14.65h-1.859v10h1.859v-10zm3.141 5V2.375h-10V3.57h10zm-5 3.804h4.816v-10h-4.816v10zm-.184-5V3.57h10V2.375h-10zm5-3.804h-1.859v10h1.859v-10zm-6.859 5v9.65h10v-9.65h-10z" fill="gray" mask="url(#path-10-inside-4_279_79)"/><mask id="path-12-inside-5_279_79" fill="#fff"><path d="M159.944 14.484h-1.251l-9.8-10.375v10.375h-1.216V2.358h1.233l9.817 10.375V2.375h1.234v12.11h-.017z"/></mask><path d="M159.944 14.484h-1.251l-9.8-10.375v10.375h-1.216V2.358h1.233l9.817 10.375V2.375h1.234v12.11h-.017z" fill="gray"/><path d="M158.693 14.484l-3.634 3.434 1.479 1.566h2.155v-5zm-9.8-10.375l3.635-3.433-8.635-9.141V4.109h5zm0 10.375v5h5v-5h-5zm-1.216 0h-5v5h5v-5zm0-12.126v-5h-5v5h5zm1.233 0l3.632-3.437-1.479-1.563h-2.153v5zm9.817 10.375l-3.632 3.436 8.632 9.122V12.733h-5zm0-10.358v-5h-5v5h5zm1.234 0h5v-5h-5v5zm0 12.11v5h5v-5h-5zm-.017-5h-1.234v10h1.234v-10zm-1.234 0h-.017v10h.017v-10zm3.618 1.566l-9.8-10.375-7.269 6.867 9.8 10.375 7.269-6.867zm-18.435-6.942v10.375h10V4.11h-10zm5 5.375h-1.216v10h1.216v-10zm3.784 5V2.358h-10v12.126h10zm-5-7.126h1.233v-10h-1.233v10zm-2.399-1.564l9.817 10.375 7.264-6.873-9.817-10.375-7.264 6.873zm18.449 6.939V2.375h-10v10.358h10zm-5-5.358h1.234v-10h-1.234v10zm-3.766-5v12.11h10V2.374h-10zm5 7.11h-.017v10h.017v-10z" fill="gray" mask="url(#path-12-inside-5_279_79)"/><path d="M94.402 33.853h-1.234v-5.626H84.99v5.626h-1.233V21.726h1.233v5.306h8.195v-5.306h1.234v12.127h-.017zm12.554-12.11c.878 0 1.689.152 2.467.472.777.32 1.453.758 2.01 1.297a6.03 6.03 0 011.369 1.92 5.52 5.52 0 01.507 2.358c0 .842-.169 1.616-.507 2.357a6.43 6.43 0 01-1.369 1.92 6.75 6.75 0 01-2.01 1.297 6.375 6.375 0 01-2.467.472c-.879 0-1.69-.152-2.467-.472a6.755 6.755 0 01-2.011-1.297 6.048 6.048 0 01-1.369-1.92 5.538 5.538 0 01-.506-2.357c0-.843.169-1.617.506-2.358a6.448 6.448 0 011.369-1.92 6.753 6.753 0 012.011-1.297 6.429 6.429 0 012.467-.472zm0 10.964a5.34 5.34 0 002.01-.387 4.898 4.898 0 001.639-1.061c.473-.438.828-.96 1.116-1.566.27-.607.405-1.247.405-1.92 0-.674-.135-1.314-.405-1.92a5.127 5.127 0 00-1.116-1.567 5.699 5.699 0 00-1.639-1.06 5.339 5.339 0 00-2.01-.388 5.34 5.34 0 00-2.011.387 5.084 5.084 0 00-1.639 1.061c-.473.438-.828.96-1.115 1.567a4.54 4.54 0 00-.406 1.92 4.6 4.6 0 00.406 1.92c.27.606.642 1.128 1.115 1.566a5.714 5.714 0 001.639 1.061 5.342 5.342 0 002.011.387zm23.334-10.964v6.889c0 .707-.152 1.38-.439 2.02a5.03 5.03 0 01-1.183 1.651 5.577 5.577 0 01-1.757 1.112 5.721 5.721 0 01-2.146.404 5.745 5.745 0 01-2.163-.404 5.565 5.565 0 01-1.757-1.112 5.196 5.196 0 01-1.183-1.65 4.892 4.892 0 01-.439-2.021v-6.889h1.216v6.501a.813.813 0 01.017.202v.202c.017.556.135 1.078.355 1.584.22.488.524.91.912 1.28.389.37.845.656 1.352.858.524.22 1.081.32 1.673.32a4.29 4.29 0 001.673-.32c.523-.218.98-.505 1.385-.858.406-.354.693-.792.929-1.28.22-.489.338-1.01.338-1.584v-6.904h1.217zm14.599 6.03c.338.1.659.235.929.42.287.186.524.405.727.674.202.253.371.54.49.86a2.866 2.866 0 01-.068 2.19c-.169.37-.406.706-.693.976a2.919 2.919 0 01-1.014.657 3.436 3.436 0 01-1.25.235h-4.63a3.559 3.559 0 01-1.216-.252 2.848 2.848 0 01-.997-.657 3 3 0 01-.676-.96 2.789 2.789 0 01-.253-1.18h1.25c0 .253.051.49.169.725.101.219.253.421.422.59.169.168.389.303.626.404.236.1.49.151.76.151h4.477v-.017h.102c.27 0 .524-.05.777-.151.237-.101.456-.236.625-.404a2.2 2.2 0 00.423-.607 1.83 1.83 0 00.169-.74c0-.018 0-.034-.017-.051v.017-.169c-.017-.017-.017-.017-.017-.034 0-.05 0-.067-.017-.084v-.05c0-.017 0-.017-.017-.017 0 0-.017 0-.017-.017v-.034l-.017-.016v-.034c0-.017 0-.017-.017-.034 0-.017 0-.034-.017-.034v-.033c-.016 0-.016 0-.016-.017s0-.017-.017-.017c0 0-.017-.017-.017-.034-.017 0-.017 0-.017-.016v-.017c-.017-.017-.017-.017-.017-.034-.017-.017-.017-.017-.017-.034-.017-.016-.017-.016-.017-.033-.017-.017-.017-.034-.034-.05-.017-.018-.017-.034-.033-.051l-.017-.017v-.017l-.034-.034-.017-.033-.017-.034-.051-.05-.033-.034c0-.017 0-.017-.017-.034l-.051-.067-.034-.034-.017-.034h-.033l-.034-.033c0-.017-.017-.017-.051-.034v-.034l-.034-.033h-.034l-.033-.034-.034-.017c-.017-.017-.051-.034-.068-.05l-.033-.017c0-.017-.017-.017-.034-.017v-.017l-.034-.017h-.034a.13.13 0 00-.067-.034c-.051-.016-.068-.033-.085-.033-.017-.017-.017-.017-.034-.017-.017-.017-.017-.017-.034-.017-.016-.017-.016-.017-.033-.017h-.017c-.017-.017-.017-.017-.034-.017-.017-.016-.034-.016-.051-.016 0 0-.017 0-.05-.017h-.102v-.017h-.034c-.202-.05-.54-.135-.996-.22-.457-.1-.964-.184-1.504-.285-.085-.017-.186-.034-.271-.05-.084-.018-.185-.035-.27-.051a4.683 4.683 0 01-.473-.085 4.627 4.627 0 00-.473-.084h-.068c-.05 0-.101-.017-.169-.034h-.084c-.017-.016-.034-.016-.051-.016h-.101c-.017 0-.034 0-.051-.017h-.068c-.118-.017-.236-.034-.337-.05a9.671 9.671 0 01-.288-.051 10.193 10.193 0 01-.287-.05c-.084-.018-.152-.018-.22-.035-.067-.016-.118-.016-.169-.033a2.877 2.877 0 01-.929-.404 2.756 2.756 0 01-.726-.674 3.06 3.06 0 01-.49-.859 2.881 2.881 0 01-.186-1.01c0-.422.084-.809.253-1.196.169-.37.389-.69.676-.977a3.376 3.376 0 012.23-.926h4.816a3.203 3.203 0 012.078.893c.271.252.49.538.659.875.169.337.27.69.304 1.061h-1.25a1.713 1.713 0 00-.22-.623 1.735 1.735 0 00-.405-.522 1.953 1.953 0 00-.558-.354 2.198 2.198 0 00-.676-.151h-4.748a2.266 2.266 0 00-.743.168 1.912 1.912 0 00-.608.404c-.169.168-.305.37-.406.606a1.746 1.746 0 00-.152.725v.235l.017.017v.085c.017.016.017.016.017.033v.051l.017.017v.05l.017.017v.034c.017.016.017.016.017.033s0 .017.016.017l.017.017c.017.017.017.034.034.05 0 .017.017.034.034.051 0 .017 0 .034.017.05 0 .017 0 .017.017.034 0 .017 0 .017.017.017v.017l.016.034c.017 0 .017.016.017.033h.017c0 .017 0 .034.017.034v.017l.017.017.017.016v.017c.017.017.017.017.017.034h.017c0 .017 0 .034.017.034l.033.033v.017l.017.034.034.034.068.067.067.084h.034l.034.034.034.034.033.016c0 .017 0 .017.017.017v.017c.017 0 .017 0 .034.017l.017.017h.017c0 .017 0 .017.017.017l.017.016.017.017c.017 0 .017 0 .033.017h.034l.203.118c.017 0 .051.017.068.034.016 0 .033 0 .05.016h.034l.017.017h.034c.017.017.017.017.034.017h.016c0 .017.017.017.034.017s.017 0 .034.017h.051l.017.017h.033c.017 0 .034 0 .051.017h.034c.017 0 .034 0 .051.016h.101c.017 0 .084.017.22.034.135.017.304.05.523.084.203.034.457.068.744.118.287.05.574.101.879.152.118.017.185.034.236.05.541.084 1.098.186 1.639.303.524.068.98.186 1.369.304zm17.843 6.08h-9.699v-12.11h9.699v1.18h-8.482v4.125h8.482v1.18h-8.482v4.446h8.482v1.179zm-1.285-15.983H83.723v.842h77.724v-.843z" fill="gray"/></svg>