<svg width="95" height="80" fill="none" xmlns="http://www.w3.org/2000/svg"><path d="M47.144 31.587H3.98V0h43.165v31.587zm-41.45-1.686H45.43V1.686H5.693v28.215z" fill="#fff"/><path d="M88.31 31.587H45.297V0H88.31v31.587zm-41.3-1.686h39.585V1.686H47.011v28.215zM29.57 15.962c.533.15 1.01.375 1.447.675.438.3.819.637 1.123 1.049.324.412.572.862.743 1.349.19.487.286 1.012.286 1.573 0 .675-.134 1.312-.4 1.893-.267.58-.61 1.105-1.066 1.536-.457.43-.972.787-1.58 1.03a5.191 5.191 0 01-1.943.375h-7.159a5.29 5.29 0 01-1.885-.393 4.818 4.818 0 01-1.543-1.03 5.21 5.21 0 01-1.047-1.5 4.249 4.249 0 01-.4-1.836h1.924c0 .394.076.769.247 1.125.171.355.38.655.666.936.267.263.59.487.952.637.362.15.762.225 1.18.225h6.932v-.019c.038 0 .057 0 .057.02 0 0 .038.018.057.018.419 0 .819-.075 1.2-.225.38-.15.704-.375.97-.656.267-.28.496-.6.667-.955.171-.356.247-.75.247-1.162 0-.037 0-.056-.019-.075v-.318c-.019-.019-.019-.038-.019-.056 0-.075 0-.113-.019-.131v-.075c0-.02 0-.02-.019-.02 0 0-.019 0-.019-.018v-.075l-.019-.019v-.056c0-.019 0-.037-.019-.056 0-.038 0-.056-.019-.056 0 0-.019-.038-.019-.056-.019 0-.019 0-.019-.02 0-.018 0-.037-.019-.037 0 0-.019-.037-.019-.056-.019 0-.019 0-.019-.019v-.018c-.02-.02-.02-.038-.02-.056-.018-.02-.018-.038-.018-.057-.02-.019-.02-.037-.02-.056-.018-.037-.037-.056-.056-.094a.41.41 0 01-.057-.093l-.02-.019v-.019l-.057-.056-.019-.056-.019-.056-.076-.075-.057-.056c0-.02 0-.038-.019-.057l-.057-.056-.057-.056-.02-.056c-.018 0-.018 0-.018-.02 0 0 0-.018-.02-.018-.018-.019-.037-.037-.037-.056 0-.019-.038-.038-.057-.056l-.02-.019-.057-.056c-.019 0-.019 0-.019-.019 0 0 0-.019-.019-.019l-.057-.056-.057-.019a.4.4 0 00-.114-.075l-.057-.018c0-.019-.02-.019-.057-.019v-.019l-.058-.018c-.019 0-.019 0-.019-.02 0 0 0-.018-.019-.018-.038-.037-.076-.056-.114-.056a.498.498 0 00-.133-.056c-.02-.02-.038-.02-.057-.02-.02-.018-.038-.018-.058-.018-.019-.018-.038-.018-.057-.018h-.019c-.019-.02-.038-.02-.057-.02-.038-.018-.057-.018-.057-.018s-.038 0-.057-.019c-.02 0-.038 0-.057-.018-.02 0-.038-.02-.057-.02h-.076v-.018h-.058c-.323-.094-.837-.206-1.542-.356a73.27 73.27 0 00-2.323-.45c-.133-.037-.285-.056-.419-.075-.133-.018-.285-.037-.419-.074a10.287 10.287 0 01-.742-.132 10.137 10.137 0 00-.743-.13c-.019 0-.038 0-.038-.02 0 0-.019-.018-.038-.018a.85.85 0 01-.266-.056h-.134c-.019-.02-.038-.02-.076-.02s-.057 0-.076-.018c-.02 0-.038-.019-.076-.019s-.057 0-.076-.018H21.8c-.19-.038-.361-.057-.533-.094a2.99 2.99 0 01-.438-.094c-.152-.037-.304-.056-.438-.075a3.625 3.625 0 01-.323-.056c-.114-.018-.19-.037-.267-.056a4.4 4.4 0 01-1.447-.656c-.438-.3-.819-.637-1.123-1.049a4.554 4.554 0 01-.743-1.367 4.431 4.431 0 01-.286-1.574c0-.656.134-1.274.381-1.874.248-.58.61-1.105 1.047-1.536.439-.43.953-.768 1.543-1.03a4.948 4.948 0 011.904-.413h7.446a4.727 4.727 0 011.77.431 4.79 4.79 0 011.428.975c.42.393.743.861 1.01 1.386.266.524.419 1.087.476 1.667h-1.923a3.797 3.797 0 00-.324-.993 3.397 3.397 0 00-.629-.824 3.482 3.482 0 00-.875-.562 2.753 2.753 0 00-1.048-.225H21.04c-.4.019-.78.113-1.143.262a2.72 2.72 0 00-.933.656c-.266.281-.476.6-.628.937a2.83 2.83 0 00-.228 1.124v.375l.019.018v.15c.019.02.019.038.019.056v.076l.019.018v.076l.019.018v.056c.019.019.019.038.019.056 0 .019 0 .038.019.038 0 0 .019.018.019.037.019.038.038.056.038.094 0 .019.019.056.038.094 0 .037 0 .056.019.075 0 .018 0 .037.02.056 0 .018 0 .037.018.037 0 0 .02.019.02.038l.018.056c.02 0 .02.019.02.056h.018c0 .038 0 .056.02.056v.019l.018.019.02.018v.02c.018.018.018.037.018.055h.02c0 .038 0 .057.018.057l.058.056v.019l.019.056.057.056.114.112.114.131c.02 0 .02 0 .02.02 0 0 0 .018.018.018l.058.056.057.056.057.02c0 .018 0 .018.019.018v.019c.019 0 .038 0 .057.018l.019.02h.019c0 .018 0 .018.019.018l.019.018.02.02c.018 0 .037 0 .056.018.02 0 .02 0 .02.019 0 0 0 .018.018.018l.324.188c.038 0 .076.019.114.056.038 0 .057 0 .076.019h.058l.018.018h.058c.019.02.038.02.057.02h.019c0 .018.019.018.057.018.019 0 .038 0 .057.019h.076l.02.018h.056c.038 0 .058 0 .077.02h.057c.038 0 .057 0 .076.018h.153c.018 0 .132.019.342.056.21.038.476.075.8.131.323.056.704.113 1.142.188.438.075.895.15 1.37.224.172.038.306.057.363.075.838.131 1.675.3 2.532.469.952.243 1.676.412 2.266.6z" fill="#fff"/><path d="M29.57 15.962c.533.15 1.01.375 1.447.675.438.3.819.637 1.123 1.049.324.412.572.862.743 1.349.19.487.286 1.012.286 1.573 0 .675-.134 1.312-.4 1.893-.267.58-.61 1.105-1.066 1.536-.457.43-.972.787-1.58 1.03a5.191 5.191 0 01-1.943.375h-7.159a5.29 5.29 0 01-1.885-.393 4.818 4.818 0 01-1.543-1.03 5.21 5.21 0 01-1.047-1.5 4.249 4.249 0 01-.4-1.836h1.924c0 .394.076.769.247 1.125.171.355.38.655.666.936.267.263.59.487.952.637.362.15.762.225 1.18.225h6.932v-.019c.038 0 .057 0 .057.02 0 0 .038.018.057.018.419 0 .819-.075 1.2-.225.38-.15.704-.375.97-.656.267-.28.496-.6.667-.955.171-.356.247-.75.247-1.162 0-.037 0-.056-.019-.075v-.318c-.019-.019-.019-.038-.019-.056 0-.075 0-.113-.019-.131v-.075c0-.02 0-.02-.019-.02 0 0-.019 0-.019-.018v-.075l-.019-.019v-.056c0-.019 0-.037-.019-.056 0-.038 0-.056-.019-.056 0 0-.019-.038-.019-.056-.019 0-.019 0-.019-.02 0-.018 0-.037-.019-.037 0 0-.019-.037-.019-.056-.019 0-.019 0-.019-.019v-.018c-.02-.02-.02-.038-.02-.056-.018-.02-.018-.038-.018-.057-.02-.019-.02-.037-.02-.056-.018-.037-.037-.056-.056-.094a.41.41 0 01-.057-.093l-.02-.019v-.019l-.057-.056-.019-.056-.019-.056-.076-.075-.057-.056c0-.02 0-.038-.019-.057l-.057-.056-.057-.056-.02-.056c-.018 0-.018 0-.018-.02 0 0 0-.018-.02-.018-.018-.019-.037-.037-.037-.056 0-.019-.038-.038-.057-.056l-.02-.019-.057-.056c-.019 0-.019 0-.019-.019 0 0 0-.019-.019-.019l-.057-.056-.057-.019a.4.4 0 00-.114-.075l-.057-.018c0-.019-.02-.019-.057-.019v-.019l-.058-.018c-.019 0-.019 0-.019-.02 0 0 0-.018-.019-.018-.038-.037-.076-.056-.114-.056a.498.498 0 00-.133-.056c-.02-.02-.038-.02-.057-.02-.02-.018-.038-.018-.058-.018-.019-.018-.038-.018-.057-.018h-.019c-.019-.02-.038-.02-.057-.02-.038-.018-.057-.018-.057-.018s-.038 0-.057-.019c-.02 0-.038 0-.057-.018-.02 0-.038-.02-.057-.02h-.076v-.018h-.058c-.323-.094-.837-.206-1.542-.356a73.27 73.27 0 00-2.323-.45c-.133-.037-.285-.056-.419-.075-.133-.018-.285-.037-.419-.074a10.287 10.287 0 01-.742-.132 10.137 10.137 0 00-.743-.13c-.019 0-.038 0-.038-.02 0 0-.019-.018-.038-.018a.85.85 0 01-.266-.056h-.134c-.019-.02-.038-.02-.076-.02s-.057 0-.076-.018c-.02 0-.038-.019-.076-.019s-.057 0-.076-.018H21.8c-.19-.038-.361-.057-.533-.094a2.99 2.99 0 01-.438-.094c-.152-.037-.304-.056-.438-.075a3.625 3.625 0 01-.323-.056c-.114-.018-.19-.037-.267-.056a4.4 4.4 0 01-1.447-.656c-.438-.3-.819-.637-1.123-1.049a4.554 4.554 0 01-.743-1.367 4.431 4.431 0 01-.286-1.574c0-.656.134-1.274.381-1.874.248-.58.61-1.105 1.047-1.536.439-.43.953-.768 1.543-1.03a4.948 4.948 0 011.904-.413h7.446a4.727 4.727 0 011.77.431 4.79 4.79 0 011.428.975c.42.393.743.861 1.01 1.386.266.524.419 1.087.476 1.667h-1.923a3.797 3.797 0 00-.324-.993 3.397 3.397 0 00-.629-.824 3.482 3.482 0 00-.875-.562 2.753 2.753 0 00-1.048-.225H21.04c-.4.019-.78.113-1.143.262a2.72 2.72 0 00-.933.656c-.266.281-.476.6-.628.937a2.83 2.83 0 00-.228 1.124v.375l.019.018v.15c.019.02.019.038.019.056v.076l.019.018v.076l.019.018v.056c.019.019.019.038.019.056 0 .019 0 .038.019.038 0 0 .019.018.019.037.019.038.038.056.038.094 0 .019.019.056.038.094 0 .037 0 .056.019.075 0 .018 0 .037.02.056 0 .018 0 .037.018.037 0 0 .02.019.02.038l.018.056c.02 0 .02.019.02.056h.018c0 .038 0 .056.02.056v.019l.018.019.02.018v.02c.018.018.018.037.018.055h.02c0 .038 0 .057.018.057l.058.056v.019l.019.056.057.056.114.112.114.131c.02 0 .02 0 .02.02 0 0 0 .018.018.018l.058.056.057.056.057.02c0 .018 0 .018.019.018v.019c.019 0 .038 0 .057.018l.019.02h.019c0 .018 0 .018.019.018l.019.018.02.02c.018 0 .037 0 .056.018.02 0 .02 0 .02.019 0 0 0 .018.018.018l.324.188c.038 0 .076.019.114.056.038 0 .057 0 .076.019h.058l.018.018h.058c.019.02.038.02.057.02h.019c0 .018.019.018.057.018.019 0 .038 0 .057.019h.076l.02.018h.056c.038 0 .058 0 .077.02h.057c.038 0 .057 0 .076.018h.153c.018 0 .132.019.342.056.21.038.476.075.8.131.323.056.704.113 1.142.188.438.075.895.15 1.37.224.172.038.306.057.363.075.838.131 1.675.3 2.532.469.952.243 1.676.412 2.266.6z" stroke="#fff" stroke-width="2" stroke-miterlimit="10"/><path d="M75.324 25.498H73.42v-8.824H60.758V25.5h-1.904V6.463h1.904V14.8H73.42V6.464h1.904v19.035z" fill="#fff"/><path d="M75.324 25.498H73.42v-8.824H60.758V25.5h-1.904V6.463h1.904V14.8H73.42V6.464h1.904v19.035z" stroke="#fff" stroke-width="2" stroke-miterlimit="10"/><path d="M11.539 49.291c.38.113.742.263 1.047.469.323.206.59.45.819.75.228.28.418.599.552.955.133.355.21.711.21 1.105 0 .468-.096.918-.287 1.33-.19.412-.457.787-.78 1.087a3.3 3.3 0 01-1.143.73 3.918 3.918 0 01-1.409.263H5.331a4.054 4.054 0 01-1.37-.281 3.22 3.22 0 01-1.124-.731 3.332 3.332 0 01-.762-1.068 3.07 3.07 0 01-.285-1.311h1.409c0 .28.057.543.19.805.114.244.286.469.476.656.19.187.438.337.705.45.266.112.552.168.857.168h5.045v-.018h.114c.305 0 .59-.057.876-.17a2.22 2.22 0 00.705-.449c.19-.187.362-.43.476-.674.114-.263.19-.525.19-.825 0-.018 0-.037-.019-.056v-.225c-.019-.018-.019-.018-.019-.037 0-.056 0-.075-.019-.094v-.056c0-.019 0-.019-.019-.019 0 0-.019 0-.019-.018v-.038l-.019-.019v-.037c0-.019 0-.019-.019-.038 0-.018 0-.037-.019-.037 0 0-.02-.019-.02-.037-.018 0-.018 0-.018-.02 0-.018 0-.018-.02-.018 0 0-.018-.019-.018-.037-.02 0-.02 0-.02-.02v-.018c-.018 0-.018 0-.018-.019-.02-.018-.02-.018-.02-.037-.018-.019-.018-.019-.018-.038-.02-.018-.02-.037-.038-.056-.02-.019-.02-.037-.038-.056l-.02-.019v-.018l-.038-.038-.019-.037-.019-.038-.057-.056-.038-.038c0-.018 0-.018-.019-.037l-.038-.037-.038-.038-.02-.037h-.038c-.018-.02-.018-.02-.037-.038 0-.019-.02-.019-.057-.037l-.02-.02-.038-.037h-.038l-.038-.037-.038-.019c-.019-.018-.057-.037-.076-.056l-.038-.019c0-.018-.02-.018-.038-.018v-.057l-.038-.018h-.038a.145.145 0 00-.076-.038c-.058-.019-.077-.037-.096-.037-.019-.019-.019-.019-.038-.019-.019-.019-.019-.019-.038-.019-.019-.019-.019-.019-.038-.019h-.019c-.019-.018-.019-.018-.038-.018-.02-.019-.038-.019-.057-.019 0 0-.02 0-.057-.019h-.115v-.018h-.038c-.228-.057-.609-.15-1.123-.244-.514-.112-1.085-.206-1.695-.319-.095-.018-.209-.037-.304-.056-.095-.018-.21-.037-.305-.056a5.278 5.278 0 01-.533-.094 5.335 5.335 0 00-.533-.093h-.076c-.057 0-.115-.019-.19-.038H6.15c-.019-.018-.038-.018-.057-.018h-.114c-.02 0-.038 0-.057-.02h-.077a17.735 17.735 0 01-.704-.112 11.027 11.027 0 01-.324-.056c-.095-.019-.171-.019-.247-.037-.076-.019-.134-.019-.19-.038a3.271 3.271 0 01-1.048-.45 3.103 3.103 0 01-.819-.749 3.406 3.406 0 01-.552-.955 3.186 3.186 0 01-.21-1.124c0-.469.096-.9.286-1.312.19-.412.438-.768.762-1.086.324-.3.685-.544 1.123-.731a3.843 3.843 0 011.39-.3h5.427a3.623 3.623 0 012.342.993c.304.281.552.6.742.974.19.375.305.769.343 1.18h-1.409a1.9 1.9 0 00-.247-.693 1.941 1.941 0 00-.457-.58c-.19-.169-.4-.3-.629-.394a2.51 2.51 0 00-.761-.168H5.312a2.59 2.59 0 00-.838.187 2.164 2.164 0 00-.685.45c-.19.187-.343.412-.457.674a1.976 1.976 0 00-.171.806v.262l.019.019v.093c.019.02.019.02.019.038v.056l.019.019v.055l.019.019v.037c.019.019.019.019.019.038 0 .018 0 .018.019.018l.019.02c.019.018.019.037.038.055 0 .019.02.038.038.056 0 .02 0 .038.02.057 0 .019 0 .019.018.037 0 .019 0 .019.02.019l.018.019.02.037c.018 0 .018.019.018.038h.02c0 .018 0 .037.018.037v.019l.02.019.019.018v.019c.019.019.019.019.019.038h.019c0 .018 0 .037.019.037l.038.037v.02l.019.037.038.037.076.075.076.094h.038l.038.037.038.038.039.018c0 .02 0 .02.019.02v.018c.019 0 .019 0 .038.019l.019.018h.019c0 .02 0 .02.019.02l.019.018.019.018c.019 0 .019 0 .038.02h.038l.228.13c.02 0 .058.02.077.038.019 0 .038 0 .057.019h.038l.019.018h.038c.019.02.019.02.038.02h.02c0 .018.018.018.037.018.02 0 .02 0 .038.019h.057l.02.018h.038c.019 0 .038 0 .057.019h.038c.019 0 .038 0 .057.019h.115c.018 0 .094.018.247.037.152.019.342.056.59.094.228.037.514.075.838.131.323.056.647.112.99.169.133.018.21.037.266.056.61.094 1.238.206 1.847.337.61.131 1.105.206 1.543.337zm17.669.675h-5.902v6.051h-1.428V42.584h8.701c.514.038.99.15 1.447.375.457.206.857.487 1.18.824.324.338.59.712.8 1.143.19.431.305.88.305 1.35 0 .468-.095.898-.267 1.33-.17.43-.438.786-.742 1.123-.324.319-.686.6-1.123.825a4.437 4.437 0 01-1.39.43h-1.58v-.018zm1.333-1.293a2.98 2.98 0 00.914-.262c.286-.15.533-.319.742-.525.21-.206.362-.45.496-.73.114-.281.19-.562.19-.88 0-.32-.057-.619-.19-.9a2.579 2.579 0 00-.534-.75 2.511 2.511 0 00-.8-.505 2.826 2.826 0 00-.97-.225h-7.064v4.777h7.216zm28.028 7.344h-1.543l-2.742-5.058h-7.863l-2.742 5.058h-1.542l7.368-13.639h1.657l7.407 13.64zM47.125 49.61h6.436l-3.199-5.92h-.019l-3.218 5.92zm21.478 5.04h2.094v1.33h-5.426v-1.33h2.094V43.913h-2.094v-1.311h5.426v1.311h-2.094V54.65zm23.61 1.405h-1.39L79.78 44.515v11.54h-1.39v-13.49h1.39l11.062 11.542V42.566h1.39v13.489h-.019z" fill="#fff"/><path d="M11.539 49.291c.38.113.742.263 1.047.469.323.206.59.45.819.75.228.28.418.599.552.955.133.355.21.711.21 1.105 0 .468-.096.918-.287 1.33-.19.412-.457.787-.78 1.087a3.3 3.3 0 01-1.143.73 3.918 3.918 0 01-1.409.263H5.331a4.054 4.054 0 01-1.37-.281 3.22 3.22 0 01-1.124-.731 3.332 3.332 0 01-.762-1.068 3.07 3.07 0 01-.285-1.311h1.409c0 .28.057.543.19.805.114.244.286.469.476.656.19.187.438.337.705.45.266.112.552.168.857.168h5.045v-.018h.114c.305 0 .59-.057.876-.17a2.22 2.22 0 00.705-.449c.19-.187.362-.43.476-.674.114-.263.19-.525.19-.825 0-.018 0-.037-.019-.056v-.225c-.019-.018-.019-.018-.019-.037 0-.056 0-.075-.019-.094v-.056c0-.019 0-.019-.019-.019 0 0-.019 0-.019-.018v-.038l-.019-.019v-.037c0-.019 0-.019-.019-.038 0-.018 0-.037-.019-.037 0 0-.02-.019-.02-.037-.018 0-.018 0-.018-.02 0-.018 0-.018-.02-.018 0 0-.018-.019-.018-.037-.02 0-.02 0-.02-.02v-.018c-.018 0-.018 0-.018-.019-.02-.018-.02-.018-.02-.037-.018-.019-.018-.019-.018-.038-.02-.018-.02-.037-.038-.056-.02-.019-.02-.037-.038-.056l-.02-.019v-.018l-.038-.038-.019-.037-.019-.038-.057-.056-.038-.038c0-.018 0-.018-.019-.037l-.038-.037-.038-.038-.02-.037h-.038c-.018-.02-.018-.02-.037-.038 0-.019-.02-.019-.057-.037l-.02-.02-.038-.037h-.038l-.038-.037-.038-.019c-.019-.018-.057-.037-.076-.056l-.038-.019c0-.018-.02-.018-.038-.018v-.057l-.038-.018h-.038a.145.145 0 00-.076-.038c-.058-.019-.077-.037-.096-.037-.019-.019-.019-.019-.038-.019-.019-.019-.019-.019-.038-.019-.019-.019-.019-.019-.038-.019h-.019c-.019-.018-.019-.018-.038-.018-.02-.019-.038-.019-.057-.019 0 0-.02 0-.057-.019h-.115v-.018h-.038c-.228-.057-.609-.15-1.123-.244-.514-.112-1.085-.206-1.695-.319-.095-.018-.209-.037-.304-.056-.095-.018-.21-.037-.305-.056a5.278 5.278 0 01-.533-.094 5.335 5.335 0 00-.533-.093h-.076c-.057 0-.115-.019-.19-.038H6.15c-.019-.018-.038-.018-.057-.018h-.114c-.02 0-.038 0-.057-.02h-.077a17.735 17.735 0 01-.704-.112 11.027 11.027 0 01-.324-.056c-.095-.019-.171-.019-.247-.037-.076-.019-.134-.019-.19-.038a3.271 3.271 0 01-1.048-.45 3.103 3.103 0 01-.819-.749 3.406 3.406 0 01-.552-.955 3.186 3.186 0 01-.21-1.124c0-.469.096-.9.286-1.312.19-.412.438-.768.762-1.086.324-.3.685-.544 1.123-.731a3.843 3.843 0 011.39-.3h5.427a3.623 3.623 0 012.342.993c.304.281.552.6.742.974.19.375.305.769.343 1.18h-1.409a1.9 1.9 0 00-.247-.693 1.941 1.941 0 00-.457-.58c-.19-.169-.4-.3-.629-.394a2.51 2.51 0 00-.761-.168H5.312a2.59 2.59 0 00-.838.187 2.164 2.164 0 00-.685.45c-.19.187-.343.412-.457.674a1.976 1.976 0 00-.171.806v.262l.019.019v.093c.019.02.019.02.019.038v.056l.019.019v.055l.019.019v.037c.019.019.019.019.019.038 0 .018 0 .018.019.018l.019.02c.019.018.019.037.038.055 0 .019.02.038.038.056 0 .02 0 .038.02.057 0 .019 0 .019.018.037 0 .019 0 .019.02.019l.018.019.02.037c.018 0 .018.019.018.038h.02c0 .018 0 .037.018.037v.019l.02.019.019.018v.019c.019.019.019.019.019.038h.019c0 .018 0 .037.019.037l.038.037v.02l.019.037.038.037.076.075.076.094h.038l.038.037.038.038.039.018c0 .02 0 .02.019.02v.018c.019 0 .019 0 .038.019l.019.018h.019c0 .02 0 .02.019.02l.019.018.019.018c.019 0 .019 0 .038.02h.038l.228.13c.02 0 .058.02.077.038.019 0 .038 0 .057.019h.038l.019.018h.038c.019.02.019.02.038.02h.02c0 .018.018.018.037.018.02 0 .02 0 .038.019h.057l.02.018h.038c.019 0 .038 0 .057.019h.038c.019 0 .038 0 .057.019h.115c.018 0 .094.018.247.037.152.019.342.056.59.094.228.037.514.075.838.131.323.056.647.112.99.169.133.018.21.037.266.056.61.094 1.238.206 1.847.337.61.131 1.105.206 1.543.337zm17.669.675h-5.902v6.051h-1.428V42.584h8.701c.514.038.99.15 1.447.375.457.206.857.487 1.18.824.324.338.59.712.8 1.143.19.431.305.88.305 1.35 0 .468-.095.898-.267 1.33-.17.43-.438.786-.742 1.123-.324.319-.686.6-1.123.825a4.437 4.437 0 01-1.39.43h-1.58v-.018zm1.333-1.293a2.98 2.98 0 00.914-.262c.286-.15.533-.319.742-.525.21-.206.362-.45.496-.73.114-.281.19-.562.19-.88 0-.32-.057-.619-.19-.9a2.579 2.579 0 00-.534-.75 2.511 2.511 0 00-.8-.505 2.826 2.826 0 00-.97-.225h-7.064v4.777h7.216v0zm28.028 7.344h-1.543l-2.742-5.058h-7.863l-2.742 5.058h-1.542l7.368-13.639h1.657l7.407 13.64zM47.125 49.61h6.436l-3.199-5.92h-.019l-3.218 5.92zm21.478 5.04h2.094v1.33h-5.426v-1.33h2.094V43.913h-2.094v-1.311h5.426v1.311h-2.094V54.65zm23.61 1.405h-1.39L79.78 44.515v11.54h-1.39v-13.49h1.39l11.062 11.542V42.566h1.39v13.489h-.019z" stroke="#fff" stroke-width="2" stroke-miterlimit="10"/><path d="M12.376 78.143h-1.39v-6.258H1.771v6.258H.38v-13.49h1.39v5.902h9.234v-5.901h1.371v13.489zm15.29-13.471c.99 0 1.904.169 2.78.525a7.17 7.17 0 012.266 1.442 6.72 6.72 0 011.542 2.136c.38.806.571 1.686.571 2.623a6.14 6.14 0 01-.571 2.623 7.162 7.162 0 01-1.542 2.136 7.622 7.622 0 01-2.266 1.442 7.26 7.26 0 01-2.78.525 7.26 7.26 0 01-2.78-.525 7.622 7.622 0 01-2.266-1.442 6.717 6.717 0 01-1.542-2.136 6.08 6.08 0 01-.571-2.623c0-.937.19-1.798.57-2.623a7.162 7.162 0 011.543-2.136 7.624 7.624 0 012.266-1.442 7.709 7.709 0 012.78-.525zm0 12.216c.8 0 1.561-.15 2.266-.431a5.539 5.539 0 001.847-1.18c.533-.488.933-1.069 1.256-1.743a5.13 5.13 0 00.457-2.136 5.13 5.13 0 00-.457-2.136 5.471 5.471 0 00-1.256-1.742 6.446 6.446 0 00-1.847-1.18 6.087 6.087 0 00-2.266-.431c-.8 0-1.561.15-2.266.43a5.735 5.735 0 00-1.847 1.181c-.533.487-.933 1.068-1.256 1.742-.324.675-.457 1.368-.457 2.136 0 .75.152 1.462.457 2.136a5.273 5.273 0 001.256 1.742 6.46 6.46 0 001.847 1.18 6.07 6.07 0 002.266.431zm27.456-12.216v7.663c0 .787-.171 1.536-.495 2.248a5.587 5.587 0 01-1.333 1.836 6.283 6.283 0 01-1.98 1.237 6.51 6.51 0 01-2.418.45c-.876 0-1.675-.15-2.437-.45a6.284 6.284 0 01-1.98-1.237 5.788 5.788 0 01-1.333-1.836 5.379 5.379 0 01-.495-2.248v-7.663h1.37v7.232a.9.9 0 01.02.225v.225c.019.618.152 1.199.4 1.76a4.49 4.49 0 001.028 1.425c.438.412.952.73 1.523.955.59.244 1.219.356 1.885.356.666 0 1.295-.112 1.885-.356a5.694 5.694 0 001.561-.955c.457-.394.781-.881 1.048-1.424.247-.544.38-1.124.38-1.761v-7.682h1.371zm17.594 6.726c.38.113.742.263 1.047.469.324.206.59.45.819.749.228.281.419.6.552.956.133.355.21.711.21 1.105 0 .468-.096.918-.286 1.33-.19.412-.457.787-.78 1.087a3.299 3.299 0 01-1.143.73 3.919 3.919 0 01-1.41.263H66.51a4.053 4.053 0 01-1.371-.281 3.22 3.22 0 01-1.124-.731 3.333 3.333 0 01-.761-1.068 3.07 3.07 0 01-.286-1.311h1.409c0 .28.057.543.19.805.115.244.286.469.477.656.19.187.437.337.704.45.266.112.552.168.857.168h5.046v-.019h.114c.304 0 .59-.056.876-.168.266-.113.514-.262.704-.45.19-.187.362-.43.476-.674.114-.263.19-.525.19-.825 0-.018 0-.037-.019-.056v-.225c-.019-.018-.019-.018-.019-.037 0-.056 0-.075-.019-.094v-.056c0-.019 0-.019-.019-.019v-.056l-.019-.019v-.037c0-.019 0-.019-.019-.038v-.075c-.019 0-.019 0-.019-.018 0-.019 0-.019-.019-.019v-.037c-.019 0-.019 0-.019-.02v-.018c-.019-.019-.019-.019-.019-.037-.019-.02-.019-.02-.019-.038-.019-.019-.019-.019-.019-.037-.019-.02-.019-.038-.038-.057-.02-.018-.02-.037-.038-.056l-.02-.019v-.018l-.037-.038-.02-.037-.018-.038-.057-.056-.038-.037c0-.02 0-.02-.02-.038l-.038-.037-.038-.038-.019-.037h-.038l-.038-.038c0-.018-.019-.018-.057-.037l-.02-.019-.037-.037h-.038l-.038-.038-.038-.019c-.02-.018-.057-.037-.077-.056l-.038-.019c0-.018-.019-.018-.038-.018v-.038l-.038-.018h-.038a.145.145 0 00-.076-.038c-.057-.019-.076-.037-.095-.037-.02-.02-.02-.02-.038-.02-.02-.018-.02-.018-.038-.018-.02-.019-.02-.019-.038-.019h-.02c-.019-.018-.019-.018-.038-.018-.019-.019-.038-.019-.057-.019 0 0-.019 0-.057-.019h-.133v-.019h-.038c-.229-.056-.61-.15-1.124-.243-.514-.112-1.085-.206-1.694-.319-.095-.018-.21-.037-.305-.056-.095-.019-.21-.037-.305-.056a5.307 5.307 0 01-.533-.094 5.273 5.273 0 00-.533-.093h-.076c-.057 0-.114-.02-.19-.038h-.096c-.019-.019-.038-.019-.057-.019h-.114c-.019 0-.038 0-.057-.018h-.076c-.133-.019-.267-.038-.381-.056a10.671 10.671 0 01-.324-.057 10.671 10.671 0 01-.323-.056c-.096-.019-.172-.019-.248-.037-.076-.02-.133-.02-.19-.038a3.274 3.274 0 01-1.048-.45 3.106 3.106 0 01-.818-.749 3.41 3.41 0 01-.552-.955 3.186 3.186 0 01-.21-1.124c0-.469.095-.9.286-1.312.19-.412.438-.768.761-1.087.324-.3.686-.543 1.124-.73a3.841 3.841 0 011.39-.3h5.425c.457.019.895.131 1.295.3.4.168.742.412 1.047.693.305.281.552.6.743.974.19.375.304.768.342 1.18h-1.409a1.901 1.901 0 00-.247-.693 1.943 1.943 0 00-.457-.58c-.19-.169-.4-.3-.628-.394a2.505 2.505 0 00-.762-.168h-5.35a2.587 2.587 0 00-.838.187 2.164 2.164 0 00-.686.45 2.14 2.14 0 00-.457.674 1.978 1.978 0 00-.17.806v.262l.018.019v.093c.02.019.02.019.02.038v.056l.018.019v.056l.02.019v.037c.018.019.018.019.018.038v.018l.02.019c.018.019.018.037.037.056 0 .019.02.038.038.056 0 .02 0 .038.02.057 0 .018 0 .018.019.037 0 .019 0 .019.019.019l.019.019.019.037c.019 0 .019.019.019.037h.019c0 .02 0 .038.019.038v.019l.019.019.019.018v.019c.019.019.019.019.019.037h.019c0 .02 0 .038.019.038l.038.037v.02l.02.037.037.037.076.075.076.094h.039l.038.037.038.038.038.018c0 .02 0 .02.019.02v.018c.019 0 .019 0 .038.019l.019.018h.02c0 .019 0 .019.018.019l.02.019.018.019c.02 0 .02 0 .038.018h.038l.229.131c.019 0 .057.02.076.038.019 0 .038 0 .057.019h.038l.02.018h.037c.02.019.02.019.038.019h.02c0 .019.019.019.037.019.02 0 .02 0 .039.018h.057l.019.02h.038c.019 0 .038 0 .057.018h.038c.02 0 .038 0 .057.019h.115c.018 0 .095.018.247.037s.343.056.59.094c.229.037.514.075.838.131.324.056.647.112.99.169.133.018.21.037.267.056a31.59 31.59 0 011.847.337 9.915 9.915 0 011.504.337zm21.268 6.745h-10.93v-13.47h10.93v1.31h-9.558v4.59h9.558v1.312h-9.558v4.965h9.558v1.293z" fill="#fff"/><path d="M12.376 78.143h-1.39v-6.258H1.771v6.258H.38v-13.49h1.39v5.902h9.234v-5.901h1.371v13.489zm15.29-13.471c.99 0 1.904.169 2.78.525a7.17 7.17 0 012.266 1.442 6.72 6.72 0 011.542 2.136c.38.806.571 1.686.571 2.623a6.14 6.14 0 01-.571 2.623 7.162 7.162 0 01-1.542 2.136 7.622 7.622 0 01-2.266 1.442 7.26 7.26 0 01-2.78.525 7.26 7.26 0 01-2.78-.525 7.622 7.622 0 01-2.266-1.442 6.717 6.717 0 01-1.542-2.136 6.08 6.08 0 01-.571-2.623c0-.937.19-1.798.57-2.623a7.162 7.162 0 011.543-2.136 7.624 7.624 0 012.266-1.442 7.709 7.709 0 012.78-.525zm0 12.216c.8 0 1.561-.15 2.266-.431a5.539 5.539 0 001.847-1.18c.533-.488.933-1.069 1.256-1.743a5.13 5.13 0 00.457-2.136 5.13 5.13 0 00-.457-2.136 5.471 5.471 0 00-1.256-1.742 6.446 6.446 0 00-1.847-1.18 6.087 6.087 0 00-2.266-.431c-.8 0-1.561.15-2.266.43a5.735 5.735 0 00-1.847 1.181c-.533.487-.933 1.068-1.256 1.742-.324.675-.457 1.368-.457 2.136 0 .75.152 1.462.457 2.136a5.273 5.273 0 001.256 1.742 6.46 6.46 0 001.847 1.18 6.07 6.07 0 002.266.431zm27.456-12.216v7.663c0 .787-.171 1.536-.495 2.248a5.587 5.587 0 01-1.333 1.836 6.283 6.283 0 01-1.98 1.237 6.51 6.51 0 01-2.418.45c-.876 0-1.675-.15-2.437-.45a6.284 6.284 0 01-1.98-1.237 5.788 5.788 0 01-1.333-1.836 5.379 5.379 0 01-.495-2.248v-7.663h1.37v7.232a.9.9 0 01.02.225v.225c.019.618.152 1.199.4 1.76a4.49 4.49 0 001.028 1.425c.438.412.952.73 1.523.955.59.244 1.219.356 1.885.356.666 0 1.295-.112 1.885-.356a5.694 5.694 0 001.561-.955c.457-.394.781-.881 1.048-1.424.247-.544.38-1.124.38-1.761v-7.682h1.371zm17.594 6.726c.38.113.742.263 1.047.469.324.206.59.45.819.749.228.281.419.6.552.956.133.355.21.711.21 1.105 0 .468-.096.918-.286 1.33-.19.412-.457.787-.78 1.087a3.299 3.299 0 01-1.143.73 3.919 3.919 0 01-1.41.263H66.51a4.053 4.053 0 01-1.371-.281 3.22 3.22 0 01-1.124-.731 3.333 3.333 0 01-.761-1.068 3.07 3.07 0 01-.286-1.311h1.409c0 .28.057.543.19.805.115.244.286.469.477.656.19.187.437.337.704.45.266.112.552.168.857.168h5.046v-.019h.114c.304 0 .59-.056.876-.168.266-.113.514-.262.704-.45.19-.187.362-.43.476-.674.114-.263.19-.525.19-.825 0-.018 0-.037-.019-.056v-.225c-.019-.018-.019-.018-.019-.037 0-.056 0-.075-.019-.094v-.056c0-.019 0-.019-.019-.019v-.056l-.019-.019v-.037c0-.019 0-.019-.019-.038v-.075c-.019 0-.019 0-.019-.018 0-.019 0-.019-.019-.019v-.037c-.019 0-.019 0-.019-.02v-.018c-.019-.019-.019-.019-.019-.037-.019-.02-.019-.02-.019-.038-.019-.019-.019-.019-.019-.037-.019-.02-.019-.038-.038-.057-.02-.018-.02-.037-.038-.056l-.02-.019v-.018l-.037-.038-.02-.037-.018-.038-.057-.056-.038-.037c0-.02 0-.02-.02-.038l-.038-.037-.038-.038-.019-.037h-.038l-.038-.038c0-.018-.019-.018-.057-.037l-.02-.019-.037-.037h-.038l-.038-.038-.038-.019c-.02-.018-.057-.037-.077-.056l-.038-.019c0-.018-.019-.018-.038-.018v-.038l-.038-.018h-.038a.145.145 0 00-.076-.038c-.057-.019-.076-.037-.095-.037-.02-.02-.02-.02-.038-.02-.02-.018-.02-.018-.038-.018-.02-.019-.02-.019-.038-.019h-.02c-.019-.018-.019-.018-.038-.018-.019-.019-.038-.019-.057-.019 0 0-.019 0-.057-.019h-.133v-.019h-.038c-.229-.056-.61-.15-1.124-.243-.514-.112-1.085-.206-1.694-.319-.095-.018-.21-.037-.305-.056-.095-.019-.21-.037-.305-.056a5.307 5.307 0 01-.533-.094 5.273 5.273 0 00-.533-.093h-.076c-.057 0-.114-.02-.19-.038h-.096c-.019-.019-.038-.019-.057-.019h-.114c-.019 0-.038 0-.057-.018h-.076c-.133-.019-.267-.038-.381-.056a10.671 10.671 0 01-.324-.057 10.671 10.671 0 01-.323-.056c-.096-.019-.172-.019-.248-.037-.076-.02-.133-.02-.19-.038a3.274 3.274 0 01-1.048-.45 3.106 3.106 0 01-.818-.749 3.41 3.41 0 01-.552-.955 3.186 3.186 0 01-.21-1.124c0-.469.095-.9.286-1.312.19-.412.438-.768.761-1.087.324-.3.686-.543 1.124-.73a3.841 3.841 0 011.39-.3h5.425c.457.019.895.131 1.295.3.4.168.742.412 1.047.693.305.281.552.6.743.974.19.375.304.768.342 1.18h-1.409a1.901 1.901 0 00-.247-.693 1.943 1.943 0 00-.457-.58c-.19-.169-.4-.3-.628-.394a2.505 2.505 0 00-.762-.168h-5.35a2.587 2.587 0 00-.838.187 2.164 2.164 0 00-.686.45 2.14 2.14 0 00-.457.674 1.978 1.978 0 00-.17.806v.262l.018.019v.093c.02.019.02.019.02.038v.056l.018.019v.056l.02.019v.037c.018.019.018.019.018.038v.018l.02.019c.018.019.018.037.037.056 0 .019.02.038.038.056 0 .02 0 .038.02.057 0 .018 0 .018.019.037 0 .019 0 .019.019.019l.019.019.019.037c.019 0 .019.019.019.037h.019c0 .02 0 .038.019.038v.019l.019.019.019.018v.019c.019.019.019.019.019.037h.019c0 .02 0 .038.019.038l.038.037v.02l.02.037.037.037.076.075.076.094h.039l.038.037.038.038.038.018c0 .02 0 .02.019.02v.018c.019 0 .019 0 .038.019l.019.018h.02c0 .019 0 .019.018.019l.02.019.018.019c.02 0 .02 0 .038.018h.038l.229.131c.019 0 .057.02.076.038.019 0 .038 0 .057.019h.038l.02.018h.037c.02.019.02.019.038.019h.02c0 .019.019.019.037.019.02 0 .02 0 .039.018h.057l.019.02h.038c.019 0 .038 0 .057.018h.038c.02 0 .038 0 .057.019h.115c.018 0 .095.018.247.037s.343.056.59.094c.229.037.514.075.838.131.324.056.647.112.99.169.133.018.21.037.267.056a31.59 31.59 0 011.847.337 9.915 9.915 0 011.504.337zm21.268 6.745h-10.93v-13.47h10.93v1.31h-9.558v4.59h9.558v1.312h-9.558v4.965h9.558v1.293z" stroke="#fff" stroke-width="2" stroke-miterlimit="10"/><path d="M92.823 59.989H1.047v.937h91.776v-.937z" fill="#fff"/></svg>