<svg width="28" height="28" fill="none" xmlns="http://www.w3.org/2000/svg"><g id="instagram (1) 1" clip-path="url(#clip0_176_51)"><g id="Group"><path id="Vector" d="M14 9.116c-3.166 0-4.884 2.605-4.884 4.939 0 2.875 2.605 4.829 4.884 4.829 2.93 0 4.884-2.605 4.884-4.83 0-2.333-1.718-4.938-4.884-4.938zm0 0c-3.166 0-4.884 2.605-4.884 4.939 0 2.875 2.605 4.829 4.884 4.829 2.93 0 4.884-2.605 4.884-4.83 0-2.333-1.718-4.938-4.884-4.938zM23.898 0H4.102A4.103 4.103 0 000 4.102v19.796A4.103 4.103 0 004.102 28h19.796A4.103 4.103 0 0028 23.898V4.102A4.103 4.103 0 0023.898 0zM14 21.814c-4.069 0-7.814-3.69-7.814-7.76 0-4.068 3.745-7.868 7.814-7.868s7.814 3.8 7.814 7.869c0 4.068-3.745 7.759-7.814 7.759zm9.023-15.142c-.902 0-1.64-.738-1.64-1.64 0-.903.738-1.641 1.64-1.641.903 0 1.641.738 1.641 1.64 0 .903-.738 1.64-1.64 1.64zM14 9.116c-3.166 0-4.884 2.605-4.884 4.939 0 2.875 2.605 4.829 4.884 4.829 2.93 0 4.884-2.605 4.884-4.83 0-2.333-1.718-4.938-4.884-4.938zm0 0c-3.166 0-4.884 2.605-4.884 4.939 0 2.875 2.605 4.829 4.884 4.829 2.93 0 4.884-2.605 4.884-4.83 0-2.333-1.718-4.938-4.884-4.938zm0 0c-3.166 0-4.884 2.605-4.884 4.939 0 2.875 2.605 4.829 4.884 4.829 2.93 0 4.884-2.605 4.884-4.83 0-2.333-1.718-4.938-4.884-4.938z" fill="#fff"/></g></g><defs><clipPath id="clip0_176_51"><path fill="#fff" d="M0 0h28v28H0z"/></clipPath></defs></svg>