<svg width="15" height="14" fill="none" xmlns="http://www.w3.org/2000/svg"><g id="next (1) 3" clip-path="url(#clip0_265_240)"><g id="Group"><g id="Group_2"><path id="Vector" d="M10.812 5.697L2.473.344C2.13.124 1.774.007 1.47.007.799.007.355.531.355 1.375v11.257c0 .412.128.757.319.996.193.243.496.372.822.372.305 0 .648-.117.99-.337l8.332-5.353c.535-.345.83-.809.829-1.307 0-.498-.298-.961-.835-1.306z" fill="gray"/></g></g><g id="Group_3"><g id="Group_4"><g id="Group_5" fill="gray"><path id="Vector_2" d="M13.866 13.996h-.014.014z"/><path id="Vector_3" d="M13.84 0h-.344c-.451 0-.842.344-.842.766v12.457c0 .422.384.77.836.77l.366.003a.777.777 0 00.789-.772V.765c0-.421-.352-.765-.804-.765z"/></g></g></g></g><defs><clipPath id="clip0_265_240"><path fill="#fff" d="M0 0h15v14H0z"/></clipPath></defs></svg>