<svg width="17" height="16" fill="none" xmlns="http://www.w3.org/2000/svg"><g clip-path="url(#clip0_265_249)" fill="gray"><path d="M4.92 9.291l8.56 5.947c.352.245.718.375 1.032.377.69.003 1.15-.573 1.155-1.505l.057-12.42c.002-.455-.128-.836-.323-1.101a1.036 1.036 0 00-.845-.414c-.314-.002-.667.125-1.021.367L4.927 6.409c-.553.378-.858.888-.86 1.437-.003.55.302 1.063.852 1.445zM1.815.12h.017-.017zm-.044 15.443h.355c.465.003.87-.374.872-.84L3.06.98a.863.863 0 00-.857-.853L1.827.12c-.463 0-.814.384-.816.848L.947 14.715a.832.832 0 00.824.848z"/></g><defs><clipPath id="clip0_265_249"><path fill="#fff" transform="rotate(-179.734 8.03 7.796)" d="M0 0h15.448v15.448H0z"/></clipPath></defs></svg>