<svg width="18" height="18" fill="none" xmlns="http://www.w3.org/2000/svg"><g id="russia 2" clip-path="url(#clip0_286_156)"><path id="Vector" d="M9.003 18.002a9 9 0 100-18 9 9 0 000 18z" fill="#fff"/><path id="Vector_2" d="M17.486 6H11.94a24.85 24.85 0 01.005 5.965h5.552A8.979 8.979 0 0018 9a8.978 8.978 0 00-.514-3z" fill="#2B479D"/><path id="Vector_3" d="M11.94 6h5.545A9.006 9.006 0 009.808.037c1.378.754 1.78 3.147 2.132 5.961z" fill="#EFECEC"/><path id="Vector_4" d="M9.808 17.963a9.006 9.006 0 007.681-5.972c.003-.009.005-.018.009-.026h-5.553c-.35 2.83-.753 5.24-2.137 5.998z" fill="#E63026"/><path id="Vector_5" d="M0 9c0 1.04.178 2.036.502 2.965h11.906A24.884 24.884 0 0012.404 6H.514A8.981 8.981 0 000 9z" fill="#3757A6"/><path id="Vector_6" d="M.517 5.991A.126.126 0 01.514 6h11.89C12.052 3.185 11.186.792 9.808.037A9.002 9.002 0 00.517 5.991z" fill="#EFEFEF"/><path id="Vector_7" d="M12.408 11.965H.502l.009.026a9.002 9.002 0 009.297 5.972c1.384-.759 2.25-3.168 2.6-5.998z" fill="#E73B36"/></g><defs><clipPath id="clip0_286_156"><path fill="#fff" d="M0 0h18v18H0z"/></clipPath></defs></svg>