<svg width="18" height="18" fill="none" xmlns="http://www.w3.org/2000/svg"><g id="spain (1) 2" clip-path="url(#clip0_286_138)"><g id="Group" fill="#C42126"><path id="Vector" d="M9 18a8.98 8.98 0 007.088-3.458h-4.74C10.736 16.582 10.395 18 9 18z"/><path id="Vector_2" d="M8.466 17.985H8.46h.005z"/><path id="Vector_3" d="M11.348 3.458h4.74A8.982 8.982 0 009 0c1.395 0 1.736 1.418 2.348 3.458z"/><path id="Vector_4" d="M8.461.016h.005-.005z"/></g><path id="Vector_5" d="M16.089 3.458h-4.74c.956 3.188.956 7.896 0 11.084h4.74A8.956 8.956 0 0018 9a8.96 8.96 0 00-1.911-5.542z" fill="#FFC40C"/><g id="Group_3" fill="#D32030"><path id="Vector_8" d="M12.01 14.542H1.912a8.983 8.983 0 006.55 3.442h.004c.177.01.355.016.534.016 1.395 0 2.398-1.418 3.01-3.458z"/><path id="Vector_9" d="M1.912 3.458H12.01C11.398 1.418 10.395 0 9 0c-.18 0-.357.005-.534.016h-.005a8.983 8.983 0 00-6.55 3.442z"/></g><path id="Vector_10" d="M0 9c0 2.091.715 4.014 1.912 5.542H12.01c.957-3.188.957-7.896 0-11.084H1.912A8.958 8.958 0 000 9z" fill="#FFD034"/></g><defs><clipPath id="clip0_286_138"><path fill="#fff" d="M0 0h18v18H0z"/></clipPath></defs></svg>