<svg width="25" height="25" viewBox="0 0 25 25" fill="none" xmlns="http://www.w3.org/2000/svg">
<g id="left-arrow-in-circular-button-black-symbol 1" clip-path="url(#clip0_279_111)">
<g id="Group">
<g id="_x34__2_">
<g id="Group_2">
<path id="Vector" d="M12.5 0C5.59608 0 0 5.59608 0 12.5C0 19.4031 5.59608 25 12.5 25C19.4039 25 25 19.4031 25 12.5C25 5.59608 19.4039 0 12.5 0ZM17.9688 13.2812H9.69845L12.9179 16.5008C13.2234 16.8062 13.2234 17.3008 12.9179 17.6054C12.6125 17.9109 12.118 17.9109 11.8133 17.6054L7.39375 13.1859C7.20703 12.9992 7.14845 12.7422 7.19138 12.5C7.14841 12.2578 7.20703 12.0008 7.39453 11.8133L11.8141 7.39375C12.1195 7.08828 12.6141 7.08828 12.9188 7.39375C13.2242 7.69922 13.2242 8.19375 12.9188 8.49845L9.69845 11.7188H17.9688C18.4 11.7188 18.75 12.0688 18.75 12.5C18.75 12.9313 18.4 13.2812 17.9688 13.2812Z" fill="white"/>
</g>
</g>
</g>
</g>
<defs>
<clipPath id="clip0_279_111">
<rect width="25" height="25" fill="white"/>
</clipPath>
</defs>
</svg>
