<svg width="12" height="12" viewBox="0 0 12 12" fill="none" xmlns="http://www.w3.org/2000/svg">
<g id="double-right-arrows-angles 3" clip-path="url(#clip0_212_26)">
<g id="Group">
<g id="_x35__40_">
<g id="Group_2">
<path id="Vector" d="M6.00331 6.29389C5.86175 6.28446 5.71776 6.32906 5.61101 6.43874L1.20851 10.9481C1.01428 11.1472 1.01783 11.4661 1.21645 11.6608C1.41509 11.8556 1.73351 11.8521 1.92825 11.6529L6.01637 7.46552L10.1968 11.5607C10.3955 11.7555 10.7139 11.752 10.9081 11.5528C11.1024 11.3537 11.0988 11.0348 10.9002 10.84L6.39826 6.42994C6.28908 6.32269 6.14467 6.2818 6.00331 6.29389ZM5.5436 0.390987L0.146129 5.91972C-0.0481016 6.11886 -0.0445469 6.43777 0.154075 6.63252C0.352715 6.82728 0.671624 6.82373 0.865366 6.62459L5.94896 1.41779L11.1469 6.51001C11.3455 6.70477 11.6639 6.70122 11.8587 6.50207C12.0529 6.30293 12.0494 5.98402 11.8507 5.78928L6.33138 0.382732C6.2222 0.275464 6.07726 0.234591 5.93593 0.24717C5.79434 0.237218 5.65036 0.281819 5.5436 0.390987Z" fill="black"/>
</g>
</g>
</g>
</g>
<defs>
<clipPath id="clip0_212_26">
<rect width="12" height="12" fill="white"/>
</clipPath>
</defs>
</svg>
