<svg width="43" height="43" viewBox="0 0 43 43" fill="none" xmlns="http://www.w3.org/2000/svg">
<g clip-path="url(#clip0_212_161)">
<path d="M21.5 14C16.6373 14 14 18 14 21.584C14 26 18 29 21.5 29C26 29 29 25 29 21.584C29 18 26.3627 14 21.5 14ZM21.5 14C16.6373 14 14 18 14 21.584C14 26 18 29 21.5 29C26 29 29 25 29 21.584C29 18 26.3627 14 21.5 14ZM36.7012 0H6.29883C2.82187 0 0 2.82187 0 6.29883V36.7012C0 40.1781 2.82187 43 6.29883 43H36.7012C40.1781 43 43 40.1781 43 36.7012V6.29883C43 2.82187 40.1781 0 36.7012 0ZM21.5 33.5C15.2516 33.5 9.5 27.8323 9.5 21.584C9.5 15.3355 15.2516 9.5 21.5 9.5C27.7484 9.5 33.5 15.3355 33.5 21.584C33.5 27.8323 27.7484 33.5 21.5 33.5ZM35.3574 10.2461C33.9717 10.2461 32.8379 9.1123 32.8379 7.72656C32.8379 6.34082 33.9717 5.20703 35.3574 5.20703C36.7432 5.20703 37.877 6.34082 37.877 7.72656C37.877 9.1123 36.7432 10.2461 35.3574 10.2461ZM21.5 14C16.6373 14 14 18 14 21.584C14 26 18 29 21.5 29C26 29 29 25 29 21.584C29 18 26.3627 14 21.5 14ZM21.5 14C16.6373 14 14 18 14 21.584C14 26 18 29 21.5 29C26 29 29 25 29 21.584C29 18 26.3627 14 21.5 14ZM21.5 14C16.6373 14 14 18 14 21.584C14 26 18 29 21.5 29C26 29 29 25 29 21.584C29 18 26.3627 14 21.5 14Z" fill="white"/>
</g>
<defs>
<clipPath id="clip0_212_161">
<rect width="43" height="43" fill="white"/>
</clipPath>
</defs>
</svg>
