<svg width="26" height="26" viewBox="0 0 26 26" fill="none" xmlns="http://www.w3.org/2000/svg">
<g id="instagram (1) 1" clip-path="url(#clip0_286_169)">
<g id="Group">
<path id="Vector" d="M13 8.46512C10.0598 8.46512 8.46512 10.8837 8.46512 13.0508C8.46512 15.7209 10.8837 17.5349 13 17.5349C15.7209 17.5349 17.5349 15.1163 17.5349 13.0508C17.5349 10.8837 15.9402 8.46512 13 8.46512ZM13 8.46512C10.0598 8.46512 8.46512 10.8837 8.46512 13.0508C8.46512 15.7209 10.8837 17.5349 13 17.5349C15.7209 17.5349 17.5349 15.1163 17.5349 13.0508C17.5349 10.8837 15.9402 8.46512 13 8.46512ZM22.1914 0H3.80859C1.70625 0 0 1.70625 0 3.80859V22.1914C0 24.2937 1.70625 26 3.80859 26H22.1914C24.2937 26 26 24.2937 26 22.1914V3.80859C26 1.70625 24.2937 0 22.1914 0ZM13 20.2558C9.22193 20.2558 5.74419 16.8289 5.74419 13.0508C5.74419 9.2726 9.22193 5.74419 13 5.74419C16.7781 5.74419 20.2558 9.2726 20.2558 13.0508C20.2558 16.8289 16.7781 20.2558 13 20.2558ZM21.3789 6.19531C20.541 6.19531 19.8555 5.50977 19.8555 4.67188C19.8555 3.83398 20.541 3.14844 21.3789 3.14844C22.2168 3.14844 22.9023 3.83398 22.9023 4.67188C22.9023 5.50977 22.2168 6.19531 21.3789 6.19531ZM13 8.46512C10.0598 8.46512 8.46512 10.8837 8.46512 13.0508C8.46512 15.7209 10.8837 17.5349 13 17.5349C15.7209 17.5349 17.5349 15.1163 17.5349 13.0508C17.5349 10.8837 15.9402 8.46512 13 8.46512ZM13 8.46512C10.0598 8.46512 8.46512 10.8837 8.46512 13.0508C8.46512 15.7209 10.8837 17.5349 13 17.5349C15.7209 17.5349 17.5349 15.1163 17.5349 13.0508C17.5349 10.8837 15.9402 8.46512 13 8.46512ZM13 8.46512C10.0598 8.46512 8.46512 10.8837 8.46512 13.0508C8.46512 15.7209 10.8837 17.5349 13 17.5349C15.7209 17.5349 17.5349 15.1163 17.5349 13.0508C17.5349 10.8837 15.9402 8.46512 13 8.46512Z" fill="#808080"/>
</g>
</g>
<defs>
<clipPath id="clip0_286_169">
<rect width="26" height="26" fill="white"/>
</clipPath>
</defs>
</svg>
