<svg width="95" height="80" viewBox="0 0 95 80" fill="none" xmlns="http://www.w3.org/2000/svg">
<path d="M47.1443 31.587H3.97949V0H47.1443V31.587ZM5.69314 29.9008H45.4307V1.68614H5.69314V29.9008Z" fill="white"/>
<path d="M88.3099 31.587H45.2974V0H88.3099V31.587ZM47.011 29.9008H86.5962V1.68614H47.011V29.9008Z" fill="white"/>
<path d="M29.5699 15.9623C30.1031 16.1121 30.5791 16.337 31.017 16.6367C31.4549 16.9365 31.8357 17.2737 32.1404 17.6859C32.4641 18.098 32.7116 18.5477 32.883 19.0348C33.0734 19.5219 33.1686 20.0465 33.1686 20.6085C33.1686 21.283 33.0353 21.9199 32.7687 22.5007C32.5022 23.0815 32.1594 23.6061 31.7025 24.037C31.2455 24.4679 30.7314 24.8238 30.1221 25.0674C29.5128 25.3109 28.8654 25.4421 28.18 25.4421H21.135H21.0207C20.3543 25.4234 19.726 25.2922 19.1357 25.0487C18.5455 24.8051 18.0314 24.4491 17.5934 24.0182C17.1555 23.5873 16.8128 23.0815 16.5462 22.5195C16.2796 21.9574 16.1464 21.3392 16.1464 20.6834H18.0695C18.0695 21.0769 18.1456 21.4516 18.317 21.8075C18.4883 22.1635 18.6978 22.4632 18.9834 22.7443C19.25 23.0066 19.5737 23.2314 19.9354 23.3813C20.2972 23.5311 20.697 23.6061 21.1159 23.6061H28.0467V23.5873C28.0848 23.5873 28.1038 23.5873 28.1038 23.6061C28.1038 23.6061 28.1419 23.6248 28.1609 23.6248C28.5798 23.6248 28.9797 23.5499 29.3605 23.4C29.7413 23.2501 30.065 23.0253 30.3315 22.7443C30.5981 22.4632 30.8266 22.1448 30.998 21.7888C31.1693 21.4328 31.2455 21.0394 31.2455 20.6272C31.2455 20.5898 31.2455 20.571 31.2264 20.5523V20.4961V20.4211V20.4024V20.3837V20.3275V20.3087V20.29V20.2338C31.2074 20.2151 31.2074 20.1963 31.2074 20.1776C31.2074 20.1027 31.2074 20.0652 31.1884 20.0465V19.9902V19.9715C31.1884 19.9528 31.1884 19.9528 31.1693 19.9528C31.1693 19.9528 31.1503 19.9528 31.1503 19.934V19.8591L31.1312 19.8404V19.7842C31.1312 19.7654 31.1312 19.7467 31.1122 19.728C31.1122 19.6905 31.1122 19.6718 31.0932 19.6718C31.0932 19.6718 31.0741 19.6343 31.0741 19.6156C31.0551 19.6156 31.0551 19.6156 31.0551 19.5968C31.0551 19.5781 31.0551 19.5593 31.036 19.5593C31.036 19.5593 31.017 19.5219 31.017 19.5031C30.998 19.5031 30.998 19.5031 30.998 19.4844V19.4657C30.9789 19.4469 30.9789 19.4282 30.9789 19.4095C30.9599 19.3907 30.9599 19.372 30.9599 19.3533C30.9408 19.3345 30.9408 19.3158 30.9408 19.2971C30.9218 19.2596 30.9028 19.2409 30.8837 19.2034C30.8647 19.1846 30.8456 19.1472 30.8266 19.1097L30.8076 19.091V19.0722L30.7504 19.016L30.7314 18.9598L30.7123 18.9036L30.6362 18.8287L30.5791 18.7725C30.5791 18.7537 30.5791 18.735 30.56 18.7163L30.5029 18.6601L30.4458 18.6039L30.4267 18.5477C30.4077 18.5477 30.4077 18.5477 30.4077 18.5289C30.4077 18.5289 30.4077 18.5102 30.3887 18.5102C30.3696 18.4915 30.3506 18.4727 30.3506 18.454C30.3506 18.4353 30.3125 18.4165 30.2935 18.3978L30.2744 18.3791L30.2173 18.3228C30.1983 18.3228 30.1983 18.3228 30.1983 18.3041C30.1983 18.3041 30.1983 18.2854 30.1792 18.2854L30.1221 18.2292L30.065 18.2104C30.0269 18.173 29.9888 18.1542 29.9507 18.1355L29.8936 18.1168C29.8936 18.098 29.8746 18.098 29.8365 18.098V18.0793L29.7794 18.0606C29.7603 18.0606 29.7603 18.0606 29.7603 18.0418C29.7603 18.0418 29.7603 18.0231 29.7413 18.0231C29.7032 17.9856 29.6651 17.9669 29.627 17.9669C29.5509 17.9294 29.5128 17.9107 29.4938 17.9107C29.4747 17.8919 29.4557 17.8919 29.4366 17.8919C29.4176 17.8732 29.3986 17.8732 29.3795 17.8732C29.3605 17.8545 29.3414 17.8545 29.3224 17.8545H29.3034C29.2843 17.8357 29.2653 17.8357 29.2462 17.8357C29.2082 17.817 29.1891 17.817 29.1891 17.817C29.1891 17.817 29.151 17.817 29.132 17.7983C29.1129 17.7983 29.0939 17.7983 29.0749 17.7795C29.0558 17.7795 29.0368 17.7608 29.0177 17.7608H28.9416V17.7421H28.8845C28.5608 17.6484 28.0467 17.536 27.3422 17.3861C26.6377 17.2362 25.857 17.0863 25.0192 16.9365C24.886 16.899 24.7336 16.8803 24.6003 16.8615C24.4671 16.8428 24.3147 16.8241 24.1815 16.7866C23.9339 16.7491 23.6864 16.7116 23.4389 16.6554C23.1913 16.5992 22.9438 16.5618 22.6963 16.5243C22.6773 16.5243 22.6582 16.5243 22.6582 16.5056C22.6582 16.5056 22.6392 16.4868 22.6201 16.4868C22.544 16.4868 22.4678 16.4681 22.3536 16.4306H22.2774H22.2203C22.2012 16.4119 22.1822 16.4119 22.1441 16.4119C22.106 16.4119 22.087 16.4119 22.068 16.3932C22.0489 16.3932 22.0299 16.3744 21.9918 16.3744C21.9537 16.3744 21.9347 16.3744 21.9156 16.3557H21.8014C21.611 16.3182 21.4396 16.2995 21.2683 16.262C21.1159 16.2433 20.9636 16.2058 20.8303 16.1683C20.678 16.1309 20.5257 16.1121 20.3924 16.0934C20.2591 16.0747 20.1449 16.0559 20.0687 16.0372C19.9545 16.0185 19.8783 15.9997 19.8021 15.981C19.269 15.8498 18.793 15.625 18.3551 15.3253C17.9171 15.0255 17.5363 14.6883 17.2317 14.2761C16.908 13.864 16.6605 13.4143 16.4891 12.9085C16.2987 12.4026 16.2035 11.8781 16.2035 11.3347C16.2035 10.679 16.3368 10.0608 16.5843 9.46126C16.8318 8.88048 17.1936 8.35591 17.6315 7.92501C18.0695 7.4941 18.5835 7.15688 19.1738 6.89459C19.7641 6.6323 20.3924 6.50116 21.0779 6.48242H21.1921H28.2371H28.5227C29.151 6.51989 29.7413 6.65104 30.2935 6.91332C30.8456 7.15688 31.3216 7.4941 31.7215 7.88754C32.1404 8.28097 32.4641 8.74934 32.7306 9.27391C32.9972 9.79849 33.1495 10.3605 33.2067 10.9413H31.2836C31.2264 10.6041 31.1122 10.2669 30.9599 9.94837C30.7885 9.62988 30.5791 9.36759 30.3315 9.12404C30.084 8.89922 29.7794 8.71187 29.4557 8.56199C29.132 8.43085 28.7893 8.33717 28.4084 8.33717H28.3323H28.218H28.0848H21.2873H21.154H21.0398C20.6399 8.35591 20.2591 8.44958 19.8973 8.59946C19.5356 8.74934 19.2309 8.97416 18.9644 9.25518C18.6978 9.5362 18.4883 9.8547 18.336 10.1919C18.1837 10.5479 18.1075 10.9226 18.1075 11.316V11.391V11.4659V11.5221V11.5783V11.6158V11.672V11.6907L18.1266 11.7094V11.7656V11.8031V11.8593C18.1456 11.8781 18.1456 11.8968 18.1456 11.9155V11.9717V11.9905L18.1647 12.0092V12.0654V12.0841L18.1837 12.1029V12.1591C18.2027 12.1778 18.2027 12.1966 18.2027 12.2153C18.2027 12.234 18.2027 12.2528 18.2218 12.2528C18.2218 12.2528 18.2408 12.2715 18.2408 12.2902C18.2599 12.3277 18.2789 12.3464 18.2789 12.3839C18.2789 12.4026 18.2979 12.4401 18.317 12.4776C18.317 12.515 18.317 12.5338 18.336 12.5525C18.336 12.5712 18.336 12.59 18.3551 12.6087C18.3551 12.6275 18.3551 12.6462 18.3741 12.6462C18.3741 12.6462 18.3931 12.6649 18.3931 12.6837L18.4122 12.7399C18.4312 12.7399 18.4312 12.7586 18.4312 12.7961H18.4503C18.4503 12.8335 18.4503 12.8523 18.4693 12.8523V12.871L18.4883 12.8897L18.5074 12.9085V12.9272C18.5264 12.9459 18.5264 12.9647 18.5264 12.9834H18.5455C18.5455 13.0209 18.5455 13.0396 18.5645 13.0396L18.6216 13.0958V13.1146L18.6407 13.1708L18.6978 13.227L18.812 13.3394L18.9263 13.4705C18.9453 13.4705 18.9453 13.4705 18.9453 13.4893C18.9453 13.4893 18.9453 13.508 18.9644 13.508L19.0215 13.5642L19.0786 13.6204L19.1357 13.6391C19.1357 13.6579 19.1357 13.6579 19.1548 13.6579V13.6766C19.1738 13.6766 19.1928 13.6766 19.2119 13.6953L19.2309 13.7141H19.25C19.25 13.7328 19.25 13.7328 19.269 13.7328L19.288 13.7515L19.3071 13.7703C19.3261 13.7703 19.3452 13.7703 19.3642 13.789C19.3832 13.789 19.3832 13.789 19.3832 13.8077C19.3832 13.8077 19.3832 13.8265 19.4023 13.8265L19.726 14.0138C19.7641 14.0138 19.8021 14.0326 19.8402 14.07C19.8783 14.07 19.8973 14.07 19.9164 14.0888H19.9735L19.9925 14.1075H20.0497C20.0687 14.1262 20.0877 14.1262 20.1068 14.1262H20.1258C20.1258 14.145 20.1449 14.145 20.1829 14.145C20.202 14.145 20.221 14.145 20.2401 14.1637H20.2591H20.3162L20.3353 14.1824H20.3924C20.4305 14.1824 20.4495 14.1824 20.4686 14.2012H20.5257C20.5638 14.2012 20.5828 14.2012 20.6018 14.2199H20.678H20.7351H20.7542C20.7732 14.2199 20.8874 14.2386 21.0969 14.2761C21.3063 14.3136 21.5729 14.3511 21.8966 14.4073C22.2203 14.4635 22.6011 14.5197 23.039 14.5946C23.477 14.6696 23.9339 14.7445 24.4099 14.8194C24.5813 14.8569 24.7146 14.8756 24.7717 14.8944C25.6095 15.0255 26.4473 15.1941 27.3041 15.3627C28.2561 15.6063 28.9797 15.7749 29.5699 15.9623Z" fill="white"/>
<path d="M29.5699 15.9623C30.1031 16.1121 30.5791 16.337 31.017 16.6367C31.4549 16.9365 31.8357 17.2737 32.1404 17.6859C32.4641 18.098 32.7116 18.5477 32.883 19.0348C33.0734 19.5219 33.1686 20.0465 33.1686 20.6085C33.1686 21.283 33.0353 21.9199 32.7687 22.5007C32.5022 23.0815 32.1594 23.6061 31.7025 24.037C31.2455 24.4679 30.7314 24.8238 30.1221 25.0674C29.5128 25.3109 28.8654 25.4421 28.18 25.4421H21.135H21.0207C20.3543 25.4234 19.726 25.2922 19.1357 25.0487C18.5455 24.8051 18.0314 24.4491 17.5934 24.0182C17.1555 23.5873 16.8128 23.0815 16.5462 22.5195C16.2796 21.9574 16.1464 21.3392 16.1464 20.6834H18.0695C18.0695 21.0769 18.1456 21.4516 18.317 21.8075C18.4883 22.1635 18.6978 22.4632 18.9834 22.7443C19.25 23.0066 19.5737 23.2314 19.9354 23.3813C20.2972 23.5311 20.697 23.6061 21.1159 23.6061H28.0467V23.5873C28.0848 23.5873 28.1038 23.5873 28.1038 23.6061C28.1038 23.6061 28.1419 23.6248 28.1609 23.6248C28.5798 23.6248 28.9797 23.5499 29.3605 23.4C29.7413 23.2501 30.065 23.0253 30.3315 22.7443C30.5981 22.4632 30.8266 22.1448 30.998 21.7888C31.1693 21.4328 31.2455 21.0394 31.2455 20.6272C31.2455 20.5898 31.2455 20.571 31.2264 20.5523V20.4961V20.4211V20.4024V20.3837V20.3275V20.3087V20.29V20.2338C31.2074 20.2151 31.2074 20.1963 31.2074 20.1776C31.2074 20.1027 31.2074 20.0652 31.1884 20.0465V19.9902V19.9715C31.1884 19.9528 31.1884 19.9528 31.1693 19.9528C31.1693 19.9528 31.1503 19.9528 31.1503 19.934V19.8591L31.1312 19.8404V19.7842C31.1312 19.7654 31.1312 19.7467 31.1122 19.728C31.1122 19.6905 31.1122 19.6718 31.0932 19.6718C31.0932 19.6718 31.0741 19.6343 31.0741 19.6156C31.0551 19.6156 31.0551 19.6156 31.0551 19.5968C31.0551 19.5781 31.0551 19.5593 31.036 19.5593C31.036 19.5593 31.017 19.5219 31.017 19.5031C30.998 19.5031 30.998 19.5031 30.998 19.4844V19.4657C30.9789 19.4469 30.9789 19.4282 30.9789 19.4095C30.9599 19.3907 30.9599 19.372 30.9599 19.3533C30.9408 19.3345 30.9408 19.3158 30.9408 19.2971C30.9218 19.2596 30.9028 19.2409 30.8837 19.2034C30.8647 19.1846 30.8456 19.1472 30.8266 19.1097L30.8076 19.091V19.0722L30.7504 19.016L30.7314 18.9598L30.7124 18.9036L30.6362 18.8287L30.5791 18.7725C30.5791 18.7537 30.5791 18.735 30.56 18.7163L30.5029 18.6601L30.4458 18.6039L30.4267 18.5477C30.4077 18.5477 30.4077 18.5477 30.4077 18.5289C30.4077 18.5289 30.4077 18.5102 30.3887 18.5102C30.3696 18.4915 30.3506 18.4727 30.3506 18.454C30.3506 18.4353 30.3125 18.4165 30.2935 18.3978L30.2744 18.3791L30.2173 18.3228C30.1983 18.3228 30.1983 18.3228 30.1983 18.3041C30.1983 18.3041 30.1983 18.2854 30.1792 18.2854L30.1221 18.2292L30.065 18.2104C30.0269 18.173 29.9888 18.1542 29.9507 18.1355L29.8936 18.1168C29.8936 18.098 29.8746 18.098 29.8365 18.098V18.0793L29.7794 18.0606C29.7603 18.0606 29.7603 18.0606 29.7603 18.0418C29.7603 18.0418 29.7603 18.0231 29.7413 18.0231C29.7032 17.9856 29.6651 17.9669 29.627 17.9669C29.5509 17.9294 29.5128 17.9107 29.4938 17.9107C29.4747 17.8919 29.4557 17.8919 29.4366 17.8919C29.4176 17.8732 29.3986 17.8732 29.3795 17.8732C29.3605 17.8545 29.3414 17.8545 29.3224 17.8545H29.3034C29.2843 17.8357 29.2653 17.8357 29.2462 17.8357C29.2082 17.817 29.1891 17.817 29.1891 17.817C29.1891 17.817 29.151 17.817 29.132 17.7983C29.1129 17.7983 29.0939 17.7983 29.0749 17.7795C29.0558 17.7795 29.0368 17.7608 29.0177 17.7608H28.9416V17.7421H28.8845C28.5608 17.6484 28.0467 17.536 27.3422 17.3861C26.6377 17.2362 25.857 17.0863 25.0192 16.9365C24.886 16.899 24.7336 16.8803 24.6003 16.8615C24.4671 16.8428 24.3147 16.8241 24.1815 16.7866C23.9339 16.7491 23.6864 16.7116 23.4389 16.6554C23.1913 16.5992 22.9438 16.5618 22.6963 16.5243C22.6773 16.5243 22.6582 16.5243 22.6582 16.5056C22.6582 16.5056 22.6392 16.4868 22.6201 16.4868C22.544 16.4868 22.4678 16.4681 22.3536 16.4306H22.2774H22.2203C22.2012 16.4119 22.1822 16.4119 22.1441 16.4119C22.106 16.4119 22.087 16.4119 22.068 16.3932C22.0489 16.3932 22.0299 16.3744 21.9918 16.3744C21.9537 16.3744 21.9347 16.3744 21.9156 16.3557H21.8014C21.611 16.3182 21.4396 16.2995 21.2683 16.262C21.1159 16.2433 20.9636 16.2058 20.8303 16.1683C20.678 16.1309 20.5257 16.1121 20.3924 16.0934C20.2591 16.0747 20.1449 16.0559 20.0687 16.0372C19.9545 16.0185 19.8783 15.9997 19.8021 15.981C19.269 15.8498 18.793 15.625 18.3551 15.3253C17.9171 15.0255 17.5363 14.6883 17.2317 14.2761C16.908 13.864 16.6605 13.4143 16.4891 12.9085C16.2987 12.4026 16.2035 11.8781 16.2035 11.3347C16.2035 10.679 16.3368 10.0608 16.5843 9.46126C16.8318 8.88048 17.1936 8.35591 17.6315 7.92501C18.0695 7.4941 18.5835 7.15688 19.1738 6.89459C19.7641 6.6323 20.3924 6.50116 21.0779 6.48242H21.1921H28.2371H28.5227C29.151 6.51989 29.7413 6.65104 30.2935 6.91332C30.8456 7.15688 31.3216 7.4941 31.7215 7.88754C32.1404 8.28097 32.4641 8.74934 32.7306 9.27391C32.9972 9.79849 33.1495 10.3605 33.2067 10.9413H31.2836C31.2264 10.6041 31.1122 10.2669 30.9599 9.94837C30.7885 9.62988 30.5791 9.36759 30.3315 9.12404C30.084 8.89922 29.7794 8.71187 29.4557 8.56199C29.132 8.43085 28.7893 8.33717 28.4084 8.33717H28.3323H28.218H28.0848H21.2873H21.154H21.0398C20.6399 8.35591 20.2591 8.44958 19.8973 8.59946C19.5356 8.74934 19.2309 8.97416 18.9644 9.25518C18.6978 9.5362 18.4883 9.8547 18.336 10.1919C18.1837 10.5479 18.1075 10.9226 18.1075 11.316V11.391V11.4659V11.5221V11.5783V11.6158V11.672V11.6907L18.1266 11.7094V11.7656V11.8031V11.8593C18.1456 11.8781 18.1456 11.8968 18.1456 11.9155V11.9717V11.9905L18.1647 12.0092V12.0654V12.0841L18.1837 12.1029V12.1591C18.2027 12.1778 18.2027 12.1966 18.2027 12.2153C18.2027 12.234 18.2027 12.2528 18.2218 12.2528C18.2218 12.2528 18.2408 12.2715 18.2408 12.2902C18.2599 12.3277 18.2789 12.3464 18.2789 12.3839C18.2789 12.4026 18.2979 12.4401 18.317 12.4776C18.317 12.515 18.317 12.5338 18.336 12.5525C18.336 12.5712 18.336 12.59 18.3551 12.6087C18.3551 12.6275 18.3551 12.6462 18.3741 12.6462C18.3741 12.6462 18.3931 12.6649 18.3931 12.6837L18.4122 12.7399C18.4312 12.7399 18.4312 12.7586 18.4312 12.7961H18.4503C18.4503 12.8335 18.4503 12.8523 18.4693 12.8523V12.871L18.4883 12.8897L18.5074 12.9085V12.9272C18.5264 12.9459 18.5264 12.9647 18.5264 12.9834H18.5455C18.5455 13.0209 18.5455 13.0396 18.5645 13.0396L18.6216 13.0958V13.1146L18.6407 13.1708L18.6978 13.227L18.812 13.3394L18.9263 13.4705C18.9453 13.4705 18.9453 13.4705 18.9453 13.4893C18.9453 13.4893 18.9453 13.508 18.9644 13.508L19.0215 13.5642L19.0786 13.6204L19.1357 13.6391C19.1357 13.6579 19.1357 13.6579 19.1548 13.6579V13.6766C19.1738 13.6766 19.1928 13.6766 19.2119 13.6953L19.2309 13.7141H19.25C19.25 13.7328 19.25 13.7328 19.269 13.7328L19.288 13.7515L19.3071 13.7703C19.3261 13.7703 19.3452 13.7703 19.3642 13.789C19.3832 13.789 19.3832 13.789 19.3832 13.8077C19.3832 13.8077 19.3832 13.8265 19.4023 13.8265L19.726 14.0138C19.7641 14.0138 19.8021 14.0326 19.8402 14.07C19.8783 14.07 19.8973 14.07 19.9164 14.0888H19.9735L19.9925 14.1075H20.0497C20.0687 14.1262 20.0877 14.1262 20.1068 14.1262H20.1258C20.1258 14.145 20.1449 14.145 20.1829 14.145C20.202 14.145 20.221 14.145 20.2401 14.1637H20.2591H20.3162L20.3353 14.1824H20.3924C20.4305 14.1824 20.4495 14.1824 20.4686 14.2012H20.5257C20.5638 14.2012 20.5828 14.2012 20.6018 14.2199H20.678H20.7351H20.7542C20.7732 14.2199 20.8874 14.2386 21.0969 14.2761C21.3063 14.3136 21.5729 14.3511 21.8966 14.4073C22.2203 14.4635 22.6011 14.5197 23.039 14.5946C23.477 14.6696 23.9339 14.7445 24.4099 14.8194C24.5813 14.8569 24.7146 14.8756 24.7717 14.8944C25.6095 15.0255 26.4473 15.1941 27.3041 15.3627C28.2561 15.6063 28.9797 15.7749 29.5699 15.9623Z" stroke="white" stroke-width="2" stroke-miterlimit="10"/>
<path d="M75.3243 25.4985H73.4202V16.6744H60.7583V25.4985H58.8542V6.46387H60.7583V14.8009H73.4202V6.46387H75.3243V25.4985Z" fill="white"/>
<path d="M75.3243 25.4985H73.4202V16.6744H60.7583V25.4985H58.8542V6.46387H60.7583V14.8009H73.4202V6.46387H75.3243V25.4985Z" stroke="white" stroke-width="2" stroke-miterlimit="10"/>
<path d="M11.5385 49.2913C11.9193 49.4037 12.2811 49.5536 12.5858 49.7597C12.9094 49.9658 13.176 50.2093 13.4045 50.5091C13.633 50.7901 13.8234 51.1086 13.9567 51.4646C14.09 51.8205 14.1661 52.1765 14.1661 52.5699C14.1661 53.0383 14.0709 53.4879 13.8805 53.9001C13.6901 54.3123 13.4235 54.6869 13.0999 54.9867C12.7762 55.3052 12.3954 55.5487 11.9574 55.7174C11.5195 55.886 11.0435 55.9796 10.5484 55.9796H5.40749H5.33132C4.83627 55.9609 4.3793 55.8672 3.96041 55.6986C3.52248 55.53 3.16071 55.2865 2.83702 54.968C2.51333 54.6682 2.2658 54.3123 2.0754 53.9001C1.88499 53.4879 1.78979 53.057 1.78979 52.5886H3.19879C3.19879 52.8697 3.25591 53.132 3.38919 53.3942C3.50344 53.6378 3.6748 53.8626 3.86521 54.05C4.05561 54.2373 4.30314 54.3872 4.5697 54.4996C4.83627 54.612 5.12188 54.6682 5.42653 54.6682H10.4723V54.6495C10.4913 54.6495 10.5103 54.6495 10.5294 54.6495C10.5294 54.6495 10.5484 54.6495 10.5865 54.6495C10.8912 54.6495 11.1768 54.5933 11.4624 54.4809C11.7289 54.3685 11.9765 54.2186 12.1669 54.0312C12.3573 53.8439 12.5286 53.6003 12.6429 53.3568C12.7571 53.0945 12.8333 52.8322 12.8333 52.5324C12.8333 52.5137 12.8333 52.495 12.8142 52.4762V52.4388V52.4013V52.3826V52.3638V52.3264V52.3076V52.2889V52.2514C12.7952 52.2327 12.7952 52.2327 12.7952 52.214C12.7952 52.1577 12.7952 52.139 12.7762 52.1203V52.0828V52.0641C12.7762 52.0453 12.7762 52.0453 12.7571 52.0453C12.7571 52.0453 12.7381 52.0453 12.7381 52.0266V51.9891L12.719 51.9704V51.9329C12.719 51.9142 12.719 51.9142 12.7 51.8955C12.7 51.8767 12.7 51.858 12.681 51.858C12.681 51.858 12.6619 51.8393 12.6619 51.8205C12.6429 51.8205 12.6429 51.8205 12.6429 51.8018C12.6429 51.783 12.6429 51.783 12.6238 51.783C12.6238 51.783 12.6048 51.7643 12.6048 51.7456C12.5858 51.7456 12.5858 51.7456 12.5858 51.7268V51.7081C12.5667 51.7081 12.5667 51.7081 12.5667 51.6894C12.5477 51.6706 12.5477 51.6706 12.5477 51.6519C12.5286 51.6332 12.5286 51.6332 12.5286 51.6144C12.5096 51.5957 12.5096 51.577 12.4906 51.5582C12.4715 51.5395 12.4715 51.5208 12.4525 51.502L12.4334 51.4833V51.4646L12.3954 51.4271L12.3763 51.3896L12.3573 51.3521L12.3001 51.2959L12.2621 51.2585C12.2621 51.2397 12.2621 51.2397 12.243 51.221L12.2049 51.1835L12.1669 51.1461L12.1478 51.1086C12.1288 51.1086 12.1288 51.1086 12.1288 51.1086C12.1288 51.1086 12.1288 51.1086 12.1097 51.1086C12.0907 51.0899 12.0907 51.0899 12.0717 51.0711C12.0717 51.0524 12.0526 51.0524 12.0145 51.0337L11.9955 51.0149L11.9574 50.9775C11.9384 50.9775 11.9384 50.9775 11.9384 50.9775C11.9384 50.9775 11.9384 50.9775 11.9193 50.9775L11.8813 50.94L11.8432 50.9212C11.8241 50.9025 11.7861 50.8838 11.767 50.865L11.7289 50.8463C11.7289 50.8276 11.7099 50.8276 11.6909 50.8276V50.7714L11.6528 50.7526C11.6337 50.7526 11.6337 50.7526 11.6337 50.7526C11.6337 50.7526 11.6337 50.7526 11.6147 50.7526C11.5957 50.7339 11.5576 50.7152 11.5385 50.7152C11.4814 50.6964 11.4624 50.6777 11.4433 50.6777C11.4243 50.659 11.4243 50.659 11.4052 50.659C11.3862 50.6402 11.3862 50.6402 11.3672 50.6402C11.3481 50.6215 11.3481 50.6215 11.3291 50.6215H11.31C11.291 50.6028 11.291 50.6028 11.272 50.6028C11.2529 50.584 11.2339 50.584 11.2148 50.584C11.2148 50.584 11.1958 50.584 11.1577 50.5653C11.1387 50.5653 11.1387 50.5653 11.1196 50.5653C11.1006 50.5653 11.1006 50.5653 11.0816 50.5653H11.0435V50.5465H11.0054C10.7769 50.4903 10.3961 50.3967 9.88201 50.303C9.36791 50.1906 8.7967 50.0969 8.1874 49.9845C8.0922 49.9658 7.97795 49.947 7.88275 49.9283C7.78755 49.9096 7.67331 49.8908 7.5781 49.8721C7.40674 49.8534 7.21633 49.8159 7.04497 49.7784C6.87361 49.741 6.6832 49.7035 6.51184 49.6847C6.4928 49.6847 6.49279 49.6847 6.47375 49.6847C6.47375 49.6847 6.45471 49.6847 6.43567 49.6847C6.37855 49.6847 6.32143 49.666 6.24527 49.6473H6.18815H6.15007C6.13103 49.6285 6.11198 49.6285 6.09294 49.6285C6.0739 49.6285 6.05486 49.6285 6.03582 49.6285C6.01678 49.6285 5.99774 49.6285 5.9787 49.6285C5.95966 49.6285 5.94062 49.6285 5.92158 49.6098H5.84542C5.71213 49.5911 5.57885 49.5723 5.46461 49.5536C5.35036 49.5349 5.23612 49.5161 5.14092 49.4974C5.02668 49.4787 4.91243 49.4599 4.81723 49.4412C4.72203 49.4225 4.64587 49.4225 4.5697 49.4037C4.49354 49.385 4.43642 49.385 4.3793 49.3663C3.99849 49.2726 3.63672 49.1227 3.33207 48.9166C3.00838 48.7105 2.74182 48.467 2.51333 48.1672C2.28484 47.8862 2.09444 47.5677 1.96115 47.2117C1.82787 46.8558 1.75171 46.4811 1.75171 46.0877C1.75171 45.6193 1.84691 45.1884 2.03732 44.7762C2.22772 44.3641 2.47525 44.0081 2.79894 43.6896C3.12263 43.3898 3.4844 43.1463 3.92233 42.9589C4.36026 42.7716 4.81723 42.6779 5.31228 42.6592H5.38845H10.5294H10.7388C11.1958 42.6779 11.6337 42.7903 12.0336 42.9589C12.4334 43.1276 12.7762 43.3711 13.0808 43.6521C13.3855 43.9331 13.633 44.2516 13.8234 44.6263C14.0138 45.001 14.128 45.3945 14.1661 45.8066H12.7571C12.719 45.5631 12.6429 45.3383 12.5096 45.1134C12.3954 44.8886 12.243 44.7013 12.0526 44.5327C11.8622 44.3641 11.6528 44.2329 11.4243 44.1392C11.1958 44.0456 10.9292 43.9894 10.6627 43.9706H10.6055H10.5294H10.4342H5.48365H5.38845H5.31228C5.02668 43.9894 4.74107 44.0456 4.4745 44.158C4.20793 44.2704 3.97945 44.4203 3.78904 44.6076C3.59864 44.795 3.44631 45.0198 3.33207 45.2821C3.21783 45.5443 3.16071 45.8066 3.16071 46.0877V46.1439V46.2001V46.2375V46.275V46.2937V46.3312V46.3499L3.17975 46.3687V46.4061V46.4249V46.4624C3.19879 46.4811 3.19879 46.4811 3.19879 46.4998V46.5373V46.556L3.21783 46.5748V46.6122V46.631L3.23687 46.6497V46.6872C3.25591 46.7059 3.25591 46.7059 3.25591 46.7246C3.25591 46.7434 3.25591 46.7434 3.27495 46.7434L3.29399 46.7621C3.31303 46.7808 3.31303 46.7996 3.33207 46.8183C3.33207 46.837 3.35111 46.8558 3.37015 46.8745C3.37015 46.8933 3.37015 46.912 3.38919 46.9307C3.38919 46.9495 3.38919 46.9495 3.40823 46.9682C3.40823 46.9869 3.40823 46.9869 3.42727 46.9869L3.44631 47.0057L3.46535 47.0431C3.4844 47.0431 3.4844 47.0619 3.4844 47.0806H3.50344C3.50344 47.0993 3.50344 47.1181 3.52248 47.1181V47.1368L3.54152 47.1555L3.56056 47.1743V47.193C3.5796 47.2117 3.5796 47.2117 3.5796 47.2305H3.59864C3.59864 47.2492 3.59864 47.268 3.61768 47.268L3.65576 47.3054V47.3242L3.6748 47.3616L3.71288 47.3991L3.78904 47.474L3.86521 47.5677C3.88425 47.5677 3.88425 47.5677 3.88425 47.5677C3.88425 47.5677 3.88425 47.5677 3.90329 47.5677L3.94137 47.6052L3.97945 47.6426L4.01753 47.6614C4.01753 47.6801 4.01753 47.6801 4.03657 47.6801V47.6989C4.05561 47.6989 4.05561 47.6989 4.07465 47.7176L4.09369 47.7363H4.11273C4.11273 47.7551 4.11273 47.7551 4.13177 47.7551L4.15081 47.7738L4.16985 47.7925C4.18889 47.7925 4.18889 47.7925 4.20793 47.8113C4.22697 47.8113 4.22698 47.8113 4.22698 47.8113C4.22698 47.8113 4.22697 47.8113 4.24602 47.8113L4.4745 47.9424C4.49354 47.9424 4.53162 47.9611 4.55066 47.9799C4.5697 47.9799 4.58874 47.9799 4.60779 47.9986H4.64587L4.66491 48.0173H4.70299C4.72203 48.0361 4.72203 48.0361 4.74107 48.0361H4.76011C4.76011 48.0548 4.77915 48.0548 4.79819 48.0548C4.81723 48.0548 4.81723 48.0548 4.83627 48.0736H4.85531H4.89339L4.91243 48.0923H4.95051C4.96955 48.0923 4.9886 48.0923 5.00764 48.111H5.04572C5.06476 48.111 5.0838 48.111 5.10284 48.1298H5.15996H5.19804H5.21708C5.23612 48.1298 5.31228 48.1485 5.46461 48.1672C5.61693 48.186 5.80734 48.2234 6.05486 48.2609C6.28335 48.2984 6.56896 48.3358 6.89265 48.392C7.21633 48.4482 7.54002 48.5045 7.88275 48.5607C8.01604 48.5794 8.0922 48.5981 8.14932 48.6169C8.75862 48.7105 9.38695 48.8229 9.99625 48.9541C10.6055 49.0852 11.1006 49.1602 11.5385 49.2913Z" fill="white"/>
<path d="M29.2082 49.966H23.3056V56.0174H21.8776V42.5845H30.5791C31.0932 42.6219 31.5692 42.7344 32.0262 42.9592C32.4831 43.1653 32.883 43.4463 33.2067 43.7835C33.5304 44.1207 33.7969 44.4954 34.0064 44.9263C34.1968 45.3572 34.311 45.8069 34.311 46.2752C34.311 46.7436 34.2158 47.1745 34.0444 47.6054C33.8731 48.0363 33.6065 48.3923 33.3019 48.7295C32.9782 49.048 32.6164 49.329 32.1785 49.5538C31.7405 49.7787 31.2836 49.9098 30.7885 49.9847H29.2082V49.966ZM30.541 48.6733C30.8647 48.6358 31.1693 48.5422 31.4549 48.411C31.7405 48.2611 31.9881 48.0925 32.1975 47.8864C32.407 47.6804 32.5593 47.4368 32.6926 47.1558C32.8068 46.8748 32.883 46.5937 32.883 46.2752C32.883 45.9567 32.8259 45.657 32.6926 45.376C32.5593 45.0949 32.3879 44.8514 32.1594 44.6266C31.9309 44.4205 31.6644 44.2331 31.3597 44.1207C31.0551 43.9896 30.7314 43.9146 30.3887 43.8959H23.3246V48.6733H30.541Z" fill="white"/>
<path d="M58.5686 56.0174H57.0263L54.2844 50.959H46.4207L43.6789 56.0174H42.1366L49.5053 42.3784H49.5243H49.9813H50.3431H50.7048H51.1428H51.1618L58.5686 56.0174ZM47.1252 49.6101H53.5609L50.3621 43.6899H50.3431L47.1252 49.6101Z" fill="white"/>
<path d="M68.603 54.6495H70.6974V55.9797H65.2709V54.6495H67.3653V43.9145H65.2709V42.603H70.6974V43.9145H68.603V54.6495Z" fill="white"/>
<path d="M92.2132 56.055H90.8232L79.7797 44.5143V56.055H78.3898V42.5659H79.7797L90.8423 54.1066V42.5659H92.2322V56.055H92.2132Z" fill="white"/>
<path d="M11.5385 49.2913C11.9193 49.4037 12.2811 49.5536 12.5858 49.7597C12.9094 49.9658 13.176 50.2093 13.4045 50.5091C13.633 50.7901 13.8234 51.1086 13.9567 51.4646C14.09 51.8205 14.1661 52.1765 14.1661 52.5699C14.1661 53.0383 14.0709 53.4879 13.8805 53.9001C13.6901 54.3123 13.4235 54.6869 13.0999 54.9867C12.7762 55.3052 12.3954 55.5487 11.9574 55.7174C11.5195 55.886 11.0435 55.9796 10.5484 55.9796H5.40749H5.33132C4.83627 55.9609 4.3793 55.8672 3.96041 55.6986C3.52248 55.53 3.16071 55.2865 2.83702 54.968C2.51333 54.6682 2.2658 54.3123 2.0754 53.9001C1.88499 53.4879 1.78979 53.057 1.78979 52.5886H3.19879C3.19879 52.8697 3.25591 53.132 3.38919 53.3942C3.50344 53.6378 3.6748 53.8626 3.86521 54.05C4.05561 54.2373 4.30314 54.3872 4.5697 54.4996C4.83627 54.612 5.12188 54.6682 5.42653 54.6682H10.4723V54.6495C10.4913 54.6495 10.5103 54.6495 10.5294 54.6495C10.5294 54.6495 10.5484 54.6495 10.5865 54.6495C10.8912 54.6495 11.1768 54.5933 11.4624 54.4809C11.7289 54.3685 11.9765 54.2186 12.1669 54.0312C12.3573 53.8439 12.5286 53.6003 12.6429 53.3568C12.7571 53.0945 12.8333 52.8322 12.8333 52.5324C12.8333 52.5137 12.8333 52.495 12.8142 52.4762V52.4388V52.4013V52.3826V52.3638V52.3264V52.3076V52.2889V52.2514C12.7952 52.2327 12.7952 52.2327 12.7952 52.214C12.7952 52.1577 12.7952 52.139 12.7762 52.1203V52.0828V52.0641C12.7762 52.0453 12.7762 52.0453 12.7571 52.0453C12.7571 52.0453 12.7381 52.0453 12.7381 52.0266V51.9891L12.719 51.9704V51.9329C12.719 51.9142 12.719 51.9142 12.7 51.8955C12.7 51.8767 12.7 51.858 12.681 51.858C12.681 51.858 12.6619 51.8393 12.6619 51.8205C12.6429 51.8205 12.6429 51.8205 12.6429 51.8018C12.6429 51.783 12.6429 51.783 12.6238 51.783C12.6238 51.783 12.6048 51.7643 12.6048 51.7456C12.5858 51.7456 12.5858 51.7456 12.5858 51.7268V51.7081C12.5667 51.7081 12.5667 51.7081 12.5667 51.6894C12.5477 51.6706 12.5477 51.6706 12.5477 51.6519C12.5286 51.6332 12.5286 51.6332 12.5286 51.6144C12.5096 51.5957 12.5096 51.577 12.4906 51.5582C12.4715 51.5395 12.4715 51.5208 12.4525 51.502L12.4334 51.4833V51.4646L12.3954 51.4271L12.3763 51.3896L12.3573 51.3521L12.3001 51.2959L12.2621 51.2585C12.2621 51.2397 12.2621 51.2397 12.243 51.221L12.2049 51.1835L12.1669 51.1461L12.1478 51.1086C12.1288 51.1086 12.1288 51.1086 12.1288 51.1086C12.1288 51.1086 12.1288 51.1086 12.1097 51.1086C12.0907 51.0899 12.0907 51.0899 12.0717 51.0711C12.0717 51.0524 12.0526 51.0524 12.0145 51.0337L11.9955 51.0149L11.9574 50.9775C11.9384 50.9775 11.9384 50.9775 11.9384 50.9775C11.9384 50.9775 11.9384 50.9775 11.9193 50.9775L11.8813 50.94L11.8432 50.9212C11.8241 50.9025 11.7861 50.8838 11.767 50.865L11.7289 50.8463C11.7289 50.8276 11.7099 50.8276 11.6909 50.8276V50.7714L11.6528 50.7526C11.6337 50.7526 11.6337 50.7526 11.6337 50.7526C11.6337 50.7526 11.6337 50.7526 11.6147 50.7526C11.5957 50.7339 11.5576 50.7152 11.5385 50.7152C11.4814 50.6964 11.4624 50.6777 11.4433 50.6777C11.4243 50.659 11.4243 50.659 11.4052 50.659C11.3862 50.6402 11.3862 50.6402 11.3672 50.6402C11.3481 50.6215 11.3481 50.6215 11.3291 50.6215H11.31C11.291 50.6028 11.291 50.6028 11.272 50.6028C11.2529 50.584 11.2339 50.584 11.2148 50.584C11.2148 50.584 11.1958 50.584 11.1577 50.5653C11.1387 50.5653 11.1387 50.5653 11.1196 50.5653C11.1006 50.5653 11.1006 50.5653 11.0816 50.5653H11.0435V50.5465H11.0054C10.7769 50.4903 10.3961 50.3967 9.88201 50.303C9.36791 50.1906 8.7967 50.0969 8.1874 49.9845C8.0922 49.9658 7.97795 49.947 7.88275 49.9283C7.78755 49.9096 7.67331 49.8908 7.5781 49.8721C7.40674 49.8534 7.21633 49.8159 7.04497 49.7784C6.87361 49.741 6.6832 49.7035 6.51184 49.6847C6.4928 49.6847 6.4928 49.6847 6.47375 49.6847C6.47375 49.6847 6.45471 49.6847 6.43567 49.6847C6.37855 49.6847 6.32143 49.666 6.24527 49.6473H6.18815H6.15007C6.13103 49.6285 6.11198 49.6285 6.09294 49.6285C6.0739 49.6285 6.05486 49.6285 6.03582 49.6285C6.01678 49.6285 5.99774 49.6285 5.9787 49.6285C5.95966 49.6285 5.94062 49.6285 5.92158 49.6098H5.84542C5.71213 49.5911 5.57885 49.5723 5.46461 49.5536C5.35036 49.5349 5.23612 49.5161 5.14092 49.4974C5.02668 49.4787 4.91243 49.4599 4.81723 49.4412C4.72203 49.4225 4.64587 49.4225 4.5697 49.4037C4.49354 49.385 4.43642 49.385 4.3793 49.3663C3.99849 49.2726 3.63672 49.1227 3.33207 48.9166C3.00838 48.7105 2.74182 48.467 2.51333 48.1672C2.28484 47.8862 2.09444 47.5677 1.96115 47.2117C1.82787 46.8558 1.75171 46.4811 1.75171 46.0877C1.75171 45.6193 1.84691 45.1884 2.03732 44.7762C2.22772 44.3641 2.47525 44.0081 2.79894 43.6896C3.12263 43.3898 3.4844 43.1463 3.92233 42.9589C4.36026 42.7716 4.81723 42.6779 5.31228 42.6592H5.38845H10.5294H10.7388C11.1958 42.6779 11.6337 42.7903 12.0336 42.9589C12.4334 43.1276 12.7762 43.3711 13.0808 43.6521C13.3855 43.9331 13.633 44.2516 13.8234 44.6263C14.0138 45.001 14.128 45.3945 14.1661 45.8066H12.7571C12.719 45.5631 12.6429 45.3383 12.5096 45.1134C12.3954 44.8886 12.243 44.7013 12.0526 44.5327C11.8622 44.3641 11.6528 44.2329 11.4243 44.1392C11.1958 44.0456 10.9292 43.9894 10.6627 43.9706H10.6055H10.5294H10.4342H5.48365H5.38845H5.31228C5.02668 43.9894 4.74107 44.0456 4.4745 44.158C4.20793 44.2704 3.97945 44.4203 3.78904 44.6076C3.59864 44.795 3.44631 45.0198 3.33207 45.2821C3.21783 45.5443 3.16071 45.8066 3.16071 46.0877V46.1439V46.2001V46.2375V46.275V46.2937V46.3312V46.3499L3.17975 46.3687V46.4061V46.4249V46.4624C3.19879 46.4811 3.19879 46.4811 3.19879 46.4998V46.5373V46.556L3.21783 46.5748V46.6122V46.631L3.23687 46.6497V46.6872C3.25591 46.7059 3.25591 46.7059 3.25591 46.7246C3.25591 46.7434 3.25591 46.7434 3.27495 46.7434L3.29399 46.7621C3.31303 46.7808 3.31303 46.7996 3.33207 46.8183C3.33207 46.837 3.35111 46.8558 3.37015 46.8745C3.37015 46.8933 3.37015 46.912 3.38919 46.9307C3.38919 46.9495 3.38919 46.9495 3.40823 46.9682C3.40823 46.9869 3.40823 46.9869 3.42727 46.9869L3.44631 47.0057L3.46535 47.0431C3.4844 47.0431 3.4844 47.0619 3.4844 47.0806H3.50344C3.50344 47.0993 3.50344 47.1181 3.52248 47.1181V47.1368L3.54152 47.1555L3.56056 47.1743V47.193C3.5796 47.2117 3.5796 47.2117 3.5796 47.2305H3.59864C3.59864 47.2492 3.59864 47.268 3.61768 47.268L3.65576 47.3054V47.3242L3.6748 47.3616L3.71288 47.3991L3.78904 47.474L3.86521 47.5677C3.88425 47.5677 3.88425 47.5677 3.88425 47.5677C3.88425 47.5677 3.88425 47.5677 3.90329 47.5677L3.94137 47.6052L3.97945 47.6426L4.01753 47.6614C4.01753 47.6801 4.01753 47.6801 4.03657 47.6801V47.6989C4.05561 47.6989 4.05561 47.6989 4.07465 47.7176L4.09369 47.7363H4.11273C4.11273 47.7551 4.11273 47.7551 4.13177 47.7551L4.15081 47.7738L4.16985 47.7925C4.18889 47.7925 4.18889 47.7925 4.20793 47.8113C4.22698 47.8113 4.22698 47.8113 4.22698 47.8113C4.22698 47.8113 4.22697 47.8113 4.24602 47.8113L4.4745 47.9424C4.49354 47.9424 4.53162 47.9611 4.55066 47.9799C4.5697 47.9799 4.58874 47.9799 4.60779 47.9986H4.64587L4.66491 48.0173H4.70299C4.72203 48.0361 4.72203 48.0361 4.74107 48.0361H4.76011C4.76011 48.0548 4.77915 48.0548 4.79819 48.0548C4.81723 48.0548 4.81723 48.0548 4.83627 48.0736H4.85531H4.89339L4.91243 48.0923H4.95051C4.96955 48.0923 4.98859 48.0923 5.00764 48.111H5.04572C5.06476 48.111 5.0838 48.111 5.10284 48.1298H5.15996H5.19804H5.21708C5.23612 48.1298 5.31228 48.1485 5.46461 48.1672C5.61693 48.186 5.80734 48.2234 6.05486 48.2609C6.28335 48.2984 6.56896 48.3358 6.89265 48.392C7.21633 48.4482 7.54002 48.5045 7.88275 48.5607C8.01604 48.5794 8.0922 48.5981 8.14932 48.6169C8.75862 48.7105 9.38695 48.8229 9.99625 48.9541C10.6055 49.0852 11.1006 49.1602 11.5385 49.2913Z" stroke="white" stroke-width="2" stroke-miterlimit="10"/>
<path d="M29.2082 49.966H23.3056V56.0174H21.8776V42.5845H30.5791C31.0932 42.6219 31.5692 42.7344 32.0262 42.9592C32.4831 43.1653 32.883 43.4463 33.2067 43.7835C33.5304 44.1207 33.7969 44.4954 34.0064 44.9263C34.1968 45.3572 34.311 45.8069 34.311 46.2752C34.311 46.7436 34.2158 47.1745 34.0444 47.6054C33.8731 48.0363 33.6065 48.3923 33.3019 48.7295C32.9782 49.048 32.6164 49.329 32.1785 49.5538C31.7405 49.7787 31.2836 49.9098 30.7885 49.9847H29.2082V49.966ZM30.541 48.6733C30.8647 48.6358 31.1693 48.5422 31.4549 48.411C31.7405 48.2611 31.9881 48.0925 32.1975 47.8864C32.407 47.6804 32.5593 47.4368 32.6926 47.1558C32.8068 46.8748 32.883 46.5937 32.883 46.2752C32.883 45.9567 32.8259 45.657 32.6926 45.376C32.5593 45.0949 32.3879 44.8514 32.1594 44.6266C31.9309 44.4205 31.6644 44.2331 31.3597 44.1207C31.0551 43.9896 30.7314 43.9146 30.3887 43.8959H23.3246V48.6733H30.541V48.6733Z" stroke="white" stroke-width="2" stroke-miterlimit="10"/>
<path d="M58.5686 56.0174H57.0263L54.2844 50.959H46.4207L43.6789 56.0174H42.1366L49.5053 42.3784H49.5243H49.9813H50.3431H50.7048H51.1428H51.1618L58.5686 56.0174ZM47.1252 49.6101H53.5609L50.3621 43.6899H50.3431L47.1252 49.6101Z" stroke="white" stroke-width="2" stroke-miterlimit="10"/>
<path d="M68.603 54.6495H70.6974V55.9797H65.2709V54.6495H67.3653V43.9145H65.2709V42.603H70.6974V43.9145H68.603V54.6495Z" stroke="white" stroke-width="2" stroke-miterlimit="10"/>
<path d="M92.2132 56.055H90.8232L79.7797 44.5143V56.055H78.3898V42.5659H79.7797L90.8423 54.1066V42.5659H92.2322V56.055H92.2132Z" stroke="white" stroke-width="2" stroke-miterlimit="10"/>
<path d="M12.3764 78.1429H10.9864V71.8855H1.77082V78.1429H0.380859V64.6538H1.77082V70.5553H11.0055V64.6538H12.3764V78.1429Z" fill="white"/>
<path d="M27.6659 64.6724C28.656 64.6724 29.57 64.841 30.4459 65.1969C31.3217 65.5529 32.0833 66.04 32.7117 66.6395C33.3591 67.239 33.8731 67.951 34.254 68.7753C34.6348 69.5809 34.8252 70.4614 34.8252 71.3982C34.8252 72.3349 34.6348 73.1967 34.254 74.0211C33.8731 74.8267 33.3591 75.5386 32.7117 76.1568C32.0643 76.7563 31.3027 77.2435 30.4459 77.5994C29.57 77.9554 28.656 78.124 27.6659 78.124C26.6758 78.124 25.7619 77.9554 24.886 77.5994C24.0292 77.2435 23.2676 76.7563 22.6202 76.1568C21.9728 75.5573 21.4587 74.8454 21.0779 74.0211C20.6971 73.2155 20.5067 72.3349 20.5067 71.3982C20.5067 70.4614 20.6971 69.5996 21.0779 68.7753C21.4587 67.9697 21.9728 67.2578 22.6202 66.6395C23.2676 66.04 24.0292 65.5529 24.886 65.1969C25.7619 64.8597 26.6949 64.6724 27.6659 64.6724ZM27.6659 76.8875C28.4656 76.8875 29.2273 76.7376 29.9318 76.4566C30.6363 76.1756 31.2646 75.7821 31.7787 75.2763C32.3118 74.7892 32.7117 74.2084 33.0354 73.534C33.34 72.8595 33.4923 72.1476 33.4923 71.3982C33.4923 70.6488 33.34 69.9369 33.0354 69.2624C32.7307 68.5879 32.3118 68.0259 31.7787 67.5201C31.2456 67.033 30.6363 66.6395 29.9318 66.3398C29.2273 66.0587 28.4656 65.9089 27.6659 65.9089C26.8662 65.9089 26.1046 66.0587 25.4001 66.3398C24.6956 66.6208 24.0863 67.0142 23.5532 67.5201C23.0201 68.0072 22.6202 68.5879 22.2965 69.2624C21.9728 69.9369 21.8395 70.63 21.8395 71.3982C21.8395 72.1476 21.9919 72.8595 22.2965 73.534C22.6012 74.2084 23.0201 74.7892 23.5532 75.2763C24.0863 75.7634 24.6956 76.1568 25.4001 76.4566C26.1046 76.7376 26.8662 76.8875 27.6659 76.8875Z" fill="white"/>
<path d="M55.1223 64.6724V72.3349C55.1223 73.1218 54.9509 73.8712 54.6272 74.5831C54.3035 75.295 53.8656 75.8945 53.2944 76.4191C52.7232 76.9437 52.0758 77.3559 51.3142 77.6556C50.5526 77.9554 49.7529 78.1053 48.896 78.1053C48.0202 78.1053 47.2205 77.9554 46.4589 77.6556C45.6972 77.3559 45.0499 76.9437 44.4786 76.4191C43.9074 75.8945 43.4695 75.2763 43.1458 74.5831C42.8221 73.8712 42.6508 73.1218 42.6508 72.3349V64.6724H44.0217V71.904C44.0407 71.979 44.0407 72.0539 44.0407 72.1288C44.0407 72.2038 44.0407 72.2787 44.0407 72.3537C44.0598 72.9719 44.193 73.5527 44.4406 74.1147C44.6881 74.658 45.0308 75.1264 45.4688 75.5386C45.9067 75.9507 46.4208 76.2692 46.992 76.4941C47.5822 76.7376 48.2106 76.85 48.877 76.85C49.5434 76.85 50.1718 76.7376 50.762 76.4941C51.3523 76.2505 51.8664 75.932 52.3233 75.5386C52.7803 75.1452 53.104 74.658 53.3706 74.1147C53.6181 73.5714 53.7514 72.9906 53.7514 72.3537V72.0352V71.904V64.6724H55.1223Z" fill="white"/>
<path d="M72.7158 71.3983C73.0966 71.5107 73.4584 71.6605 73.763 71.8666C74.0867 72.0727 74.3533 72.3163 74.5817 72.616C74.8102 72.897 75.0006 73.2155 75.1339 73.5715C75.2672 73.9275 75.3434 74.2834 75.3434 74.6769C75.3434 75.1452 75.2482 75.5949 75.0578 76.007C74.8674 76.4192 74.6008 76.7939 74.2771 77.0936C73.9534 77.4121 73.5726 77.6557 73.1347 77.8243C72.6967 77.9929 72.2207 78.0866 71.7257 78.0866H66.5847H66.5086C66.0135 78.0679 65.5565 77.9742 65.1377 77.8056C64.6997 77.637 64.338 77.3934 64.0143 77.0749C63.6906 76.7752 63.4431 76.4192 63.2526 76.007C63.0622 75.5949 62.967 75.164 62.967 74.6956H64.376C64.376 74.9766 64.4332 75.2389 64.5664 75.5012C64.6807 75.7447 64.852 75.9696 65.0425 76.1569C65.2329 76.3443 65.4804 76.4941 65.7469 76.6065C66.0135 76.719 66.2991 76.7752 66.6038 76.7752H71.6495V76.7564C71.6685 76.7564 71.6876 76.7564 71.7066 76.7564C71.7066 76.7564 71.7257 76.7564 71.7637 76.7564C72.0684 76.7564 72.354 76.7002 72.6396 76.5878C72.9062 76.4754 73.1537 76.3255 73.3441 76.1382C73.5345 75.9508 73.7059 75.7073 73.8201 75.4637C73.9344 75.2014 74.0105 74.9391 74.0105 74.6394C74.0105 74.6206 74.0105 74.6019 73.9915 74.5832V74.5457V74.5082V74.4895V74.4708V74.4333V74.4146V74.3958V74.3584C73.9724 74.3396 73.9724 74.3396 73.9724 74.3209C73.9724 74.2647 73.9724 74.246 73.9534 74.2272V74.1897V74.171C73.9534 74.1523 73.9534 74.1523 73.9344 74.1523C73.9344 74.1523 73.9344 74.1523 73.9344 74.1335V74.0961L73.9153 74.0773V74.0399C73.9153 74.0211 73.9153 74.0211 73.8963 74.0024C73.8963 73.9837 73.8963 73.9649 73.8963 73.9649C73.8963 73.9649 73.8963 73.9462 73.8963 73.9275C73.8772 73.9275 73.8772 73.9275 73.8772 73.9087C73.8772 73.89 73.8772 73.89 73.8582 73.89C73.8582 73.89 73.8582 73.8713 73.8582 73.8525C73.8392 73.8525 73.8392 73.8525 73.8392 73.8338V73.815C73.8201 73.7963 73.8201 73.7963 73.8201 73.7776C73.8011 73.7588 73.8011 73.7588 73.8011 73.7401C73.782 73.7214 73.782 73.7214 73.782 73.7026C73.763 73.6839 73.763 73.6652 73.744 73.6464C73.7249 73.6277 73.7249 73.609 73.7059 73.5902L73.6868 73.5715V73.5528L73.6488 73.5153L73.6297 73.4778L73.6107 73.4404L73.5536 73.3841L73.5155 73.3467C73.5155 73.3279 73.5155 73.3279 73.4964 73.3092L73.4584 73.2717L73.4203 73.2343L73.4012 73.1968C73.3822 73.1968 73.3822 73.1968 73.3822 73.1968C73.3822 73.1968 73.3822 73.1968 73.3631 73.1968C73.3441 73.1781 73.3441 73.1781 73.3251 73.1593C73.3251 73.1406 73.306 73.1406 73.2679 73.1219L73.2489 73.1031L73.2108 73.0657C73.1918 73.0657 73.1918 73.0657 73.1918 73.0657C73.1918 73.0657 73.1918 73.0657 73.1727 73.0657L73.1347 73.0282L73.0966 73.0095C73.0775 72.9907 73.0395 72.972 73.0204 72.9532L72.9823 72.9345C72.9823 72.9158 72.9633 72.9158 72.9443 72.9158V72.8783L72.9062 72.8596C72.8871 72.8596 72.8871 72.8596 72.8871 72.8596C72.8871 72.8596 72.8871 72.8596 72.8681 72.8596C72.8491 72.8408 72.811 72.8221 72.7919 72.8221C72.7348 72.8034 72.7158 72.7846 72.6967 72.7846C72.6777 72.7659 72.6777 72.7659 72.6587 72.7659C72.6396 72.7472 72.6396 72.7472 72.6206 72.7472C72.6015 72.7284 72.6015 72.7284 72.5825 72.7284H72.5635C72.5444 72.7097 72.5444 72.7097 72.5254 72.7097C72.5063 72.691 72.4873 72.691 72.4683 72.691C72.4683 72.691 72.4492 72.691 72.4111 72.6722C72.3921 72.6722 72.3921 72.6722 72.373 72.6722C72.354 72.6722 72.354 72.6722 72.335 72.6722H72.2778V72.6535H72.2398C72.0113 72.5973 71.6305 72.5036 71.1164 72.4099C70.6023 72.2975 70.0311 72.2038 69.4218 72.0914C69.3266 72.0727 69.2123 72.054 69.1171 72.0352C69.0219 72.0165 68.9077 71.9978 68.8125 71.979C68.6411 71.9603 68.4507 71.9228 68.2793 71.8854C68.108 71.8479 67.9176 71.8104 67.7462 71.7917C67.7272 71.7917 67.7272 71.7917 67.7081 71.7917C67.7081 71.7917 67.6891 71.7917 67.67 71.7917C67.6129 71.7917 67.5558 71.7729 67.4796 71.7542H67.4225H67.3844C67.3654 71.7355 67.3464 71.7355 67.3273 71.7355C67.3083 71.7355 67.2892 71.7355 67.2702 71.7355C67.2511 71.7355 67.2321 71.7355 67.2131 71.7355C67.194 71.7355 67.175 71.7355 67.156 71.7167H67.0798C66.9465 71.698 66.8132 71.6793 66.699 71.6605C66.5847 71.6418 66.4705 71.6231 66.3753 71.6043C66.261 71.5856 66.1468 71.5669 66.0516 71.5481C65.9564 71.5294 65.8802 71.5294 65.8041 71.5107C65.7279 71.4919 65.6708 71.4919 65.6137 71.4732C65.2329 71.3795 64.8711 71.2296 64.5664 71.0236C64.2428 70.8175 63.9762 70.5739 63.7477 70.2742C63.5192 69.9931 63.3288 69.6746 63.1955 69.3187C63.0622 68.9627 62.9861 68.588 62.9861 68.1946C62.9861 67.7262 63.0813 67.2953 63.2717 66.8832C63.4621 66.471 63.7096 66.115 64.0333 65.7965C64.357 65.4968 64.7188 65.2532 65.1567 65.0659C65.5946 64.8785 66.0516 64.7848 66.5467 64.7661H66.6228H71.7637H71.9732C72.4302 64.7848 72.8681 64.8973 73.2679 65.0659C73.6678 65.2345 74.0105 65.478 74.3152 65.7591C74.6198 66.0401 74.8674 66.3586 75.0578 66.7333C75.2482 67.108 75.3624 67.5014 75.4005 67.9136H73.9915C73.9534 67.67 73.8772 67.4452 73.744 67.2204C73.6297 66.9956 73.4774 66.8082 73.287 66.6396C73.0966 66.471 72.8871 66.3398 72.6587 66.2462C72.4302 66.1525 72.1636 66.0963 71.897 66.0776H71.8399H71.7637H71.6685H66.718H66.6228H66.5467C66.261 66.0963 65.9754 66.1525 65.7089 66.2649C65.4423 66.3773 65.2138 66.5272 65.0234 66.7145C64.833 66.9019 64.6807 67.1267 64.5664 67.389C64.4522 67.6513 64.3951 67.9136 64.3951 68.1946V68.2508V68.307V68.3445V68.3819V68.4007V68.4381V68.4569L64.4141 68.4756V68.5131V68.5318V68.5693C64.4332 68.588 64.4332 68.588 64.4332 68.6068V68.6442V68.663L64.4522 68.6817V68.7192V68.7379L64.4712 68.7566V68.7941C64.4903 68.8128 64.4903 68.8128 64.4903 68.8316C64.4903 68.8503 64.4903 68.8503 64.4903 68.8503L64.5093 68.869C64.5284 68.8878 64.5284 68.9065 64.5474 68.9252C64.5474 68.944 64.5664 68.9627 64.5855 68.9815C64.5855 69.0002 64.5855 69.0189 64.6045 69.0377C64.6045 69.0564 64.6045 69.0564 64.6236 69.0751C64.6236 69.0939 64.6236 69.0939 64.6426 69.0939L64.6616 69.1126L64.6807 69.1501C64.6997 69.1501 64.6997 69.1688 64.6997 69.1875H64.7188C64.7188 69.2063 64.7188 69.225 64.7378 69.225V69.2437L64.7568 69.2625L64.7759 69.2812V69.2999C64.7949 69.3187 64.7949 69.3187 64.7949 69.3374H64.814C64.814 69.3562 64.814 69.3749 64.833 69.3749L64.8711 69.4124V69.4311L64.8901 69.4686L64.9282 69.506L65.0044 69.581L65.0805 69.6746C65.0996 69.6746 65.0996 69.6746 65.0996 69.6746C65.0996 69.6746 65.0996 69.6746 65.1186 69.6746L65.1567 69.7121L65.1948 69.7496L65.2329 69.7683C65.2329 69.7871 65.2329 69.7871 65.2519 69.7871V69.8058C65.2709 69.8058 65.2709 69.8058 65.29 69.8245L65.309 69.8433H65.3281C65.3281 69.862 65.3281 69.862 65.3471 69.862L65.3661 69.8807L65.3852 69.8995C65.4042 69.8995 65.4042 69.8995 65.4233 69.9182C65.4423 69.9182 65.4423 69.9182 65.4423 69.9182C65.4423 69.9182 65.4423 69.9182 65.4613 69.9182L65.6898 70.0493C65.7089 70.0493 65.747 70.0681 65.766 70.0868C65.785 70.0868 65.8041 70.0868 65.8231 70.1055H65.8612L65.8802 70.1243H65.9183C65.9374 70.143 65.9374 70.143 65.9564 70.143H65.9754C65.9754 70.1617 65.9945 70.1618 66.0135 70.1618C66.0326 70.1618 66.0326 70.1618 66.0516 70.1805H66.0706H66.1087L66.1278 70.1992H66.1658C66.1849 70.1992 66.2039 70.1992 66.223 70.218H66.261C66.2801 70.218 66.2991 70.218 66.3182 70.2367H66.3753H66.4134H66.4324C66.4514 70.2367 66.5276 70.2554 66.6799 70.2742C66.8323 70.2929 67.0227 70.3304 67.2702 70.3678C67.4987 70.4053 67.7843 70.4428 68.108 70.499C68.4317 70.5552 68.7554 70.6114 69.0981 70.6676C69.2314 70.6863 69.3075 70.7051 69.3646 70.7238C69.9739 70.8175 70.6023 70.9299 71.2116 71.061C71.7638 71.136 72.2778 71.2671 72.7158 71.3983Z" fill="white"/>
<path d="M93.9841 78.1427H83.0548V64.6724H93.9841V65.9838H84.4257V70.5738H93.9841V71.8853H84.4257V76.85H93.9841V78.1427Z" fill="white"/>
<path d="M12.3764 78.1429H10.9864V71.8855H1.77082V78.1429H0.380859V64.6538H1.77082V70.5553H11.0055V64.6538H12.3764V78.1429Z" stroke="white" stroke-width="2" stroke-miterlimit="10"/>
<path d="M27.6659 64.6724C28.656 64.6724 29.57 64.841 30.4459 65.1969C31.3217 65.5529 32.0833 66.04 32.7117 66.6395C33.3591 67.239 33.8731 67.951 34.254 68.7753C34.6348 69.5809 34.8252 70.4614 34.8252 71.3982C34.8252 72.3349 34.6348 73.1967 34.254 74.0211C33.8731 74.8267 33.3591 75.5386 32.7117 76.1568C32.0643 76.7563 31.3027 77.2435 30.4459 77.5994C29.57 77.9554 28.656 78.124 27.6659 78.124C26.6758 78.124 25.7619 77.9554 24.886 77.5994C24.0292 77.2435 23.2676 76.7563 22.6202 76.1568C21.9728 75.5573 21.4587 74.8454 21.0779 74.0211C20.6971 73.2155 20.5067 72.3349 20.5067 71.3982C20.5067 70.4614 20.6971 69.5996 21.0779 68.7753C21.4587 67.9697 21.9728 67.2578 22.6202 66.6395C23.2676 66.04 24.0292 65.5529 24.886 65.1969C25.7619 64.8597 26.6949 64.6724 27.6659 64.6724ZM27.6659 76.8875C28.4656 76.8875 29.2273 76.7376 29.9318 76.4566C30.6363 76.1756 31.2646 75.7821 31.7787 75.2763C32.3118 74.7892 32.7117 74.2084 33.0354 73.534C33.34 72.8595 33.4923 72.1476 33.4923 71.3982C33.4923 70.6488 33.34 69.9369 33.0354 69.2624C32.7307 68.5879 32.3118 68.0259 31.7787 67.5201C31.2456 67.033 30.6363 66.6395 29.9318 66.3398C29.2273 66.0587 28.4656 65.9089 27.6659 65.9089C26.8662 65.9089 26.1046 66.0587 25.4001 66.3398C24.6956 66.6208 24.0863 67.0142 23.5532 67.5201C23.0201 68.0072 22.6202 68.5879 22.2965 69.2624C21.9728 69.9369 21.8395 70.63 21.8395 71.3982C21.8395 72.1476 21.9919 72.8595 22.2965 73.534C22.6012 74.2084 23.0201 74.7892 23.5532 75.2763C24.0863 75.7634 24.6956 76.1568 25.4001 76.4566C26.1046 76.7376 26.8662 76.8875 27.6659 76.8875Z" stroke="white" stroke-width="2" stroke-miterlimit="10"/>
<path d="M55.1223 64.6724V72.3349C55.1223 73.1218 54.9509 73.8712 54.6272 74.5831C54.3035 75.295 53.8656 75.8945 53.2944 76.4191C52.7232 76.9437 52.0758 77.3559 51.3142 77.6556C50.5526 77.9554 49.7529 78.1053 48.896 78.1053C48.0202 78.1053 47.2205 77.9554 46.4589 77.6556C45.6972 77.3559 45.0499 76.9437 44.4786 76.4191C43.9074 75.8945 43.4695 75.2763 43.1458 74.5831C42.8221 73.8712 42.6508 73.1218 42.6508 72.3349V64.6724H44.0217V71.904C44.0407 71.979 44.0407 72.0539 44.0407 72.1288C44.0407 72.2038 44.0407 72.2787 44.0407 72.3537C44.0598 72.9719 44.193 73.5527 44.4406 74.1147C44.6881 74.658 45.0308 75.1264 45.4688 75.5386C45.9067 75.9507 46.4208 76.2692 46.992 76.4941C47.5822 76.7376 48.2106 76.85 48.877 76.85C49.5434 76.85 50.1718 76.7376 50.762 76.4941C51.3523 76.2505 51.8664 75.932 52.3233 75.5386C52.7803 75.1452 53.104 74.658 53.3706 74.1147C53.6181 73.5714 53.7514 72.9906 53.7514 72.3537V72.0352V71.904V64.6724H55.1223Z" stroke="white" stroke-width="2" stroke-miterlimit="10"/>
<path d="M72.7158 71.3983C73.0966 71.5107 73.4584 71.6605 73.763 71.8666C74.0867 72.0727 74.3533 72.3163 74.5817 72.616C74.8102 72.897 75.0006 73.2155 75.1339 73.5715C75.2672 73.9275 75.3434 74.2834 75.3434 74.6769C75.3434 75.1452 75.2482 75.5949 75.0578 76.007C74.8674 76.4192 74.6008 76.7939 74.2771 77.0936C73.9534 77.4121 73.5726 77.6557 73.1347 77.8243C72.6967 77.9929 72.2207 78.0866 71.7257 78.0866H66.5847H66.5086C66.0135 78.0679 65.5565 77.9742 65.1377 77.8056C64.6997 77.637 64.338 77.3934 64.0143 77.0749C63.6906 76.7752 63.4431 76.4192 63.2526 76.007C63.0622 75.5949 62.967 75.164 62.967 74.6956H64.376C64.376 74.9766 64.4332 75.2389 64.5664 75.5012C64.6807 75.7447 64.852 75.9696 65.0425 76.1569C65.2329 76.3443 65.4804 76.4941 65.7469 76.6065C66.0135 76.7189 66.2991 76.7752 66.6038 76.7752H71.6495V76.7564C71.6685 76.7564 71.6876 76.7564 71.7066 76.7564C71.7066 76.7564 71.7257 76.7564 71.7637 76.7564C72.0684 76.7564 72.354 76.7002 72.6396 76.5878C72.9062 76.4754 73.1537 76.3255 73.3441 76.1382C73.5345 75.9508 73.7059 75.7073 73.8201 75.4637C73.9344 75.2014 74.0105 74.9391 74.0105 74.6394C74.0105 74.6206 74.0105 74.6019 73.9915 74.5832V74.5457V74.5082V74.4895V74.4708V74.4333V74.4146V74.3958V74.3584C73.9724 74.3396 73.9724 74.3396 73.9724 74.3209C73.9724 74.2647 73.9724 74.246 73.9534 74.2272V74.1897V74.171C73.9534 74.1523 73.9534 74.1523 73.9344 74.1523C73.9344 74.1523 73.9344 74.1523 73.9344 74.1335V74.0961L73.9153 74.0773V74.0399C73.9153 74.0211 73.9153 74.0211 73.8963 74.0024C73.8963 73.9837 73.8963 73.9649 73.8963 73.9649C73.8963 73.9649 73.8963 73.9462 73.8963 73.9275C73.8772 73.9275 73.8772 73.9275 73.8772 73.9087C73.8772 73.89 73.8772 73.89 73.8582 73.89C73.8582 73.89 73.8582 73.8713 73.8582 73.8525C73.8392 73.8525 73.8392 73.8525 73.8392 73.8338V73.815C73.8201 73.7963 73.8201 73.7963 73.8201 73.7776C73.8011 73.7588 73.8011 73.7588 73.8011 73.7401C73.782 73.7214 73.782 73.7214 73.782 73.7026C73.763 73.6839 73.763 73.6652 73.744 73.6464C73.7249 73.6277 73.7249 73.609 73.7059 73.5902L73.6868 73.5715V73.5528L73.6488 73.5153L73.6297 73.4778L73.6107 73.4404L73.5536 73.3841L73.5155 73.3467C73.5155 73.3279 73.5155 73.3279 73.4964 73.3092L73.4584 73.2717L73.4203 73.2343L73.4012 73.1968C73.3822 73.1968 73.3822 73.1968 73.3822 73.1968C73.3822 73.1968 73.3822 73.1968 73.3631 73.1968C73.3441 73.1781 73.3441 73.1781 73.3251 73.1593C73.3251 73.1406 73.306 73.1406 73.2679 73.1219L73.2489 73.1031L73.2108 73.0657C73.1918 73.0657 73.1918 73.0657 73.1918 73.0657C73.1918 73.0657 73.1918 73.0657 73.1727 73.0657L73.1347 73.0282L73.0966 73.0095C73.0775 72.9907 73.0395 72.972 73.0204 72.9532L72.9823 72.9345C72.9823 72.9158 72.9633 72.9158 72.9443 72.9158V72.8783L72.9062 72.8596C72.8871 72.8596 72.8871 72.8596 72.8871 72.8596C72.8871 72.8596 72.8871 72.8596 72.8681 72.8596C72.8491 72.8408 72.811 72.8221 72.7919 72.8221C72.7348 72.8034 72.7158 72.7846 72.6967 72.7846C72.6777 72.7659 72.6777 72.7659 72.6587 72.7659C72.6396 72.7472 72.6396 72.7472 72.6206 72.7472C72.6015 72.7284 72.6015 72.7284 72.5825 72.7284H72.5635C72.5444 72.7097 72.5444 72.7097 72.5254 72.7097C72.5063 72.691 72.4873 72.691 72.4682 72.691C72.4682 72.691 72.4492 72.691 72.4111 72.6722C72.3921 72.6722 72.3921 72.6722 72.373 72.6722C72.354 72.6722 72.354 72.6722 72.335 72.6722H72.2778V72.6535H72.2398C72.0113 72.5973 71.6305 72.5036 71.1164 72.4099C70.6023 72.2975 70.0311 72.2038 69.4218 72.0914C69.3266 72.0727 69.2123 72.054 69.1171 72.0352C69.0219 72.0165 68.9077 71.9978 68.8125 71.979C68.6411 71.9603 68.4507 71.9228 68.2793 71.8854C68.108 71.8479 67.9176 71.8104 67.7462 71.7917C67.7272 71.7917 67.7272 71.7917 67.7081 71.7917C67.7081 71.7917 67.6891 71.7917 67.67 71.7917C67.6129 71.7917 67.5558 71.7729 67.4796 71.7542H67.4225H67.3844C67.3654 71.7355 67.3464 71.7355 67.3273 71.7355C67.3083 71.7355 67.2892 71.7355 67.2702 71.7355C67.2511 71.7355 67.2321 71.7355 67.2131 71.7355C67.194 71.7355 67.175 71.7355 67.156 71.7167H67.0798C66.9465 71.698 66.8132 71.6793 66.699 71.6605C66.5847 71.6418 66.4705 71.6231 66.3753 71.6043C66.261 71.5856 66.1468 71.5669 66.0516 71.5481C65.9564 71.5294 65.8802 71.5294 65.8041 71.5107C65.7279 71.4919 65.6708 71.4919 65.6137 71.4732C65.2329 71.3795 64.8711 71.2296 64.5664 71.0236C64.2428 70.8175 63.9762 70.5739 63.7477 70.2742C63.5192 69.9931 63.3288 69.6746 63.1955 69.3187C63.0622 68.9627 62.9861 68.588 62.9861 68.1946C62.9861 67.7262 63.0813 67.2953 63.2717 66.8832C63.4621 66.471 63.7096 66.115 64.0333 65.7965C64.357 65.4968 64.7188 65.2532 65.1567 65.0659C65.5946 64.8785 66.0516 64.7848 66.5467 64.7661H66.6228H71.7637H71.9732C72.4302 64.7848 72.8681 64.8973 73.2679 65.0659C73.6678 65.2345 74.0105 65.478 74.3152 65.7591C74.6198 66.0401 74.8674 66.3586 75.0578 66.7333C75.2482 67.108 75.3624 67.5014 75.4005 67.9136H73.9915C73.9534 67.67 73.8772 67.4452 73.744 67.2204C73.6297 66.9956 73.4774 66.8082 73.287 66.6396C73.0966 66.471 72.8871 66.3398 72.6587 66.2462C72.4302 66.1525 72.1636 66.0963 71.897 66.0776H71.8399H71.7637H71.6685H66.718H66.6228H66.5467C66.261 66.0963 65.9754 66.1525 65.7089 66.2649C65.4423 66.3773 65.2138 66.5272 65.0234 66.7145C64.833 66.9019 64.6807 67.1267 64.5664 67.389C64.4522 67.6513 64.3951 67.9136 64.3951 68.1946V68.2508V68.307V68.3445V68.3819V68.4007V68.4381V68.4569L64.4141 68.4756V68.5131V68.5318V68.5693C64.4332 68.588 64.4332 68.588 64.4332 68.6068V68.6442V68.663L64.4522 68.6817V68.7192V68.7379L64.4712 68.7566V68.7941C64.4903 68.8128 64.4903 68.8128 64.4903 68.8316C64.4903 68.8503 64.4903 68.8503 64.4903 68.8503L64.5093 68.869C64.5284 68.8878 64.5284 68.9065 64.5474 68.9252C64.5474 68.944 64.5664 68.9627 64.5855 68.9815C64.5855 69.0002 64.5855 69.0189 64.6045 69.0377C64.6045 69.0564 64.6045 69.0564 64.6236 69.0751C64.6236 69.0939 64.6236 69.0939 64.6426 69.0939L64.6616 69.1126L64.6807 69.1501C64.6997 69.1501 64.6997 69.1688 64.6997 69.1875H64.7188C64.7188 69.2063 64.7188 69.225 64.7378 69.225V69.2437L64.7568 69.2625L64.7759 69.2812V69.2999C64.7949 69.3187 64.7949 69.3187 64.7949 69.3374H64.814C64.814 69.3562 64.814 69.3749 64.833 69.3749L64.8711 69.4124V69.4311L64.8901 69.4686L64.9282 69.506L65.0044 69.581L65.0805 69.6746C65.0996 69.6746 65.0996 69.6746 65.0996 69.6746C65.0996 69.6746 65.0996 69.6746 65.1186 69.6746L65.1567 69.7121L65.1948 69.7496L65.2329 69.7683C65.2329 69.7871 65.2329 69.7871 65.2519 69.7871V69.8058C65.2709 69.8058 65.2709 69.8058 65.29 69.8245L65.309 69.8433H65.3281C65.3281 69.862 65.3281 69.862 65.3471 69.862L65.3661 69.8807L65.3852 69.8995C65.4042 69.8995 65.4042 69.8995 65.4233 69.9182C65.4423 69.9182 65.4423 69.9182 65.4423 69.9182C65.4423 69.9182 65.4423 69.9182 65.4613 69.9182L65.6898 70.0493C65.7089 70.0493 65.747 70.0681 65.766 70.0868C65.785 70.0868 65.8041 70.0868 65.8231 70.1055H65.8612L65.8802 70.1243H65.9183C65.9374 70.143 65.9374 70.143 65.9564 70.143H65.9754C65.9754 70.1617 65.9945 70.1618 66.0135 70.1618C66.0326 70.1618 66.0326 70.1618 66.0516 70.1805H66.0706H66.1087L66.1278 70.1992H66.1658C66.1849 70.1992 66.2039 70.1992 66.223 70.218H66.261C66.2801 70.218 66.2991 70.218 66.3182 70.2367H66.3753H66.4134H66.4324C66.4514 70.2367 66.5276 70.2554 66.6799 70.2742C66.8323 70.2929 67.0227 70.3304 67.2702 70.3678C67.4987 70.4053 67.7843 70.4428 68.108 70.499C68.4317 70.5552 68.7553 70.6114 69.0981 70.6676C69.2314 70.6863 69.3075 70.7051 69.3646 70.7238C69.9739 70.8175 70.6023 70.9299 71.2116 71.061C71.7638 71.136 72.2778 71.2671 72.7158 71.3983Z" stroke="white" stroke-width="2" stroke-miterlimit="10"/>
<path d="M93.9841 78.1427H83.0548V64.6724H93.9841V65.9838H84.4257V70.5738H93.9841V71.8853H84.4257V76.85H93.9841V78.1427Z" stroke="white" stroke-width="2" stroke-miterlimit="10"/>
<path d="M92.8225 59.9888H1.04724V60.9255H92.8225V59.9888Z" fill="white"/>
</svg>
