<svg width="169" height="40" viewBox="0 0 169 40" fill="none" xmlns="http://www.w3.org/2000/svg">
<path d="M38.9805 33.9705H0V1.98737H38.9805V33.9705ZM1.85863 32.1179H37.1219V3.84H1.85863V32.1179Z" fill="#808080"/>
<path d="M75.8661 33.9705H37.0039V1.98737H75.8661V33.9705ZM38.8625 32.1179H74.0075V3.84H38.8625V32.1179Z" fill="#808080"/>
<path d="M24.1957 18.021C24.7195 18.1726 25.1926 18.4084 25.6319 18.6947C26.0712 18.9979 26.4429 19.3516 26.764 19.7558C27.085 20.16 27.3216 20.6147 27.5074 21.12C27.6933 21.6253 27.7778 22.1474 27.7778 22.7031C27.7778 23.3768 27.6426 24.0168 27.3892 24.6063C27.1188 25.1958 26.7809 25.7179 26.3247 26.1558C25.8854 26.5937 25.3616 26.9474 24.7533 27.2C24.145 27.4526 23.5029 27.5705 22.8271 27.5705H15.815H15.7136C15.0546 27.5537 14.4294 27.4189 13.8381 27.1663C13.2467 26.9137 12.7398 26.5768 12.3005 26.1389C11.8612 25.701 11.5232 25.1958 11.2529 24.6231C10.9825 24.0505 10.8643 23.4274 10.8643 22.7705H12.7736C12.7736 23.1747 12.8581 23.5452 13.027 23.8989C13.196 24.2526 13.4156 24.5726 13.686 24.8421C13.9563 25.1116 14.2774 25.3305 14.6491 25.4821C15.0208 25.6337 15.4094 25.7179 15.8319 25.7179H22.7257V25.6842C22.7595 25.6842 22.7764 25.6842 22.7933 25.701C22.8102 25.7179 22.8271 25.7179 22.8609 25.7179C23.2833 25.7179 23.6719 25.6337 24.0605 25.4821C24.4322 25.3305 24.7533 25.1116 25.0236 24.8252C25.294 24.5389 25.5136 24.2189 25.6826 23.8652C25.8516 23.4947 25.936 23.1074 25.936 22.6863C25.936 22.6526 25.9191 22.6189 25.9023 22.6021V22.5684V22.5179V22.4842V22.4505V22.4V22.3663V22.3326V22.2821C25.8854 22.2653 25.8685 22.2484 25.8685 22.2316C25.8685 22.1642 25.8516 22.1137 25.8347 22.0968V22.0631V22.0295C25.8347 22.0126 25.8347 21.9958 25.8178 21.9958C25.8009 21.9958 25.8009 21.9789 25.8009 21.9621V21.9116L25.7671 21.8779V21.8274C25.7671 21.8105 25.7502 21.7937 25.7333 21.7768C25.7333 21.7431 25.7333 21.7263 25.7164 21.7095C25.6995 21.6926 25.6995 21.6758 25.6995 21.6421C25.6826 21.6421 25.6657 21.6253 25.6657 21.6084C25.6657 21.5916 25.6657 21.5747 25.6488 21.5747C25.6319 21.5579 25.6319 21.541 25.6319 21.5074C25.615 21.5074 25.5981 21.4905 25.5981 21.4737V21.44C25.5812 21.4231 25.5643 21.4063 25.5643 21.3895C25.5474 21.3726 25.5305 21.3558 25.5305 21.3389C25.5136 21.3221 25.4967 21.3053 25.4967 21.2884C25.4798 21.2547 25.4629 21.221 25.446 21.2042C25.4291 21.1705 25.4123 21.1537 25.3954 21.12L25.3616 21.0863V21.0526L25.3109 21.0021L25.2771 20.9516L25.2433 20.901L25.1588 20.8168L25.1081 20.7663C25.1081 20.7495 25.0912 20.7326 25.0743 20.7158L25.0236 20.6653L24.9729 20.6147L24.9391 20.5642C24.9222 20.5642 24.9054 20.5642 24.9054 20.5474C24.9054 20.5305 24.8885 20.5305 24.8716 20.5305C24.8547 20.5137 24.8378 20.4968 24.8378 20.48C24.8209 20.4631 24.804 20.4463 24.7702 20.4295L24.7364 20.3958L24.6857 20.3453C24.6688 20.3453 24.6519 20.3453 24.6519 20.3284C24.6519 20.3116 24.635 20.3116 24.6181 20.3116L24.5674 20.261L24.5167 20.2274C24.4829 20.1937 24.4491 20.16 24.4153 20.1431L24.3647 20.1095C24.3647 20.0926 24.3478 20.0758 24.314 20.0758V20.0421L24.2633 20.0084C24.2464 20.0084 24.2295 20.0084 24.2295 19.9916C24.2295 19.9747 24.2126 19.9747 24.1957 19.9747C24.1619 19.941 24.1281 19.9242 24.0943 19.9242C24.0267 19.8905 23.976 19.8737 23.9591 19.8737C23.9422 19.8568 23.9253 19.84 23.9085 19.84C23.8916 19.8231 23.8747 19.8063 23.8578 19.8063C23.8409 19.7895 23.824 19.7726 23.8071 19.7726H23.7733C23.7564 19.7558 23.7395 19.7389 23.7226 19.7389C23.6888 19.7221 23.6719 19.7053 23.655 19.7053C23.6381 19.7053 23.6212 19.6884 23.5874 19.6716C23.5705 19.6716 23.5536 19.6716 23.5367 19.6547C23.5198 19.6379 23.5029 19.6379 23.486 19.6379H23.4016V19.6042H23.486C23.165 19.52 22.6581 19.4021 21.9484 19.2505C21.2388 19.0989 20.4615 18.9474 19.6336 18.7958C19.4984 18.7621 19.3464 18.7284 19.2112 18.7116C19.076 18.6947 18.9239 18.661 18.7888 18.6274C18.5522 18.5937 18.2988 18.5431 18.0622 18.4926C17.8257 18.4421 17.5722 18.3916 17.3357 18.3579C17.3188 18.3579 17.3019 18.3579 17.3019 18.341C17.285 18.3242 17.285 18.3242 17.2681 18.3242C17.2005 18.3242 17.116 18.3074 17.0146 18.2737H16.9301H16.8795C16.8626 18.2568 16.8288 18.24 16.795 18.24C16.7612 18.24 16.7274 18.24 16.7105 18.2231C16.6936 18.2063 16.6598 18.2063 16.626 18.2063C16.5922 18.2063 16.5584 18.1895 16.5415 18.1726H16.4401C16.2543 18.1389 16.0684 18.1053 15.9163 18.0884C15.7643 18.0547 15.6122 18.0379 15.477 18.0042C15.325 17.9705 15.1729 17.9368 15.0377 17.92C14.9026 17.9031 14.8012 17.8863 14.7167 17.8695C14.6153 17.8526 14.5308 17.8358 14.4463 17.8189C13.9225 17.6842 13.4494 17.4653 13.0101 17.1621C12.5708 16.8589 12.1991 16.5221 11.8781 16.101C11.557 15.6968 11.3205 15.2421 11.1346 14.7368C10.9487 14.2316 10.8643 13.7095 10.8643 13.1368C10.8643 12.48 10.9825 11.8568 11.236 11.2505C11.4894 10.661 11.8274 10.1389 12.2667 9.71789C12.706 9.27999 13.2129 8.92631 13.8043 8.67368C14.3957 8.42105 15.0208 8.26947 15.6967 8.25262H15.7981H22.8102H23.0974C23.7226 8.28631 24.314 8.43789 24.8547 8.69052C25.3954 8.94315 25.8685 9.26315 26.274 9.66736C26.6795 10.0716 27.0174 10.5263 27.2878 11.0653C27.5581 11.6042 27.7102 12.16 27.7609 12.7495H25.8516C25.8009 12.3958 25.6826 12.0758 25.5305 11.7558C25.3616 11.4358 25.1588 11.1663 24.9054 10.9305C24.6519 10.6947 24.3647 10.5095 24.0436 10.3747C23.7226 10.24 23.3678 10.1558 23.0129 10.1389H22.9284H22.8271H22.6919H15.9332H15.7981H15.7136C15.3081 10.1558 14.9363 10.24 14.5815 10.3916C14.2267 10.5431 13.9057 10.7621 13.6522 11.0484C13.3819 11.3347 13.1791 11.6379 13.027 12.0084C12.875 12.3621 12.7905 12.7495 12.7905 13.1368V13.221V13.3053V13.3558V13.4063V13.6421V13.6926V13.7263L12.8243 13.76V13.8105V13.8442V13.8947C12.8412 13.9116 12.8581 13.9284 12.8581 13.9453V13.9789V14.0126L12.8919 14.0463V14.0968V14.1305L12.9256 14.1642V14.2147C12.9425 14.2316 12.9594 14.2484 12.9594 14.2653C12.9594 14.2821 12.9594 14.2989 12.9763 14.2989C12.9932 14.3158 12.9932 14.3158 12.9932 14.3326C13.0101 14.3663 13.027 14.4 13.027 14.4168C13.0439 14.4505 13.0439 14.4674 13.0608 14.501C13.0608 14.5347 13.0777 14.5684 13.0946 14.5853C13.0946 14.6021 13.1115 14.6189 13.1284 14.6358C13.1284 14.6526 13.1284 14.6695 13.1453 14.6695C13.1622 14.6863 13.1622 14.6863 13.1622 14.7031L13.196 14.7537C13.2129 14.7537 13.2298 14.7705 13.2298 14.8042H13.1791C13.1791 14.8379 13.196 14.8547 13.2129 14.8547V14.8884L13.2467 14.9221L13.2805 14.9558V14.9895C13.2974 15.0063 13.3143 15.0231 13.3143 15.04H13.3481C13.3481 15.0737 13.365 15.0905 13.3819 15.0905L13.4325 15.141V15.1579L13.4663 15.2084L13.517 15.2589L13.6184 15.36L13.7198 15.4947C13.7367 15.4947 13.7536 15.4947 13.7536 15.5116C13.7536 15.5284 13.7705 15.5284 13.7874 15.5284L13.8381 15.5789L13.8888 15.6295L13.9394 15.6631C13.9394 15.68 13.9563 15.6968 13.9732 15.6968V15.7305C13.9901 15.7305 14.007 15.7474 14.0239 15.7642L14.0577 15.7979H14.0915C14.0915 15.8147 14.1084 15.8316 14.1253 15.8316L14.1591 15.8653L14.1929 15.8989C14.2098 15.8989 14.2267 15.9158 14.2436 15.9326C14.2605 15.9326 14.2774 15.9326 14.2774 15.9495C14.2774 15.9663 14.2943 15.9663 14.3112 15.9663L14.6322 16.1516C14.666 16.1516 14.6998 16.1684 14.7336 16.2021C14.7674 16.2021 14.8012 16.2189 14.8181 16.2358H14.8688L14.9025 16.2695H14.9532C14.9701 16.2863 14.987 16.3031 15.0039 16.3031H15.0377C15.0377 16.32 15.0546 16.3368 15.0884 16.3368C15.1053 16.3368 15.1222 16.3537 15.1391 16.3705H15.0377H15.0884L15.1222 16.4042H15.1729C15.2067 16.4042 15.2405 16.421 15.2574 16.4379H15.3081C15.3419 16.4379 15.3757 16.4547 15.3926 16.4716H15.477H15.5277H15.5615C15.5784 16.4716 15.6967 16.4884 15.8995 16.5221C16.1022 16.5558 16.3726 16.6063 16.6936 16.6568C17.0146 16.7074 17.4033 16.7747 17.8257 16.8421C18.265 16.9095 18.7212 16.9937 19.1943 17.0779C19.3633 17.1116 19.4984 17.1453 19.566 17.1621C20.4108 17.2968 21.2388 17.4653 22.0836 17.6337C22.8947 17.6505 23.6043 17.8358 24.1957 18.021Z" fill="#808080"/>
<path d="M64.4776 27.6379H62.5852V18.7284H49.9803V27.6379H48.0879V8.4379H49.9803V16.8421H62.5852V8.4379H64.4776V27.6379Z" fill="#808080"/>
<mask id="path-5-inside-1_279_79" fill="white">
<path d="M92.4248 8.40419C92.7627 8.50525 93.0838 8.63998 93.3541 8.82525C93.6414 9.01051 93.8779 9.22946 94.0807 9.49893C94.2834 9.75156 94.4524 10.0379 94.5707 10.3579C94.6889 10.6779 94.7565 10.9979 94.7565 11.3516C94.7565 11.7726 94.672 12.1768 94.5031 12.5473C94.3341 12.9179 94.0976 13.2547 93.8103 13.5242C93.5231 13.8105 93.1851 14.0295 92.7965 14.181C92.4079 14.3326 91.9855 14.4168 91.5462 14.4168H86.9841H86.9165C86.4772 14.4 86.0717 14.3158 85.6999 14.1642C85.3113 14.0126 84.9903 13.7937 84.703 13.5073C84.4158 13.2379 84.1961 12.9179 84.0272 12.5473C83.8582 12.1768 83.7737 11.7895 83.7737 11.3684H85.0241C85.0241 11.621 85.0748 11.8568 85.193 12.0926C85.2944 12.3116 85.4465 12.5137 85.6155 12.6821C85.7844 12.8505 86.0041 12.9852 86.2406 13.0863C86.4772 13.1873 86.7306 13.2379 87.001 13.2379H91.4786V13.221C91.4955 13.221 91.5124 13.221 91.5293 13.221C91.5293 13.221 91.5462 13.221 91.58 13.221C91.8503 13.221 92.1038 13.1705 92.3572 13.0695C92.5938 12.9684 92.8134 12.8337 92.9824 12.6652C93.1513 12.4968 93.3034 12.2779 93.4048 12.0589C93.5062 11.8231 93.5738 11.5873 93.5738 11.3179C93.5738 11.301 93.5738 11.2842 93.5569 11.2674V11.2842V11.2505V11.2337V11.2168V11.1831V11.1663V11.1495V11.1158C93.54 11.0989 93.54 11.0989 93.54 11.0821C93.54 11.0316 93.54 11.0147 93.5231 10.9979V10.9642V10.9474C93.5231 10.9305 93.5231 10.9305 93.5062 10.9305C93.5062 10.9305 93.4893 10.9305 93.4893 10.9137V10.88L93.4724 10.8631V10.8295C93.4724 10.8126 93.4724 10.8126 93.4555 10.7958C93.4555 10.7789 93.4555 10.7621 93.4386 10.7621C93.4386 10.7621 93.4386 10.7452 93.4386 10.7284C93.4217 10.7284 93.4217 10.7284 93.4217 10.7116C93.4217 10.6947 93.4217 10.6947 93.4048 10.6947C93.4048 10.6947 93.3879 10.6779 93.3879 10.661C93.371 10.661 93.371 10.661 93.371 10.6442V10.6274C93.3541 10.6105 93.3541 10.6105 93.3541 10.5937C93.3372 10.5768 93.3372 10.5768 93.3372 10.56C93.3203 10.5431 93.3203 10.5431 93.3203 10.5263C93.3034 10.5095 93.3034 10.4926 93.2865 10.4758C93.2696 10.4589 93.2696 10.4421 93.2527 10.4252L93.2358 10.4084V10.3916L93.202 10.3579L93.1851 10.3242L93.1683 10.2905L93.1176 10.24L93.0838 10.2063C93.0838 10.1895 93.0838 10.1895 93.0669 10.1726L93.0331 10.1389L92.9993 10.1052L92.9824 10.0716C92.9655 10.0716 92.9655 10.0716 92.9655 10.0716C92.9655 10.0716 92.9655 10.0716 92.9486 10.0716C92.9317 10.0547 92.9317 10.0547 92.9148 10.0379C92.9148 10.021 92.8979 10.021 92.8641 10.0042L92.8472 9.98735L92.8134 9.95367C92.7965 9.95367 92.7965 9.95367 92.7965 9.95367C92.7965 9.95367 92.7965 9.95367 92.7796 9.95367L92.7458 9.91998L92.712 9.90314C92.6951 9.8863 92.6613 9.86946 92.6445 9.85261L92.6107 9.83577C92.6107 9.81893 92.5938 9.81893 92.5769 9.81893V9.80209L92.5431 9.78525C92.5262 9.78525 92.5262 9.78525 92.5262 9.78525C92.5262 9.78525 92.5262 9.78525 92.5093 9.78525C92.4924 9.7684 92.4586 9.75156 92.4417 9.75156C92.391 9.73472 92.3741 9.71788 92.3572 9.71788C92.3403 9.70104 92.3403 9.70103 92.3234 9.70103C92.3065 9.68419 92.3065 9.68419 92.2896 9.68419C92.2727 9.66735 92.2727 9.66735 92.2558 9.66735H92.2389C92.222 9.65051 92.222 9.65051 92.2051 9.65051C92.1882 9.63367 92.1714 9.63367 92.1545 9.63367C92.1545 9.63367 92.1375 9.63367 92.1038 9.61682C92.0869 9.61682 92.0869 9.61682 92.07 9.61682C92.0531 9.61682 92.0531 9.61682 92.0362 9.61682H91.9855V9.59998H91.9517C91.7489 9.54946 91.411 9.46525 90.9548 9.38104C90.4986 9.27998 89.9917 9.19577 89.451 9.09472C89.3665 9.07788 89.2651 9.06104 89.1806 9.04419C89.0962 9.02735 88.9948 9.01051 88.9103 8.99367C88.7582 8.97682 88.5893 8.94314 88.4372 8.90946C88.2851 8.87577 88.1162 8.84209 87.9641 8.82525C87.9472 8.82525 87.9472 8.82525 87.9303 8.82525C87.9303 8.82525 87.9134 8.82525 87.8965 8.82525C87.8458 8.82525 87.7951 8.8084 87.7275 8.79156H87.6937H87.6599C87.6431 8.77472 87.6262 8.77472 87.6093 8.77472C87.5924 8.77472 87.5755 8.77472 87.5586 8.77472C87.5417 8.77472 87.5248 8.77472 87.5079 8.77472C87.491 8.77472 87.4741 8.77472 87.4572 8.75788H87.3896C87.2713 8.74103 87.1531 8.72419 87.0517 8.70735C86.9503 8.69051 86.8489 8.67367 86.7644 8.65683C86.6631 8.63998 86.5617 8.62314 86.4772 8.6063C86.3927 8.58946 86.3251 8.58946 86.2575 8.57261C86.1899 8.55577 86.1393 8.55577 86.0886 8.53893C85.7506 8.45472 85.4296 8.31998 85.1593 8.13472C84.872 7.94946 84.6355 7.73051 84.4327 7.46104C84.2299 7.2084 84.061 6.92209 83.9427 6.60209C83.8244 6.28209 83.7568 5.94525 83.7568 5.59156C83.7568 5.17051 83.8413 4.78314 84.0103 4.39577C84.1793 4.02525 84.3989 3.70525 84.6861 3.41893C84.9734 3.14946 85.2944 2.93051 85.683 2.76209C86.0717 2.59367 86.4772 2.50946 86.9165 2.49261H86.9841H91.5462H91.732C92.1376 2.50946 92.5262 2.61051 92.881 2.76209C93.2358 2.91367 93.54 3.13261 93.8103 3.38525C94.0807 3.63788 94.3003 3.92419 94.4693 4.26104C94.6382 4.59788 94.7396 4.95156 94.7734 5.32209H93.5231C93.4893 5.10314 93.4217 4.90104 93.3034 4.69893C93.202 4.49682 93.0669 4.3284 92.8979 4.17682C92.7289 4.02525 92.5431 3.90735 92.3403 3.82314C92.1376 3.73893 91.901 3.6884 91.6644 3.67156H91.6138H91.5462H91.4617H87.0686H86.9841H86.9165C86.6631 3.6884 86.4096 3.73893 86.173 3.83998C85.9365 3.94104 85.7337 4.07577 85.5648 4.24419C85.3958 4.41261 85.2606 4.61472 85.1593 4.85051C85.0579 5.06946 85.0072 5.32209 85.0072 5.57472V5.62525V5.55788V5.59156V5.62525V5.64209V5.67577V5.69261L85.0241 5.70946V5.74314V5.75998V5.79367C85.041 5.81051 85.041 5.81051 85.041 5.82735V5.86104V5.87788L85.0579 5.89472V5.9284V5.94525L85.0748 5.96209V5.99577C85.0917 6.01261 85.0917 6.01261 85.0917 6.02946C85.0917 6.0463 85.0917 6.0463 85.1086 6.0463L85.1255 6.06314C85.1424 6.07998 85.1424 6.09682 85.1593 6.11367C85.1593 6.13051 85.1762 6.14735 85.193 6.16419C85.193 6.18104 85.193 6.19788 85.2099 6.21472C85.2099 6.23156 85.2099 6.23156 85.2268 6.2484C85.2268 6.26525 85.2268 6.26525 85.2437 6.26525V6.28209L85.2606 6.31577C85.2775 6.31577 85.2775 6.33261 85.2775 6.34946H85.2944C85.2944 6.3663 85.2944 6.38314 85.3113 6.38314V6.39998L85.3282 6.41682L85.3451 6.43367V6.45051C85.362 6.46735 85.362 6.46735 85.362 6.48419H85.3789C85.3789 6.50104 85.3789 6.51788 85.3958 6.51788L85.4296 6.55156V6.5684L85.4465 6.60209L85.4803 6.63577L85.5479 6.70314L85.6155 6.78735C85.6324 6.78735 85.6324 6.78735 85.6324 6.78735C85.6324 6.78735 85.6324 6.78735 85.6493 6.78735L85.683 6.82104L85.7168 6.85472L85.7506 6.87156C85.7506 6.8884 85.7506 6.8884 85.7675 6.8884V6.90525C85.7844 6.90525 85.7844 6.90525 85.8013 6.92209L85.8182 6.93893H85.8351C85.8351 6.95577 85.8351 6.95577 85.852 6.95577L85.8689 6.97261L85.8858 6.98946C85.9027 6.98946 85.9027 6.98946 85.9196 7.0063C85.9365 7.0063 85.9365 7.0063 85.9365 7.0063C85.9365 7.0063 85.9365 7.0063 85.9534 7.0063L86.1562 7.12419C86.173 7.12419 86.2068 7.14104 86.2237 7.15788C86.2406 7.15788 86.2575 7.15788 86.2744 7.17472H86.3082L86.3251 7.19156H86.3589C86.3758 7.2084 86.3758 7.2084 86.3927 7.2084H86.4096C86.4096 7.22525 86.4265 7.22525 86.4434 7.22525C86.4603 7.22525 86.4603 7.22525 86.4772 7.24209H86.4941H86.5279L86.5448 7.25893H86.5786C86.5955 7.25893 86.6124 7.25893 86.6293 7.27577H86.6631C86.68 7.27577 86.6968 7.27577 86.7137 7.29261H86.7644H86.7982H86.8151C86.832 7.29261 86.8996 7.30946 87.0348 7.3263C87.1699 7.34314 87.3389 7.37682 87.5586 7.41051C87.7613 7.44419 88.0148 7.47788 88.302 7.5284C88.5893 7.57893 88.8765 7.62946 89.1806 7.67998C89.2989 7.69682 89.3665 7.71367 89.4172 7.73051C89.9579 7.81472 90.5155 7.91577 91.0562 8.03367C91.58 8.1684 92.0531 8.2863 92.4248 8.40419Z"/>
</mask>
<path d="M92.4248 8.40419C92.7627 8.50525 93.0838 8.63998 93.3541 8.82525C93.6414 9.01051 93.8779 9.22946 94.0807 9.49893C94.2834 9.75156 94.4524 10.0379 94.5707 10.3579C94.6889 10.6779 94.7565 10.9979 94.7565 11.3516C94.7565 11.7726 94.672 12.1768 94.5031 12.5473C94.3341 12.9179 94.0976 13.2547 93.8103 13.5242C93.5231 13.8105 93.1851 14.0295 92.7965 14.181C92.4079 14.3326 91.9855 14.4168 91.5462 14.4168H86.9841H86.9165C86.4772 14.4 86.0717 14.3158 85.6999 14.1642C85.3113 14.0126 84.9903 13.7937 84.703 13.5073C84.4158 13.2379 84.1961 12.9179 84.0272 12.5473C83.8582 12.1768 83.7737 11.7895 83.7737 11.3684H85.0241C85.0241 11.621 85.0748 11.8568 85.193 12.0926C85.2944 12.3116 85.4465 12.5137 85.6155 12.6821C85.7844 12.8505 86.0041 12.9852 86.2406 13.0863C86.4772 13.1873 86.7306 13.2379 87.001 13.2379H91.4786V13.221C91.4955 13.221 91.5124 13.221 91.5293 13.221C91.5293 13.221 91.5462 13.221 91.58 13.221C91.8503 13.221 92.1038 13.1705 92.3572 13.0695C92.5938 12.9684 92.8134 12.8337 92.9824 12.6652C93.1513 12.4968 93.3034 12.2779 93.4048 12.0589C93.5062 11.8231 93.5738 11.5873 93.5738 11.3179C93.5738 11.301 93.5738 11.2842 93.5569 11.2674V11.2842V11.2505V11.2337V11.2168V11.1831V11.1663V11.1495V11.1158C93.54 11.0989 93.54 11.0989 93.54 11.0821C93.54 11.0316 93.54 11.0147 93.5231 10.9979V10.9642V10.9474C93.5231 10.9305 93.5231 10.9305 93.5062 10.9305C93.5062 10.9305 93.4893 10.9305 93.4893 10.9137V10.88L93.4724 10.8631V10.8295C93.4724 10.8126 93.4724 10.8126 93.4555 10.7958C93.4555 10.7789 93.4555 10.7621 93.4386 10.7621C93.4386 10.7621 93.4386 10.7452 93.4386 10.7284C93.4217 10.7284 93.4217 10.7284 93.4217 10.7116C93.4217 10.6947 93.4217 10.6947 93.4048 10.6947C93.4048 10.6947 93.3879 10.6779 93.3879 10.661C93.371 10.661 93.371 10.661 93.371 10.6442V10.6274C93.3541 10.6105 93.3541 10.6105 93.3541 10.5937C93.3372 10.5768 93.3372 10.5768 93.3372 10.56C93.3203 10.5431 93.3203 10.5431 93.3203 10.5263C93.3034 10.5095 93.3034 10.4926 93.2865 10.4758C93.2696 10.4589 93.2696 10.4421 93.2527 10.4252L93.2358 10.4084V10.3916L93.202 10.3579L93.1851 10.3242L93.1683 10.2905L93.1176 10.24L93.0838 10.2063C93.0838 10.1895 93.0838 10.1895 93.0669 10.1726L93.0331 10.1389L92.9993 10.1052L92.9824 10.0716C92.9655 10.0716 92.9655 10.0716 92.9655 10.0716C92.9655 10.0716 92.9655 10.0716 92.9486 10.0716C92.9317 10.0547 92.9317 10.0547 92.9148 10.0379C92.9148 10.021 92.8979 10.021 92.8641 10.0042L92.8472 9.98735L92.8134 9.95367C92.7965 9.95367 92.7965 9.95367 92.7965 9.95367C92.7965 9.95367 92.7965 9.95367 92.7796 9.95367L92.7458 9.91998L92.712 9.90314C92.6951 9.8863 92.6613 9.86946 92.6445 9.85261L92.6107 9.83577C92.6107 9.81893 92.5938 9.81893 92.5769 9.81893V9.80209L92.5431 9.78525C92.5262 9.78525 92.5262 9.78525 92.5262 9.78525C92.5262 9.78525 92.5262 9.78525 92.5093 9.78525C92.4924 9.7684 92.4586 9.75156 92.4417 9.75156C92.391 9.73472 92.3741 9.71788 92.3572 9.71788C92.3403 9.70104 92.3403 9.70103 92.3234 9.70103C92.3065 9.68419 92.3065 9.68419 92.2896 9.68419C92.2727 9.66735 92.2727 9.66735 92.2558 9.66735H92.2389C92.222 9.65051 92.222 9.65051 92.2051 9.65051C92.1882 9.63367 92.1714 9.63367 92.1545 9.63367C92.1545 9.63367 92.1375 9.63367 92.1038 9.61682C92.0869 9.61682 92.0869 9.61682 92.07 9.61682C92.0531 9.61682 92.0531 9.61682 92.0362 9.61682H91.9855V9.59998H91.9517C91.7489 9.54946 91.411 9.46525 90.9548 9.38104C90.4986 9.27998 89.9917 9.19577 89.451 9.09472C89.3665 9.07788 89.2651 9.06104 89.1806 9.04419C89.0962 9.02735 88.9948 9.01051 88.9103 8.99367C88.7582 8.97682 88.5893 8.94314 88.4372 8.90946C88.2851 8.87577 88.1162 8.84209 87.9641 8.82525C87.9472 8.82525 87.9472 8.82525 87.9303 8.82525C87.9303 8.82525 87.9134 8.82525 87.8965 8.82525C87.8458 8.82525 87.7951 8.8084 87.7275 8.79156H87.6937H87.6599C87.6431 8.77472 87.6262 8.77472 87.6093 8.77472C87.5924 8.77472 87.5755 8.77472 87.5586 8.77472C87.5417 8.77472 87.5248 8.77472 87.5079 8.77472C87.491 8.77472 87.4741 8.77472 87.4572 8.75788H87.3896C87.2713 8.74103 87.1531 8.72419 87.0517 8.70735C86.9503 8.69051 86.8489 8.67367 86.7644 8.65683C86.6631 8.63998 86.5617 8.62314 86.4772 8.6063C86.3927 8.58946 86.3251 8.58946 86.2575 8.57261C86.1899 8.55577 86.1393 8.55577 86.0886 8.53893C85.7506 8.45472 85.4296 8.31998 85.1593 8.13472C84.872 7.94946 84.6355 7.73051 84.4327 7.46104C84.2299 7.2084 84.061 6.92209 83.9427 6.60209C83.8244 6.28209 83.7568 5.94525 83.7568 5.59156C83.7568 5.17051 83.8413 4.78314 84.0103 4.39577C84.1793 4.02525 84.3989 3.70525 84.6861 3.41893C84.9734 3.14946 85.2944 2.93051 85.683 2.76209C86.0717 2.59367 86.4772 2.50946 86.9165 2.49261H86.9841H91.5462H91.732C92.1376 2.50946 92.5262 2.61051 92.881 2.76209C93.2358 2.91367 93.54 3.13261 93.8103 3.38525C94.0807 3.63788 94.3003 3.92419 94.4693 4.26104C94.6382 4.59788 94.7396 4.95156 94.7734 5.32209H93.5231C93.4893 5.10314 93.4217 4.90104 93.3034 4.69893C93.202 4.49682 93.0669 4.3284 92.8979 4.17682C92.7289 4.02525 92.5431 3.90735 92.3403 3.82314C92.1376 3.73893 91.901 3.6884 91.6644 3.67156H91.6138H91.5462H91.4617H87.0686H86.9841H86.9165C86.6631 3.6884 86.4096 3.73893 86.173 3.83998C85.9365 3.94104 85.7337 4.07577 85.5648 4.24419C85.3958 4.41261 85.2606 4.61472 85.1593 4.85051C85.0579 5.06946 85.0072 5.32209 85.0072 5.57472V5.62525V5.55788V5.59156V5.62525V5.64209V5.67577V5.69261L85.0241 5.70946V5.74314V5.75998V5.79367C85.041 5.81051 85.041 5.81051 85.041 5.82735V5.86104V5.87788L85.0579 5.89472V5.9284V5.94525L85.0748 5.96209V5.99577C85.0917 6.01261 85.0917 6.01261 85.0917 6.02946C85.0917 6.0463 85.0917 6.0463 85.1086 6.0463L85.1255 6.06314C85.1424 6.07998 85.1424 6.09682 85.1593 6.11367C85.1593 6.13051 85.1762 6.14735 85.193 6.16419C85.193 6.18104 85.193 6.19788 85.2099 6.21472C85.2099 6.23156 85.2099 6.23156 85.2268 6.2484C85.2268 6.26525 85.2268 6.26525 85.2437 6.26525V6.28209L85.2606 6.31577C85.2775 6.31577 85.2775 6.33261 85.2775 6.34946H85.2944C85.2944 6.3663 85.2944 6.38314 85.3113 6.38314V6.39998L85.3282 6.41682L85.3451 6.43367V6.45051C85.362 6.46735 85.362 6.46735 85.362 6.48419H85.3789C85.3789 6.50104 85.3789 6.51788 85.3958 6.51788L85.4296 6.55156V6.5684L85.4465 6.60209L85.4803 6.63577L85.5479 6.70314L85.6155 6.78735C85.6324 6.78735 85.6324 6.78735 85.6324 6.78735C85.6324 6.78735 85.6324 6.78735 85.6493 6.78735L85.683 6.82104L85.7168 6.85472L85.7506 6.87156C85.7506 6.8884 85.7506 6.8884 85.7675 6.8884V6.90525C85.7844 6.90525 85.7844 6.90525 85.8013 6.92209L85.8182 6.93893H85.8351C85.8351 6.95577 85.8351 6.95577 85.852 6.95577L85.8689 6.97261L85.8858 6.98946C85.9027 6.98946 85.9027 6.98946 85.9196 7.0063C85.9365 7.0063 85.9365 7.0063 85.9365 7.0063C85.9365 7.0063 85.9365 7.0063 85.9534 7.0063L86.1562 7.12419C86.173 7.12419 86.2068 7.14104 86.2237 7.15788C86.2406 7.15788 86.2575 7.15788 86.2744 7.17472H86.3082L86.3251 7.19156H86.3589C86.3758 7.2084 86.3758 7.2084 86.3927 7.2084H86.4096C86.4096 7.22525 86.4265 7.22525 86.4434 7.22525C86.4603 7.22525 86.4603 7.22525 86.4772 7.24209H86.4941H86.5279L86.5448 7.25893H86.5786C86.5955 7.25893 86.6124 7.25893 86.6293 7.27577H86.6631C86.68 7.27577 86.6968 7.27577 86.7137 7.29261H86.7644H86.7982H86.8151C86.832 7.29261 86.8996 7.30946 87.0348 7.3263C87.1699 7.34314 87.3389 7.37682 87.5586 7.41051C87.7613 7.44419 88.0148 7.47788 88.302 7.5284C88.5893 7.57893 88.8765 7.62946 89.1806 7.67998C89.2989 7.69682 89.3665 7.71367 89.4172 7.73051C89.9579 7.81472 90.5155 7.91577 91.0562 8.03367C91.58 8.1684 92.0531 8.2863 92.4248 8.40419Z" fill="#808080" stroke="#808080" stroke-width="10" mask="url(#path-5-inside-1_279_79)"/>
<mask id="path-6-inside-2_279_79" fill="white">
<path d="M107.091 9.01052H101.853V14.4505H100.586V2.39157H108.308C108.764 2.42526 109.186 2.52631 109.592 2.72841C109.997 2.91368 110.352 3.16631 110.639 3.46947C110.927 3.77262 111.163 4.10947 111.349 4.49683C111.518 4.8842 111.619 5.28841 111.619 5.70947C111.619 6.13052 111.535 6.51789 111.383 6.90525C111.231 7.29262 110.994 7.61262 110.724 7.91578C110.437 8.2021 110.116 8.45473 109.727 8.65683C109.338 8.85894 108.933 8.97683 108.494 9.0442H107.091V9.01052ZM108.274 7.84841C108.561 7.81473 108.831 7.73052 109.085 7.61262C109.338 7.47789 109.558 7.32631 109.744 7.14104C109.93 6.95578 110.065 6.73683 110.183 6.4842C110.301 6.23157 110.352 5.97894 110.352 5.69262C110.352 5.40631 110.301 5.13683 110.183 4.8842C110.065 4.63157 109.913 4.41262 109.71 4.21052C109.507 4.02525 109.271 3.85683 109 3.75578C108.73 3.63789 108.443 3.57052 108.139 3.55368H101.87V7.84841H108.274Z"/>
</mask>
<path d="M107.091 9.01052H101.853V14.4505H100.586V2.39157H108.308C108.764 2.42526 109.186 2.52631 109.592 2.72841C109.997 2.91368 110.352 3.16631 110.639 3.46947C110.927 3.77262 111.163 4.10947 111.349 4.49683C111.518 4.8842 111.619 5.28841 111.619 5.70947C111.619 6.13052 111.535 6.51789 111.383 6.90525C111.231 7.29262 110.994 7.61262 110.724 7.91578C110.437 8.2021 110.116 8.45473 109.727 8.65683C109.338 8.85894 108.933 8.97683 108.494 9.0442H107.091V9.01052ZM108.274 7.84841C108.561 7.81473 108.831 7.73052 109.085 7.61262C109.338 7.47789 109.558 7.32631 109.744 7.14104C109.93 6.95578 110.065 6.73683 110.183 6.4842C110.301 6.23157 110.352 5.97894 110.352 5.69262C110.352 5.40631 110.301 5.13683 110.183 4.8842C110.065 4.63157 109.913 4.41262 109.71 4.21052C109.507 4.02525 109.271 3.85683 109 3.75578C108.73 3.63789 108.443 3.57052 108.139 3.55368H101.87V7.84841H108.274Z" fill="#808080"/>
<path d="M107.091 9.01052H112.091V4.01052H107.091V9.01052ZM101.853 9.01052V4.01052H96.8532V9.01052H101.853ZM101.853 14.4505V19.4505H106.853V14.4505H101.853ZM100.586 14.4505H95.5859V19.4505H100.586V14.4505ZM100.586 2.39157V-2.60843H95.5859V2.39157H100.586ZM108.308 2.39157L108.676 -2.59486L108.492 -2.60843H108.308V2.39157ZM109.592 2.72841L107.362 7.20343L107.437 7.24115L107.514 7.27628L109.592 2.72841ZM111.349 4.49683L115.932 2.49778L115.896 2.41515L115.857 2.33388L111.349 4.49683ZM110.724 7.91578L114.254 11.457L114.358 11.3533L114.456 11.2436L110.724 7.91578ZM108.494 9.0442V14.0442H108.875L109.251 13.9864L108.494 9.0442ZM107.091 9.0442H102.091V14.0442H107.091V9.0442ZM109.085 7.61262L111.194 12.1462L111.314 12.09L111.432 12.0275L109.085 7.61262ZM109.71 4.21052L113.24 0.669275L113.163 0.592588L113.083 0.519314L109.71 4.21052ZM109 3.75578L107.002 8.33894L107.124 8.39243L107.25 8.43929L109 3.75578ZM108.139 3.55368L108.415 -1.43868L108.277 -1.44632H108.139V3.55368ZM101.87 3.55368V-1.44632H96.8701V3.55368H101.87ZM101.87 7.84841H96.8701V12.8484H101.87V7.84841ZM107.091 4.01052H101.853V14.0105H107.091V4.01052ZM96.8532 9.01052V14.4505H106.853V9.01052H96.8532ZM101.853 9.45052H100.586V19.4505H101.853V9.45052ZM105.586 14.4505V2.39157H95.5859V14.4505H105.586ZM100.586 7.39157H108.308V-2.60843H100.586V7.39157ZM107.94 7.378C107.914 7.37608 107.837 7.36836 107.726 7.33994C107.612 7.31068 107.487 7.2658 107.362 7.20343L111.822 -1.74661C110.737 -2.28745 109.661 -2.52211 108.676 -2.59486L107.94 7.378ZM107.514 7.27628C107.361 7.20633 107.183 7.0906 107.01 6.90844L114.269 0.0304871C113.522 -0.757986 112.634 -1.37898 111.67 -1.81946L107.514 7.27628ZM107.01 6.90844C106.988 6.88503 106.957 6.84896 106.924 6.80121C106.89 6.75314 106.863 6.70451 106.841 6.65979L115.857 2.33388C115.436 1.457 114.897 0.693377 114.269 0.0304871L107.01 6.90844ZM106.766 6.49589C106.718 6.38571 106.619 6.108 106.619 5.70947H116.619C116.619 4.46883 116.318 3.3827 115.932 2.49778L106.766 6.49589ZM106.619 5.70947C106.619 5.57973 106.633 5.44903 106.658 5.32634C106.682 5.20629 106.712 5.1208 106.729 5.07815L116.037 8.73236C116.384 7.84799 116.619 6.84111 116.619 5.70947H106.619ZM106.729 5.07815C106.883 4.68461 107.076 4.49402 106.992 4.58797L114.456 11.2436C114.913 10.7312 115.578 9.90064 116.037 8.73236L106.729 5.07815ZM107.194 4.37454C107.19 4.37877 107.21 4.35804 107.253 4.32552C107.298 4.29188 107.355 4.25482 107.42 4.22085L112.034 13.0928C112.955 12.6137 113.679 12.0304 114.254 11.457L107.194 4.37454ZM107.42 4.22085C107.508 4.17498 107.591 4.14322 107.656 4.12293C107.719 4.1035 107.751 4.09962 107.736 4.10197L109.251 13.9864C110.113 13.8543 111.064 13.597 112.034 13.0928L107.42 4.22085ZM108.494 4.0442H107.091V14.0442H108.494V4.0442ZM112.091 9.0442V9.01052H102.091V9.0442H112.091ZM108.856 12.8144C109.747 12.7099 110.532 12.4542 111.194 12.1462L106.976 3.07909C107.131 3.00688 107.375 2.91957 107.692 2.88244L108.856 12.8144ZM111.432 12.0275C111.998 11.7265 112.653 11.3013 113.274 10.6823L106.214 3.5998C106.463 3.35127 106.679 3.22928 106.738 3.19771L111.432 12.0275ZM113.274 10.6823C114.012 9.94656 114.446 9.17206 114.712 8.60424L105.655 4.36416C105.684 4.3016 105.848 3.965 106.214 3.5998L113.274 10.6823ZM114.712 8.60424C115.173 7.61815 115.352 6.63036 115.352 5.69262H105.352C105.352 5.53668 105.366 5.32261 105.419 5.07179C105.473 4.817 105.555 4.57787 105.655 4.36416L114.712 8.60424ZM115.352 5.69262C115.352 4.80079 115.19 3.78665 114.712 2.76416L105.655 7.00425C105.413 6.48702 105.352 6.01183 105.352 5.69262H115.352ZM114.712 2.76416C114.35 1.9922 113.863 1.29022 113.24 0.669275L106.18 7.75176C106.082 7.65377 105.98 7.53499 105.883 7.39674C105.786 7.25863 105.711 7.12435 105.655 7.00425L114.712 2.76416ZM113.083 0.519314C112.589 0.0685046 111.815 -0.530236 110.751 -0.927725L107.25 8.43929C106.727 8.2439 106.425 7.98201 106.337 7.90172L113.083 0.519314ZM110.999 -0.827378C110.166 -1.1908 109.293 -1.39004 108.415 -1.43868L107.862 8.54603C107.592 8.53108 107.294 8.46657 107.002 8.33894L110.999 -0.827378ZM108.139 -1.44632H101.87V8.55368H108.139V-1.44632ZM96.8701 3.55368V7.84841H106.87V3.55368H96.8701ZM101.87 12.8484H108.274V2.84841H101.87V12.8484Z" fill="#808080" mask="url(#path-6-inside-2_279_79)"/>
<mask id="path-8-inside-3_279_79" fill="white">
<path d="M132.132 14.4673H130.763L128.33 9.91998H121.352L118.918 14.4673H117.55L124.089 2.2063H124.106H124.511H124.832H125.153H125.542H125.559L132.132 14.4673ZM121.977 8.70735H127.688L124.849 3.3684H124.832L121.977 8.70735Z"/>
</mask>
<path d="M132.132 14.4673H130.763L128.33 9.91998H121.352L118.918 14.4673H117.55L124.089 2.2063H124.106H124.511H124.832H125.153H125.542H125.559L132.132 14.4673ZM121.977 8.70735H127.688L124.849 3.3684H124.832L121.977 8.70735Z" fill="#808080"/>
<path d="M132.132 14.4673V19.4674H140.485L136.538 12.105L132.132 14.4673ZM130.763 14.4673L126.354 16.8262L127.768 19.4674H130.763V14.4673ZM128.33 9.91998L132.738 7.56112L131.325 4.91998H128.33V9.91998ZM121.352 9.91998V4.91998H118.356L116.943 7.56112L121.352 9.91998ZM118.918 14.4673V19.4674H121.914L123.327 16.8262L118.918 14.4673ZM117.55 14.4673L113.138 12.1145L109.217 19.4674H117.55V14.4673ZM124.089 2.2063V-2.7937H121.089L119.677 -0.146575L124.089 2.2063ZM125.559 2.2063L129.966 -0.156026L128.552 -2.7937H125.559V2.2063ZM121.977 8.70735L117.568 6.34921L113.632 13.7073H121.977V8.70735ZM127.688 8.70735V13.7073H136.009L132.103 6.36008L127.688 8.70735ZM124.849 3.3684L129.264 1.02114L127.854 -1.6316H124.849V3.3684ZM124.832 3.3684V-1.6316H121.836L120.423 1.01027L124.832 3.3684ZM132.132 9.46735H130.763V19.4674H132.132V9.46735ZM135.172 12.1085L132.738 7.56112L123.921 12.2788L126.354 16.8262L135.172 12.1085ZM128.33 4.91998H121.352V14.92H128.33V4.91998ZM116.943 7.56112L114.51 12.1085L123.327 16.8262L125.76 12.2788L116.943 7.56112ZM118.918 9.46735H117.55V19.4674H118.918V9.46735ZM121.962 16.8202L128.501 4.55917L119.677 -0.146575L113.138 12.1145L121.962 16.8202ZM124.089 7.2063H124.106V-2.7937H124.089V7.2063ZM124.106 7.2063H124.511V-2.7937H124.106V7.2063ZM124.511 7.2063H124.832V-2.7937H124.511V7.2063ZM124.832 7.2063H125.153V-2.7937H124.832V7.2063ZM125.153 7.2063H125.542V-2.7937H125.153V7.2063ZM125.542 7.2063H125.559V-2.7937H125.542V7.2063ZM121.152 4.56862L127.725 16.8297L136.538 12.105L129.966 -0.156026L121.152 4.56862ZM121.977 13.7073H127.688V3.70735H121.977V13.7073ZM132.103 6.36008L129.264 1.02114L120.434 5.71567L123.273 11.0546L132.103 6.36008ZM124.849 -1.6316H124.832V8.3684H124.849V-1.6316ZM120.423 1.01027L117.568 6.34921L126.386 11.0655L129.241 5.72654L120.423 1.01027Z" fill="#808080" mask="url(#path-8-inside-3_279_79)"/>
<mask id="path-10-inside-4_279_79" fill="white">
<path d="M140.022 13.221H141.881V14.4168H137.065V13.221H138.924V3.57052H137.065V2.37473H141.881V3.57052H140.022V13.221Z"/>
</mask>
<path d="M140.022 13.221H141.881V14.4168H137.065V13.221H138.924V3.57052H137.065V2.37473H141.881V3.57052H140.022V13.221Z" fill="#808080"/>
<path d="M140.022 13.221H135.022V18.221H140.022V13.221ZM141.881 13.221H146.881V8.22104H141.881V13.221ZM141.881 14.4168V19.4168H146.881V14.4168H141.881ZM137.065 14.4168H132.065V19.4168H137.065V14.4168ZM137.065 13.221V8.22104H132.065V13.221H137.065ZM138.924 13.221V18.221H143.924V13.221H138.924ZM138.924 3.57052H143.924V-1.42948H138.924V3.57052ZM137.065 3.57052H132.065V8.57052H137.065V3.57052ZM137.065 2.37473V-2.62527H132.065V2.37473H137.065ZM141.881 2.37473H146.881V-2.62527H141.881V2.37473ZM141.881 3.57052V8.57052H146.881V3.57052H141.881ZM140.022 3.57052V-1.42948H135.022V3.57052H140.022ZM140.022 18.221H141.881V8.22104H140.022V18.221ZM136.881 13.221V14.4168H146.881V13.221H136.881ZM141.881 9.41683H137.065V19.4168H141.881V9.41683ZM142.065 14.4168V13.221H132.065V14.4168H142.065ZM137.065 18.221H138.924V8.22104H137.065V18.221ZM143.924 13.221V3.57052H133.924V13.221H143.924ZM138.924 -1.42948H137.065V8.57052H138.924V-1.42948ZM142.065 3.57052V2.37473H132.065V3.57052H142.065ZM137.065 7.37473H141.881V-2.62527H137.065V7.37473ZM136.881 2.37473V3.57052H146.881V2.37473H136.881ZM141.881 -1.42948H140.022V8.57052H141.881V-1.42948ZM135.022 3.57052V13.221H145.022V3.57052H135.022Z" fill="#808080" mask="url(#path-10-inside-4_279_79)"/>
<mask id="path-12-inside-5_279_79" fill="white">
<path d="M159.944 14.4842H158.71H158.693L148.893 4.10946V14.4842H147.677V2.35788H148.91L158.727 12.7326V2.37472H159.961V14.4842H159.944Z"/>
</mask>
<path d="M159.944 14.4842H158.71H158.693L148.893 4.10946V14.4842H147.677V2.35788H148.91L158.727 12.7326V2.37472H159.961V14.4842H159.944Z" fill="#808080"/>
<path d="M158.693 14.4842L155.059 17.9176L156.538 19.4842H158.693V14.4842ZM148.893 4.10946L152.528 0.676033L143.893 -8.46512V4.10946H148.893ZM148.893 14.4842V19.4842H153.893V14.4842H148.893ZM147.677 14.4842H142.677V19.4842H147.677V14.4842ZM147.677 2.35788V-2.64212H142.677V2.35788H147.677ZM148.91 2.35788L152.542 -1.07867L151.063 -2.64212H148.91V2.35788ZM158.727 12.7326L155.095 16.1692L163.727 25.2915V12.7326H158.727ZM158.727 2.37472V-2.62528H153.727V2.37472H158.727ZM159.961 2.37472H164.961V-2.62528H159.961V2.37472ZM159.961 14.4842V19.4842H164.961V14.4842H159.961ZM159.944 9.4842H158.71V19.4842H159.944V9.4842ZM158.71 9.4842H158.693V19.4842H158.71V9.4842ZM162.328 11.0508L152.528 0.676033L145.259 7.54288L155.059 17.9176L162.328 11.0508ZM143.893 4.10946V14.4842H153.893V4.10946H143.893ZM148.893 9.4842H147.677V19.4842H148.893V9.4842ZM152.677 14.4842V2.35788H142.677V14.4842H152.677ZM147.677 7.35788H148.91V-2.64212H147.677V7.35788ZM145.278 5.79443L155.095 16.1692L162.359 9.29607L152.542 -1.07867L145.278 5.79443ZM163.727 12.7326V2.37472H153.727V12.7326H163.727ZM158.727 7.37472H159.961V-2.62528H158.727V7.37472ZM154.961 2.37472V14.4842H164.961V2.37472H154.961ZM159.961 9.4842H159.944V19.4842H159.961V9.4842Z" fill="#808080" mask="url(#path-12-inside-5_279_79)"/>
<path d="M94.4017 33.8526H93.1683V28.2274H84.9903V33.8526H83.7568V21.7263H84.9903V27.0316H93.1852V21.7263H94.4186V33.8526H94.4017Z" fill="#808080"/>
<path d="M106.956 21.7432C107.834 21.7432 108.645 21.8947 109.423 22.2147C110.2 22.5347 110.876 22.9726 111.433 23.5116C112.008 24.0505 112.464 24.6905 112.802 25.4316C113.14 26.1558 113.309 26.9474 113.309 27.7895C113.309 28.6316 113.14 29.4063 112.802 30.1474C112.464 30.8716 112.008 31.5116 111.433 32.0674C110.859 32.6063 110.183 33.0442 109.423 33.3642C108.645 33.6842 107.834 33.8358 106.956 33.8358C106.077 33.8358 105.266 33.6842 104.489 33.3642C103.728 33.0442 103.053 32.6063 102.478 32.0674C101.904 31.5284 101.447 30.8884 101.109 30.1474C100.772 29.4232 100.603 28.6316 100.603 27.7895C100.603 26.9474 100.772 26.1726 101.109 25.4316C101.447 24.7074 101.904 24.0674 102.478 23.5116C103.053 22.9726 103.728 22.5347 104.489 22.2147C105.266 21.8947 106.094 21.7432 106.956 21.7432ZM106.956 32.7074C107.665 32.7074 108.341 32.5726 108.966 32.32C109.592 32.0674 110.149 31.7137 110.605 31.259C111.078 30.8211 111.433 30.299 111.721 29.6926C111.991 29.0863 112.126 28.4463 112.126 27.7726C112.126 27.099 111.991 26.459 111.721 25.8526C111.45 25.2632 111.078 24.7411 110.605 24.2863C110.132 23.8484 109.592 23.4947 108.966 23.2253C108.341 22.9726 107.665 22.8379 106.956 22.8379C106.246 22.8379 105.57 22.9726 104.945 23.2253C104.32 23.4779 103.779 23.8316 103.306 24.2863C102.833 24.7242 102.478 25.2463 102.191 25.8526C101.92 26.4421 101.785 27.0821 101.785 27.7726C101.785 28.4463 101.92 29.1032 102.191 29.6926C102.461 30.299 102.833 30.8211 103.306 31.259C103.779 31.6969 104.32 32.0505 104.945 32.32C105.57 32.5726 106.246 32.7074 106.956 32.7074Z" fill="#808080"/>
<path d="M130.29 21.7432V28.6316C130.29 29.339 130.138 30.0126 129.851 30.6526C129.563 31.2926 129.175 31.8316 128.668 32.3032C128.161 32.7747 127.586 33.1453 126.911 33.4147C126.235 33.6842 125.525 33.819 124.765 33.819C123.988 33.819 123.278 33.6842 122.602 33.4147C121.926 33.1453 121.352 32.7747 120.845 32.3032C120.338 31.8316 119.949 31.2758 119.662 30.6526C119.375 30.0126 119.223 29.339 119.223 28.6316V21.7432H120.439V28.2442C120.456 28.3116 120.456 28.379 120.456 28.4463C120.456 28.5137 120.456 28.5811 120.456 28.6484C120.473 29.2042 120.591 29.7263 120.811 30.2316C121.031 30.72 121.335 31.1411 121.723 31.5116C122.112 31.8821 122.568 32.1684 123.075 32.3705C123.599 32.5895 124.156 32.6905 124.748 32.6905C125.339 32.6905 125.897 32.5895 126.421 32.3705C126.944 32.1516 127.401 31.8653 127.806 31.5116C128.212 31.1579 128.499 30.72 128.735 30.2316C128.955 29.7432 129.073 29.2211 129.073 28.6484V28.3621V28.2442V21.7432H130.29Z" fill="#808080"/>
<path d="M144.889 27.7726C145.227 27.8737 145.548 28.0084 145.818 28.1937C146.105 28.3789 146.342 28.5979 146.545 28.8674C146.747 29.12 146.916 29.4063 147.035 29.7263C147.153 30.0463 147.22 30.3663 147.22 30.72C147.22 31.141 147.136 31.5453 146.967 31.9158C146.798 32.2863 146.561 32.6232 146.274 32.8926C145.987 33.1789 145.649 33.3979 145.26 33.5495C144.872 33.701 144.449 33.7853 144.01 33.7853H139.448H139.38C138.941 33.7684 138.536 33.6842 138.164 33.5326C137.775 33.3811 137.454 33.1621 137.167 32.8758C136.88 32.6063 136.66 32.2863 136.491 31.9158C136.322 31.5453 136.238 31.1579 136.238 30.7368H137.488C137.488 30.9895 137.539 31.2253 137.657 31.461C137.758 31.68 137.91 31.8821 138.079 32.0505C138.248 32.2189 138.468 32.3537 138.705 32.4547C138.941 32.5558 139.195 32.6063 139.465 32.6063H143.942V32.5895C143.959 32.5895 143.976 32.5895 143.993 32.5895C143.993 32.5895 144.01 32.5895 144.044 32.5895C144.314 32.5895 144.568 32.5389 144.821 32.4379C145.058 32.3368 145.277 32.2021 145.446 32.0337C145.615 31.8653 145.767 31.6463 145.869 31.4274C145.97 31.1916 146.038 30.9558 146.038 30.6863C146.038 30.6695 146.038 30.6526 146.021 30.6358V30.6526V30.6189V30.6021V30.5853V30.5516V30.5347V30.5179V30.4842C146.004 30.4674 146.004 30.4674 146.004 30.4505C146.004 30.4 146.004 30.3832 145.987 30.3663V30.3326V30.3158C145.987 30.2989 145.987 30.2989 145.97 30.2989C145.97 30.2989 145.953 30.2989 145.953 30.2821V30.2484L145.936 30.2316V30.1979C145.936 30.181 145.936 30.181 145.919 30.1642C145.919 30.1474 145.919 30.1305 145.902 30.1305C145.902 30.1305 145.902 30.1137 145.902 30.0968C145.886 30.0968 145.886 30.0968 145.886 30.08C145.886 30.0632 145.886 30.0632 145.869 30.0632C145.869 30.0632 145.852 30.0463 145.852 30.0295C145.835 30.0295 145.835 30.0295 145.835 30.0126V29.9958C145.818 29.9789 145.818 29.9789 145.818 29.9621C145.801 29.9453 145.801 29.9453 145.801 29.9284C145.784 29.9116 145.784 29.9116 145.784 29.8947C145.767 29.8779 145.767 29.861 145.75 29.8442C145.733 29.8274 145.733 29.8105 145.717 29.7937L145.7 29.7768V29.76L145.666 29.7263L145.649 29.6926L145.632 29.6589L145.581 29.6084L145.548 29.5747C145.548 29.5579 145.548 29.5579 145.531 29.541L145.48 29.4737L145.446 29.44L145.429 29.4063C145.412 29.4063 145.412 29.4063 145.412 29.4063C145.412 29.4063 145.412 29.4063 145.396 29.4063C145.379 29.3895 145.379 29.3895 145.362 29.3726C145.362 29.3558 145.345 29.3558 145.311 29.3389V29.3053L145.277 29.2716C145.26 29.2716 145.26 29.2716 145.26 29.2716C145.26 29.2716 145.26 29.2716 145.243 29.2716L145.21 29.2379L145.176 29.221C145.159 29.2042 145.125 29.1874 145.108 29.1705L145.075 29.1537C145.075 29.1368 145.058 29.1368 145.041 29.1368V29.12L145.007 29.1032C144.99 29.1032 144.99 29.1032 144.99 29.1032C144.99 29.1032 144.99 29.1032 144.973 29.1032C144.956 29.0863 144.922 29.0695 144.906 29.0695C144.855 29.0526 144.838 29.0358 144.821 29.0358C144.804 29.0189 144.804 29.0189 144.787 29.0189C144.77 29.0021 144.77 29.0021 144.753 29.0021C144.737 28.9853 144.737 28.9853 144.72 28.9853H144.703C144.686 28.9684 144.686 28.9684 144.669 28.9684C144.652 28.9516 144.635 28.9516 144.618 28.9516C144.618 28.9516 144.601 28.9516 144.568 28.9347C144.551 28.9347 144.551 28.9347 144.534 28.9347C144.517 28.9347 144.517 28.9347 144.5 28.9347H144.466V28.9179H144.432C144.23 28.8674 143.892 28.7832 143.436 28.6989C142.979 28.5979 142.472 28.5137 141.932 28.4126C141.847 28.3958 141.746 28.3789 141.661 28.3621C141.577 28.3453 141.476 28.3284 141.391 28.3116C141.239 28.2947 141.07 28.261 140.918 28.2274C140.766 28.1937 140.597 28.16 140.445 28.1432C140.428 28.1432 140.428 28.1432 140.411 28.1432C140.411 28.1432 140.394 28.1432 140.377 28.1432C140.327 28.1432 140.276 28.1263 140.208 28.1095H140.158H140.124C140.107 28.0926 140.09 28.0926 140.073 28.0926C140.056 28.0926 140.039 28.0926 140.022 28.0926C140.006 28.0926 139.989 28.0926 139.972 28.0926C139.955 28.0926 139.938 28.0926 139.921 28.0758H139.853C139.735 28.0589 139.617 28.0421 139.516 28.0253C139.414 28.0084 139.313 27.9916 139.228 27.9747C139.127 27.9579 139.026 27.941 138.941 27.9242C138.857 27.9074 138.789 27.9074 138.721 27.8905C138.654 27.8737 138.603 27.8737 138.552 27.8568C138.214 27.7726 137.893 27.6379 137.623 27.4526C137.336 27.2674 137.099 27.0484 136.897 26.7789C136.694 26.5263 136.525 26.24 136.407 25.92C136.288 25.6 136.221 25.2631 136.221 24.9095C136.221 24.4884 136.305 24.101 136.474 23.7137C136.643 23.3431 136.863 23.0231 137.15 22.7368C137.437 22.4674 137.758 22.2484 138.147 22.08C138.536 21.9116 138.941 21.8274 139.38 21.8105H139.448H144.01H144.196C144.601 21.8274 144.99 21.9284 145.345 22.08C145.7 22.2316 146.004 22.4505 146.274 22.7031C146.545 22.9558 146.764 23.2421 146.933 23.5789C147.102 23.9158 147.203 24.2695 147.237 24.64H145.987C145.953 24.421 145.886 24.2189 145.767 24.0168C145.666 23.8147 145.531 23.6463 145.362 23.4947C145.193 23.3431 145.007 23.2253 144.804 23.141C144.601 23.0568 144.365 23.0063 144.128 22.9895H144.078H144.01H143.926H139.532H139.448H139.38C139.127 23.0063 138.873 23.0568 138.637 23.1579C138.4 23.2589 138.198 23.3937 138.029 23.5621C137.86 23.7305 137.724 23.9326 137.623 24.1684C137.522 24.3874 137.471 24.64 137.471 24.8926V24.9432V24.9937V25.0274V25.061V25.0779V25.1116V25.1284L137.488 25.1453V25.1789V25.1958V25.2295C137.505 25.2463 137.505 25.2463 137.505 25.2631V25.2968V25.3137L137.522 25.3305V25.3642V25.381L137.539 25.3979V25.4316C137.556 25.4484 137.556 25.4484 137.556 25.4653C137.556 25.4821 137.556 25.4821 137.572 25.4821L137.589 25.4989C137.606 25.5158 137.606 25.5326 137.623 25.5495C137.623 25.5663 137.64 25.5832 137.657 25.6C137.657 25.6168 137.657 25.6337 137.674 25.6505C137.674 25.6674 137.674 25.6674 137.691 25.6842C137.691 25.701 137.691 25.701 137.708 25.701V25.7179L137.724 25.7516C137.741 25.7516 137.741 25.7684 137.741 25.7853H137.758C137.758 25.8021 137.758 25.8189 137.775 25.8189V25.8358L137.792 25.8526L137.809 25.8695V25.8863C137.826 25.9031 137.826 25.9031 137.826 25.92H137.843C137.843 25.9368 137.843 25.9537 137.86 25.9537L137.893 25.9874V26.0042L137.91 26.0379L137.944 26.0716L138.012 26.1389L138.079 26.2231C138.096 26.2231 138.096 26.2231 138.096 26.2231C138.096 26.2231 138.096 26.2231 138.113 26.2231L138.147 26.2568L138.181 26.2905L138.214 26.3074C138.214 26.3242 138.214 26.3242 138.231 26.3242V26.341C138.248 26.341 138.248 26.341 138.265 26.3579L138.282 26.3747H138.299C138.299 26.3916 138.299 26.3916 138.316 26.3916L138.333 26.4084L138.35 26.4253C138.367 26.4253 138.367 26.4253 138.383 26.4421C138.4 26.4421 138.4 26.4421 138.4 26.4421C138.4 26.4421 138.4 26.4421 138.417 26.4421L138.62 26.56C138.637 26.56 138.671 26.5768 138.688 26.5937C138.704 26.5937 138.721 26.5937 138.738 26.6105H138.772L138.789 26.6274H138.823C138.84 26.6442 138.84 26.6442 138.857 26.6442H138.873C138.873 26.661 138.89 26.661 138.907 26.661C138.924 26.661 138.924 26.661 138.941 26.6779H138.958H138.992L139.009 26.6947H139.042C139.059 26.6947 139.076 26.6947 139.093 26.7116H139.127C139.144 26.7116 139.161 26.7116 139.178 26.7284H139.228H139.262H139.279C139.296 26.7284 139.363 26.7453 139.499 26.7621C139.634 26.7789 139.803 26.8126 140.022 26.8463C140.225 26.88 140.479 26.9137 140.766 26.9642C141.053 27.0147 141.34 27.0653 141.645 27.1158C141.763 27.1326 141.83 27.1495 141.881 27.1663C142.422 27.2505 142.979 27.3516 143.52 27.4695C144.044 27.5368 144.5 27.6547 144.889 27.7726Z" fill="#808080"/>
<path d="M162.732 33.8526H153.033V21.7432H162.732V22.9221H154.25V27.0484H162.732V28.2274H154.25V32.6737H162.732V33.8526Z" fill="#808080"/>
<path d="M161.447 17.8695H83.7227V18.7116H161.447V17.8695Z" fill="#808080"/>
</svg>
