<svg width="246" height="49" viewBox="0 0 246 49" fill="none" xmlns="http://www.w3.org/2000/svg">
<path d="M58.8167 48.9558H0V0.981049H58.8167V48.9558ZM2.80444 46.1768H56.0123V3.76H2.80444V46.1768Z" fill="#808080"/>
<path d="M114.472 48.9558H55.8339V0.981049H114.472V48.9558ZM58.6383 46.1768H111.668V3.76H58.6383V46.1768Z" fill="#808080"/>
<path d="M36.5087 25.0316C37.299 25.2589 38.0129 25.6126 38.6757 26.0421C39.3386 26.4968 39.8995 27.0274 40.3839 27.6337C40.8683 28.24 41.2252 28.9221 41.5057 29.68C41.7861 30.4379 41.9136 31.221 41.9136 32.0547C41.9136 33.0652 41.7096 34.0252 41.3272 34.9095C40.9193 35.7937 40.4094 36.5768 39.721 37.2337C39.0582 37.8905 38.2678 38.421 37.35 38.8C36.4322 39.1789 35.4634 39.3558 34.4436 39.3558H23.8632H23.7102C22.7159 39.3305 21.7726 39.1284 20.8803 38.7495C19.988 38.3705 19.2231 37.8652 18.5603 37.2084C17.8974 36.5516 17.3875 35.7937 16.9796 34.9347C16.5717 34.0758 16.3932 33.141 16.3932 32.1558H19.2741C19.2741 32.7621 19.4016 33.3179 19.6565 33.8484C19.9115 34.3789 20.2429 34.8589 20.6508 35.2631C21.0588 35.6674 21.5432 35.9958 22.104 36.2231C22.6649 36.4505 23.2513 36.5768 23.8887 36.5768H34.2906V36.5263C34.3416 36.5263 34.3671 36.5263 34.3926 36.5516C34.4181 36.5768 34.4436 36.5768 34.4946 36.5768C35.1319 36.5768 35.7183 36.4505 36.3047 36.2231C36.8656 35.9958 37.35 35.6674 37.7579 35.2379C38.1658 34.8084 38.4973 34.3284 38.7522 33.7979C39.0072 33.2421 39.1346 32.661 39.1346 32.0295C39.1346 31.9789 39.1091 31.9284 39.0837 31.9031V31.8526V31.7768V31.7263V31.6758V31.6V31.5495V31.4989V31.4231C39.0582 31.3979 39.0327 31.3726 39.0327 31.3474C39.0327 31.2463 39.0072 31.1705 38.9817 31.1452V31.0947V31.0442C38.9817 31.0189 38.9817 30.9937 38.9562 30.9937C38.9307 30.9937 38.9307 30.9684 38.9307 30.9431V30.8674L38.8797 30.8168V30.741C38.8797 30.7158 38.8542 30.6905 38.8287 30.6652C38.8287 30.6147 38.8287 30.5895 38.8032 30.5642C38.7777 30.5389 38.7777 30.5137 38.7777 30.4631C38.7522 30.4631 38.7267 30.4379 38.7267 30.4126C38.7267 30.3874 38.7267 30.3621 38.7012 30.3621C38.6757 30.3368 38.6757 30.3116 38.6757 30.261C38.6502 30.261 38.6247 30.2358 38.6247 30.2105V30.16C38.5993 30.1347 38.5738 30.1095 38.5738 30.0842C38.5483 30.0589 38.5228 30.0337 38.5228 30.0084C38.4973 29.9831 38.4718 29.9579 38.4718 29.9326C38.4463 29.8821 38.4208 29.8316 38.3953 29.8063C38.3698 29.7558 38.3443 29.7305 38.3188 29.68L38.2678 29.6295V29.5789L38.1913 29.5031L38.1403 29.4274L38.0894 29.3516L37.9619 29.2252L37.8854 29.1495C37.8854 29.1242 37.8599 29.0989 37.8344 29.0737L37.7579 28.9979L37.6814 28.9221L37.6304 28.8463C37.605 28.8463 37.5795 28.8463 37.5795 28.821C37.5795 28.7958 37.554 28.7958 37.5285 28.7958C37.503 28.7705 37.4775 28.7452 37.4775 28.72C37.452 28.6947 37.4265 28.6695 37.3755 28.6442L37.3245 28.5937L37.248 28.5179C37.2225 28.5179 37.197 28.5179 37.197 28.4926C37.197 28.4674 37.1715 28.4674 37.146 28.4674L37.0696 28.3916L36.9931 28.341C36.9421 28.2905 36.8911 28.24 36.8401 28.2147L36.7636 28.1642C36.7636 28.1389 36.7381 28.1137 36.6871 28.1137V28.0631L36.6106 28.0126C36.5852 28.0126 36.5597 28.0126 36.5597 27.9874C36.5597 27.9621 36.5342 27.9621 36.5087 27.9621C36.4577 27.9116 36.4067 27.8863 36.3557 27.8863C36.2537 27.8358 36.1772 27.8105 36.1517 27.8105C36.1262 27.7852 36.1007 27.76 36.0753 27.76C36.0498 27.7347 36.0243 27.7095 35.9988 27.7095C35.9733 27.6842 35.9478 27.6589 35.9223 27.6589H35.8713C35.8458 27.6337 35.8203 27.6084 35.7948 27.6084C35.7438 27.5831 35.7183 27.5579 35.6928 27.5579C35.6673 27.5579 35.6418 27.5326 35.5909 27.5074C35.5654 27.5074 35.5399 27.5074 35.5144 27.4821C35.4889 27.4568 35.4634 27.4568 35.4379 27.4568H35.3104V27.4063H35.4379C34.9535 27.28 34.1886 27.1031 33.1178 26.8758C32.0471 26.6484 30.8743 26.421 29.625 26.1937C29.4211 26.1431 29.1916 26.0926 28.9877 26.0674C28.7837 26.0421 28.5543 25.9916 28.3503 25.941C27.9934 25.8905 27.6109 25.8147 27.254 25.7389C26.8971 25.6631 26.5147 25.5874 26.1577 25.5368C26.1322 25.5368 26.1067 25.5368 26.1067 25.5116C26.0813 25.4863 26.0813 25.4863 26.0558 25.4863C25.9538 25.4863 25.8263 25.461 25.6733 25.4105H25.5459H25.4694C25.4439 25.3852 25.3929 25.36 25.3419 25.36C25.2909 25.36 25.2399 25.36 25.2144 25.3347C25.1889 25.3095 25.1379 25.3095 25.087 25.3095C25.036 25.3095 24.985 25.2842 24.9595 25.2589H24.8065C24.5261 25.2084 24.2456 25.1579 24.0162 25.1326C23.7867 25.0821 23.5573 25.0568 23.3533 25.0063C23.1238 24.9558 22.8944 24.9052 22.6904 24.88C22.4865 24.8547 22.3335 24.8295 22.206 24.8042C22.0531 24.7789 21.9256 24.7537 21.7981 24.7284C21.0078 24.5263 20.2939 24.1979 19.631 23.7431C18.9682 23.2884 18.4073 22.7831 17.9229 22.1516C17.4385 21.5452 17.0816 20.8631 16.8011 20.1053C16.5207 19.3474 16.3932 18.5642 16.3932 17.7053C16.3932 16.72 16.5717 15.7853 16.9541 14.8758C17.3365 13.9916 17.8464 13.2084 18.5093 12.5768C19.1721 11.92 19.937 11.3895 20.8293 11.0105C21.7216 10.6316 22.6649 10.4042 23.6847 10.3789H23.8377H34.4181H34.8515C35.7948 10.4295 36.6871 10.6568 37.503 11.0358C38.3188 11.4147 39.0327 11.8947 39.6445 12.501C40.2564 13.1074 40.7663 13.7895 41.1742 14.5979C41.5822 15.4063 41.8116 16.24 41.8881 17.1242H39.0072C38.9307 16.5937 38.7522 16.1137 38.5228 15.6337C38.2678 15.1537 37.9619 14.7495 37.5795 14.3958C37.197 14.0421 36.7636 13.7642 36.2792 13.5621C35.7948 13.36 35.2594 13.2337 34.724 13.2084H34.5965H34.4436H34.2396H24.0417H23.8377H23.7102C23.0983 13.2337 22.5375 13.36 22.0021 13.5874C21.4667 13.8147 20.9823 14.1431 20.5998 14.5726C20.1919 15.0021 19.886 15.4568 19.6565 16.0126C19.4271 16.5431 19.2996 17.1242 19.2996 17.7053V17.8316V17.9579V18.0337V18.1095V18.4631V18.5389V18.5895L19.3506 18.64V18.7158V18.7663V18.8421C19.3761 18.8674 19.4016 18.8926 19.4016 18.9179V18.9684V19.0189L19.4526 19.0695V19.1452V19.1958L19.5036 19.2463V19.3221C19.5291 19.3474 19.5546 19.3726 19.5546 19.3979C19.5546 19.4231 19.5546 19.4484 19.5801 19.4484C19.6055 19.4737 19.6055 19.4737 19.6055 19.4989C19.631 19.5495 19.6565 19.6 19.6565 19.6252C19.682 19.6758 19.682 19.701 19.7075 19.7516C19.7075 19.8021 19.733 19.8526 19.7585 19.8779C19.7585 19.9031 19.784 19.9284 19.8095 19.9537C19.8095 19.9789 19.8095 20.0042 19.835 20.0042C19.8605 20.0295 19.8605 20.0295 19.8605 20.0547L19.9115 20.1305C19.937 20.1305 19.9625 20.1558 19.9625 20.2063H19.886C19.886 20.2568 19.9115 20.2821 19.937 20.2821V20.3326L19.988 20.3831L20.039 20.4337V20.4842C20.0645 20.5095 20.0899 20.5347 20.0899 20.56H20.1409C20.1409 20.6105 20.1664 20.6358 20.1919 20.6358L20.2684 20.7116V20.7368L20.3194 20.8126L20.3959 20.8884L20.5489 21.04L20.7018 21.2421C20.7273 21.2421 20.7528 21.2421 20.7528 21.2674C20.7528 21.2926 20.7783 21.2926 20.8038 21.2926L20.8803 21.3684L20.9568 21.4442L21.0333 21.4947C21.0333 21.52 21.0588 21.5452 21.0842 21.5452V21.5958C21.1097 21.5958 21.1352 21.621 21.1607 21.6463L21.2117 21.6968H21.2627C21.2627 21.7221 21.2882 21.7474 21.3137 21.7474L21.3647 21.7979L21.4157 21.8484C21.4412 21.8484 21.4667 21.8737 21.4922 21.8989C21.5177 21.8989 21.5432 21.8989 21.5432 21.9242C21.5432 21.9495 21.5687 21.9495 21.5941 21.9495L22.0786 22.2274C22.1295 22.2274 22.1805 22.2526 22.2315 22.3031C22.2825 22.3031 22.3335 22.3284 22.359 22.3537H22.4355L22.4865 22.4042H22.563C22.5884 22.4295 22.6139 22.4547 22.6394 22.4547H22.6904C22.6904 22.48 22.7159 22.5052 22.7669 22.5052C22.7924 22.5052 22.8179 22.5305 22.8434 22.5558H22.6904H22.7669L22.8179 22.6063H22.8944C22.9454 22.6063 22.9964 22.6316 23.0219 22.6568H23.0983C23.1493 22.6568 23.2003 22.6821 23.2258 22.7074H23.3533H23.4298H23.4808C23.5063 22.7074 23.6847 22.7326 23.9907 22.7831C24.2966 22.8337 24.7045 22.9095 25.1889 22.9852C25.6733 23.061 26.2597 23.1621 26.8971 23.2631C27.56 23.3642 28.2483 23.4905 28.9622 23.6168C29.2171 23.6674 29.4211 23.7179 29.5231 23.7431C30.7978 23.9452 32.0471 24.1979 33.3218 24.4505C34.5456 24.4758 35.6163 24.7537 36.5087 25.0316Z" fill="#808080"/>
<path d="M97.2885 39.4568H94.4331V26.0926H75.4139V39.4568H72.5585V10.6568H75.4139V23.2631H94.4331V10.6568H97.2885V39.4568Z" fill="#808080"/>
<mask id="path-5-inside-1_6769_3" fill="white">
<path d="M139.457 10.6063C139.967 10.7579 140.451 10.96 140.859 11.2379C141.293 11.5158 141.65 11.8442 141.956 12.2484C142.261 12.6274 142.516 13.0568 142.695 13.5368C142.873 14.0168 142.975 14.4968 142.975 15.0274C142.975 15.659 142.848 16.2653 142.593 16.8211C142.338 17.3768 141.981 17.8821 141.548 18.2863C141.114 18.7158 140.604 19.0442 140.018 19.2716C139.432 19.4989 138.794 19.6253 138.131 19.6253H131.248H131.146C130.483 19.6 129.871 19.4737 129.31 19.2463C128.724 19.0189 128.239 18.6905 127.806 18.2611C127.372 17.8568 127.041 17.3768 126.786 16.8211C126.531 16.2653 126.404 15.6842 126.404 15.0526H128.29C128.29 15.4316 128.367 15.7853 128.545 16.139C128.698 16.4674 128.928 16.7705 129.183 17.0232C129.438 17.2758 129.769 17.4779 130.126 17.6295C130.483 17.7811 130.865 17.8568 131.273 17.8568H138.029V17.8316C138.055 17.8316 138.08 17.8316 138.106 17.8316C138.106 17.8316 138.131 17.8316 138.182 17.8316C138.59 17.8316 138.973 17.7558 139.355 17.6042C139.712 17.4526 140.043 17.2505 140.298 16.9979C140.553 16.7453 140.783 16.4168 140.936 16.0884C141.089 15.7347 141.191 15.3811 141.191 14.9768C141.191 14.9516 141.191 14.9263 141.165 14.9011V14.9263V14.8758V14.8505V14.8253V14.7747V14.7495V14.7242V14.6737C141.14 14.6484 141.14 14.6484 141.14 14.6232C141.14 14.5474 141.14 14.5221 141.114 14.4968V14.4463V14.4211C141.114 14.3958 141.114 14.3958 141.089 14.3958C141.089 14.3958 141.063 14.3958 141.063 14.3705V14.32L141.038 14.2947V14.2442C141.038 14.219 141.038 14.219 141.012 14.1937C141.012 14.1684 141.012 14.1432 140.987 14.1432C140.987 14.1432 140.987 14.1179 140.987 14.0926C140.961 14.0926 140.961 14.0926 140.961 14.0674C140.961 14.0421 140.961 14.0421 140.936 14.0421C140.936 14.0421 140.91 14.0168 140.91 13.9916C140.885 13.9916 140.885 13.9916 140.885 13.9663V13.9411C140.859 13.9158 140.859 13.9158 140.859 13.8905C140.834 13.8653 140.834 13.8653 140.834 13.84C140.808 13.8147 140.808 13.8147 140.808 13.7895C140.783 13.7642 140.783 13.739 140.757 13.7137C140.732 13.6884 140.732 13.6632 140.706 13.6379L140.681 13.6126V13.5874L140.63 13.5368L140.604 13.4863L140.579 13.4358L140.502 13.36L140.451 13.3095C140.451 13.2842 140.451 13.2842 140.426 13.259L140.375 13.2084L140.324 13.1579L140.298 13.1074C140.273 13.1074 140.273 13.1074 140.273 13.1074C140.273 13.1074 140.273 13.1074 140.247 13.1074C140.222 13.0821 140.222 13.0821 140.196 13.0568C140.196 13.0316 140.171 13.0316 140.12 13.0063L140.094 12.9811L140.043 12.9305C140.018 12.9305 140.018 12.9305 140.018 12.9305C140.018 12.9305 140.018 12.9305 139.992 12.9305L139.941 12.88L139.89 12.8547C139.865 12.8295 139.814 12.8042 139.788 12.779L139.737 12.7537C139.737 12.7284 139.712 12.7284 139.687 12.7284V12.7032L139.636 12.6779C139.61 12.6779 139.61 12.6779 139.61 12.6779C139.61 12.6779 139.61 12.6779 139.585 12.6779C139.559 12.6526 139.508 12.6274 139.483 12.6274C139.406 12.6021 139.381 12.5768 139.355 12.5768C139.33 12.5516 139.33 12.5516 139.304 12.5516C139.279 12.5263 139.279 12.5263 139.253 12.5263C139.228 12.5011 139.228 12.5011 139.202 12.5011H139.177C139.151 12.4758 139.151 12.4758 139.126 12.4758C139.1 12.4505 139.075 12.4505 139.049 12.4505C139.049 12.4505 139.024 12.4505 138.973 12.4253C138.947 12.4253 138.947 12.4253 138.922 12.4253C138.896 12.4253 138.896 12.4253 138.871 12.4253H138.794V12.4H138.743C138.437 12.3242 137.927 12.1979 137.239 12.0716C136.551 11.92 135.786 11.7937 134.97 11.6421C134.842 11.6168 134.69 11.5916 134.562 11.5663C134.435 11.5411 134.282 11.5158 134.154 11.4905C133.925 11.4653 133.67 11.4147 133.44 11.3642C133.211 11.3137 132.956 11.2632 132.726 11.2379C132.701 11.2379 132.701 11.2379 132.675 11.2379C132.675 11.2379 132.65 11.2379 132.624 11.2379C132.548 11.2379 132.471 11.2126 132.369 11.1874H132.318H132.267C132.242 11.1621 132.217 11.1621 132.191 11.1621C132.166 11.1621 132.14 11.1621 132.115 11.1621C132.089 11.1621 132.064 11.1621 132.038 11.1621C132.013 11.1621 131.987 11.1621 131.962 11.1368H131.86C131.681 11.1116 131.503 11.0863 131.35 11.0611C131.197 11.0358 131.044 11.0105 130.916 10.9853C130.763 10.96 130.61 10.9347 130.483 10.9095C130.355 10.8842 130.253 10.8842 130.151 10.859C130.049 10.8337 129.973 10.8337 129.896 10.8084C129.387 10.6821 128.902 10.48 128.494 10.2021C128.061 9.92421 127.704 9.59579 127.398 9.19158C127.092 8.81264 126.837 8.38316 126.659 7.90316C126.48 7.42316 126.378 6.9179 126.378 6.38737C126.378 5.75579 126.506 5.17474 126.761 4.59369C127.016 4.0379 127.347 3.5579 127.78 3.12843C128.214 2.72422 128.698 2.39579 129.285 2.14316C129.871 1.89053 130.483 1.76422 131.146 1.73895H131.248H138.131H138.412C139.024 1.76422 139.61 1.91579 140.145 2.14316C140.681 2.37053 141.14 2.69895 141.548 3.0779C141.956 3.45685 142.287 3.88632 142.542 4.39158C142.797 4.89685 142.95 5.42737 143.001 5.98316H141.114C141.063 5.65474 140.961 5.35158 140.783 5.04843C140.63 4.74527 140.426 4.49264 140.171 4.26527C139.916 4.0379 139.636 3.86106 139.33 3.73474C139.024 3.60843 138.667 3.53264 138.31 3.50737H138.233H138.131H138.004H131.375H131.248H131.146C130.763 3.53264 130.381 3.60843 130.024 3.76C129.667 3.91158 129.361 4.11369 129.106 4.36632C128.851 4.61895 128.647 4.92211 128.494 5.27579C128.341 5.60421 128.265 5.98316 128.265 6.36211V6.4379V6.33685V6.38737V6.4379V6.46316V6.51369V6.53895L128.29 6.56422V6.61474V6.64001V6.69053C128.316 6.71579 128.316 6.71579 128.316 6.74106V6.79158V6.81685L128.341 6.84211V6.89264V6.9179L128.367 6.94316V6.99369C128.392 7.01895 128.392 7.01895 128.392 7.04422C128.392 7.06948 128.392 7.06948 128.418 7.06948L128.443 7.09474C128.469 7.12 128.469 7.14527 128.494 7.17053C128.494 7.19579 128.52 7.22106 128.545 7.24632C128.545 7.27158 128.545 7.29685 128.571 7.32211C128.571 7.34737 128.571 7.34737 128.596 7.37264C128.596 7.3979 128.596 7.3979 128.622 7.3979V7.42316L128.647 7.47369C128.673 7.47369 128.673 7.49895 128.673 7.52422H128.698C128.698 7.54948 128.698 7.57474 128.724 7.57474V7.6L128.749 7.62527L128.775 7.65053V7.67579C128.8 7.70106 128.8 7.70106 128.8 7.72632H128.826C128.826 7.75158 128.826 7.77685 128.851 7.77685L128.902 7.82737V7.85264L128.928 7.90316L128.979 7.95369L129.081 8.05474L129.183 8.18106C129.208 8.18106 129.208 8.18106 129.208 8.18106C129.208 8.18106 129.208 8.18106 129.234 8.18106L129.285 8.23158L129.336 8.28211L129.387 8.30737C129.387 8.33264 129.387 8.33264 129.412 8.33264V8.3579C129.438 8.3579 129.438 8.3579 129.463 8.38316L129.489 8.40843H129.514C129.514 8.43369 129.514 8.43369 129.54 8.43369L129.565 8.45895L129.591 8.48422C129.616 8.48422 129.616 8.48421 129.642 8.50948C129.667 8.50948 129.667 8.50948 129.667 8.50948C129.667 8.50948 129.667 8.50948 129.693 8.50948L129.998 8.68632C130.024 8.68632 130.075 8.71158 130.1 8.73685C130.126 8.73685 130.151 8.73685 130.177 8.76211H130.228L130.253 8.78737H130.304C130.33 8.81264 130.33 8.81264 130.355 8.81264H130.381C130.381 8.8379 130.406 8.8379 130.432 8.8379C130.457 8.8379 130.457 8.8379 130.483 8.86316H130.508H130.559L130.585 8.88843H130.636C130.661 8.88843 130.687 8.88843 130.712 8.91369H130.763C130.789 8.91369 130.814 8.91369 130.84 8.93895H130.916H130.967H130.993C131.018 8.93895 131.12 8.96421 131.324 8.98948C131.528 9.01474 131.783 9.06527 132.115 9.11579C132.42 9.16632 132.803 9.21685 133.236 9.29264C133.67 9.36843 134.103 9.44421 134.562 9.52C134.74 9.54527 134.842 9.57053 134.919 9.59579C135.735 9.72211 136.576 9.87369 137.392 10.0505C138.182 10.2526 138.896 10.4295 139.457 10.6063Z"/>
</mask>
<path d="M139.457 10.6063C139.967 10.7579 140.451 10.96 140.859 11.2379C141.293 11.5158 141.65 11.8442 141.956 12.2484C142.261 12.6274 142.516 13.0568 142.695 13.5368C142.873 14.0168 142.975 14.4968 142.975 15.0274C142.975 15.659 142.848 16.2653 142.593 16.8211C142.338 17.3768 141.981 17.8821 141.548 18.2863C141.114 18.7158 140.604 19.0442 140.018 19.2716C139.432 19.4989 138.794 19.6253 138.131 19.6253H131.248H131.146C130.483 19.6 129.871 19.4737 129.31 19.2463C128.724 19.0189 128.239 18.6905 127.806 18.2611C127.372 17.8568 127.041 17.3768 126.786 16.8211C126.531 16.2653 126.404 15.6842 126.404 15.0526H128.29C128.29 15.4316 128.367 15.7853 128.545 16.139C128.698 16.4674 128.928 16.7705 129.183 17.0232C129.438 17.2758 129.769 17.4779 130.126 17.6295C130.483 17.7811 130.865 17.8568 131.273 17.8568H138.029V17.8316C138.055 17.8316 138.08 17.8316 138.106 17.8316C138.106 17.8316 138.131 17.8316 138.182 17.8316C138.59 17.8316 138.973 17.7558 139.355 17.6042C139.712 17.4526 140.043 17.2505 140.298 16.9979C140.553 16.7453 140.783 16.4168 140.936 16.0884C141.089 15.7347 141.191 15.3811 141.191 14.9768C141.191 14.9516 141.191 14.9263 141.165 14.9011V14.9263V14.8758V14.8505V14.8253V14.7747V14.7495V14.7242V14.6737C141.14 14.6484 141.14 14.6484 141.14 14.6232C141.14 14.5474 141.14 14.5221 141.114 14.4968V14.4463V14.4211C141.114 14.3958 141.114 14.3958 141.089 14.3958C141.089 14.3958 141.063 14.3958 141.063 14.3705V14.32L141.038 14.2947V14.2442C141.038 14.219 141.038 14.219 141.012 14.1937C141.012 14.1684 141.012 14.1432 140.987 14.1432C140.987 14.1432 140.987 14.1179 140.987 14.0926C140.961 14.0926 140.961 14.0926 140.961 14.0674C140.961 14.0421 140.961 14.0421 140.936 14.0421C140.936 14.0421 140.91 14.0168 140.91 13.9916C140.885 13.9916 140.885 13.9916 140.885 13.9663V13.9411C140.859 13.9158 140.859 13.9158 140.859 13.8905C140.834 13.8653 140.834 13.8653 140.834 13.84C140.808 13.8147 140.808 13.8147 140.808 13.7895C140.783 13.7642 140.783 13.739 140.757 13.7137C140.732 13.6884 140.732 13.6632 140.706 13.6379L140.681 13.6126V13.5874L140.63 13.5368L140.604 13.4863L140.579 13.4358L140.502 13.36L140.451 13.3095C140.451 13.2842 140.451 13.2842 140.426 13.259L140.375 13.2084L140.324 13.1579L140.298 13.1074C140.273 13.1074 140.273 13.1074 140.273 13.1074C140.273 13.1074 140.273 13.1074 140.247 13.1074C140.222 13.0821 140.222 13.0821 140.196 13.0568C140.196 13.0316 140.171 13.0316 140.12 13.0063L140.094 12.9811L140.043 12.9305C140.018 12.9305 140.018 12.9305 140.018 12.9305C140.018 12.9305 140.018 12.9305 139.992 12.9305L139.941 12.88L139.89 12.8547C139.865 12.8295 139.814 12.8042 139.788 12.779L139.737 12.7537C139.737 12.7284 139.712 12.7284 139.687 12.7284V12.7032L139.636 12.6779C139.61 12.6779 139.61 12.6779 139.61 12.6779C139.61 12.6779 139.61 12.6779 139.585 12.6779C139.559 12.6526 139.508 12.6274 139.483 12.6274C139.406 12.6021 139.381 12.5768 139.355 12.5768C139.33 12.5516 139.33 12.5516 139.304 12.5516C139.279 12.5263 139.279 12.5263 139.253 12.5263C139.228 12.5011 139.228 12.5011 139.202 12.5011H139.177C139.151 12.4758 139.151 12.4758 139.126 12.4758C139.1 12.4505 139.075 12.4505 139.049 12.4505C139.049 12.4505 139.024 12.4505 138.973 12.4253C138.947 12.4253 138.947 12.4253 138.922 12.4253C138.896 12.4253 138.896 12.4253 138.871 12.4253H138.794V12.4H138.743C138.437 12.3242 137.927 12.1979 137.239 12.0716C136.551 11.92 135.786 11.7937 134.97 11.6421C134.842 11.6168 134.69 11.5916 134.562 11.5663C134.435 11.5411 134.282 11.5158 134.154 11.4905C133.925 11.4653 133.67 11.4147 133.44 11.3642C133.211 11.3137 132.956 11.2632 132.726 11.2379C132.701 11.2379 132.701 11.2379 132.675 11.2379C132.675 11.2379 132.65 11.2379 132.624 11.2379C132.548 11.2379 132.471 11.2126 132.369 11.1874H132.318H132.267C132.242 11.1621 132.217 11.1621 132.191 11.1621C132.166 11.1621 132.14 11.1621 132.115 11.1621C132.089 11.1621 132.064 11.1621 132.038 11.1621C132.013 11.1621 131.987 11.1621 131.962 11.1368H131.86C131.681 11.1116 131.503 11.0863 131.35 11.0611C131.197 11.0358 131.044 11.0105 130.916 10.9853C130.763 10.96 130.61 10.9347 130.483 10.9095C130.355 10.8842 130.253 10.8842 130.151 10.859C130.049 10.8337 129.973 10.8337 129.896 10.8084C129.387 10.6821 128.902 10.48 128.494 10.2021C128.061 9.92421 127.704 9.59579 127.398 9.19158C127.092 8.81264 126.837 8.38316 126.659 7.90316C126.48 7.42316 126.378 6.9179 126.378 6.38737C126.378 5.75579 126.506 5.17474 126.761 4.59369C127.016 4.0379 127.347 3.5579 127.78 3.12843C128.214 2.72422 128.698 2.39579 129.285 2.14316C129.871 1.89053 130.483 1.76422 131.146 1.73895H131.248H138.131H138.412C139.024 1.76422 139.61 1.91579 140.145 2.14316C140.681 2.37053 141.14 2.69895 141.548 3.0779C141.956 3.45685 142.287 3.88632 142.542 4.39158C142.797 4.89685 142.95 5.42737 143.001 5.98316H141.114C141.063 5.65474 140.961 5.35158 140.783 5.04843C140.63 4.74527 140.426 4.49264 140.171 4.26527C139.916 4.0379 139.636 3.86106 139.33 3.73474C139.024 3.60843 138.667 3.53264 138.31 3.50737H138.233H138.131H138.004H131.375H131.248H131.146C130.763 3.53264 130.381 3.60843 130.024 3.76C129.667 3.91158 129.361 4.11369 129.106 4.36632C128.851 4.61895 128.647 4.92211 128.494 5.27579C128.341 5.60421 128.265 5.98316 128.265 6.36211V6.4379V6.33685V6.38737V6.4379V6.46316V6.51369V6.53895L128.29 6.56422V6.61474V6.64001V6.69053C128.316 6.71579 128.316 6.71579 128.316 6.74106V6.79158V6.81685L128.341 6.84211V6.89264V6.9179L128.367 6.94316V6.99369C128.392 7.01895 128.392 7.01895 128.392 7.04422C128.392 7.06948 128.392 7.06948 128.418 7.06948L128.443 7.09474C128.469 7.12 128.469 7.14527 128.494 7.17053C128.494 7.19579 128.52 7.22106 128.545 7.24632C128.545 7.27158 128.545 7.29685 128.571 7.32211C128.571 7.34737 128.571 7.34737 128.596 7.37264C128.596 7.3979 128.596 7.3979 128.622 7.3979V7.42316L128.647 7.47369C128.673 7.47369 128.673 7.49895 128.673 7.52422H128.698C128.698 7.54948 128.698 7.57474 128.724 7.57474V7.6L128.749 7.62527L128.775 7.65053V7.67579C128.8 7.70106 128.8 7.70106 128.8 7.72632H128.826C128.826 7.75158 128.826 7.77685 128.851 7.77685L128.902 7.82737V7.85264L128.928 7.90316L128.979 7.95369L129.081 8.05474L129.183 8.18106C129.208 8.18106 129.208 8.18106 129.208 8.18106C129.208 8.18106 129.208 8.18106 129.234 8.18106L129.285 8.23158L129.336 8.28211L129.387 8.30737C129.387 8.33264 129.387 8.33264 129.412 8.33264V8.3579C129.438 8.3579 129.438 8.3579 129.463 8.38316L129.489 8.40843H129.514C129.514 8.43369 129.514 8.43369 129.54 8.43369L129.565 8.45895L129.591 8.48422C129.616 8.48422 129.616 8.48421 129.642 8.50948C129.667 8.50948 129.667 8.50948 129.667 8.50948C129.667 8.50948 129.667 8.50948 129.693 8.50948L129.998 8.68632C130.024 8.68632 130.075 8.71158 130.1 8.73685C130.126 8.73685 130.151 8.73685 130.177 8.76211H130.228L130.253 8.78737H130.304C130.33 8.81264 130.33 8.81264 130.355 8.81264H130.381C130.381 8.8379 130.406 8.8379 130.432 8.8379C130.457 8.8379 130.457 8.8379 130.483 8.86316H130.508H130.559L130.585 8.88843H130.636C130.661 8.88843 130.687 8.88843 130.712 8.91369H130.763C130.789 8.91369 130.814 8.91369 130.84 8.93895H130.916H130.967H130.993C131.018 8.93895 131.12 8.96421 131.324 8.98948C131.528 9.01474 131.783 9.06527 132.115 9.11579C132.42 9.16632 132.803 9.21685 133.236 9.29264C133.67 9.36843 134.103 9.44421 134.562 9.52C134.74 9.54527 134.842 9.57053 134.919 9.59579C135.735 9.72211 136.576 9.87369 137.392 10.0505C138.182 10.2526 138.896 10.4295 139.457 10.6063Z" fill="#808080" stroke="#808080" stroke-width="10" mask="url(#path-5-inside-1_6769_3)"/>
<mask id="path-6-inside-2_6769_3" fill="white">
<path d="M161.587 11.5158H153.683V19.6758H151.771V1.58737H163.422C164.111 1.6379 164.748 1.78948 165.36 2.09264C165.972 2.37053 166.507 2.74948 166.941 3.20421C167.374 3.65895 167.731 4.16421 168.011 4.74527C168.266 5.32632 168.419 5.93263 168.419 6.56421C168.419 7.19579 168.292 7.77684 168.062 8.3579C167.833 8.93895 167.476 9.41895 167.068 9.87369C166.635 10.3032 166.15 10.6821 165.564 10.9853C164.977 11.2884 164.366 11.4653 163.703 11.5663H161.587V11.5158ZM163.371 9.77263C163.805 9.72211 164.213 9.59579 164.595 9.41895C164.977 9.21684 165.309 8.98948 165.589 8.71158C165.87 8.43369 166.074 8.10527 166.252 7.72632C166.431 7.34737 166.507 6.96842 166.507 6.53895C166.507 6.10948 166.431 5.70527 166.252 5.32632C166.074 4.94737 165.844 4.61895 165.538 4.31579C165.232 4.0379 164.876 3.78527 164.468 3.63369C164.06 3.45685 163.626 3.35579 163.167 3.33053H153.709V9.77263H163.371Z"/>
</mask>
<path d="M161.587 11.5158H153.683V19.6758H151.771V1.58737H163.422C164.111 1.6379 164.748 1.78948 165.36 2.09264C165.972 2.37053 166.507 2.74948 166.941 3.20421C167.374 3.65895 167.731 4.16421 168.011 4.74527C168.266 5.32632 168.419 5.93263 168.419 6.56421C168.419 7.19579 168.292 7.77684 168.062 8.3579C167.833 8.93895 167.476 9.41895 167.068 9.87369C166.635 10.3032 166.15 10.6821 165.564 10.9853C164.977 11.2884 164.366 11.4653 163.703 11.5663H161.587V11.5158ZM163.371 9.77263C163.805 9.72211 164.213 9.59579 164.595 9.41895C164.977 9.21684 165.309 8.98948 165.589 8.71158C165.87 8.43369 166.074 8.10527 166.252 7.72632C166.431 7.34737 166.507 6.96842 166.507 6.53895C166.507 6.10948 166.431 5.70527 166.252 5.32632C166.074 4.94737 165.844 4.61895 165.538 4.31579C165.232 4.0379 164.876 3.78527 164.468 3.63369C164.06 3.45685 163.626 3.35579 163.167 3.33053H153.709V9.77263H163.371Z" fill="#808080"/>
<path d="M161.587 11.5158H166.587V6.51579H161.587V11.5158ZM153.683 11.5158V6.51579H148.683V11.5158H153.683ZM153.683 19.6758V24.6758H158.683V19.6758H153.683ZM151.771 19.6758H146.771V24.6758H151.771V19.6758ZM151.771 1.58737V-3.41263H146.771V1.58737H151.771ZM163.422 1.58737L163.788 -3.39921L163.606 -3.41263H163.422V1.58737ZM165.36 2.09264L163.14 6.57289L163.216 6.61028L163.292 6.64512L165.36 2.09264ZM168.011 4.74527L172.59 2.73629L172.554 2.65342L172.514 2.57192L168.011 4.74527ZM167.068 9.87369L170.587 13.4253L170.692 13.3219L170.79 13.2124L167.068 9.87369ZM163.703 11.5663V16.5663H164.082L164.456 16.5092L163.703 11.5663ZM161.587 11.5663H156.587V16.5663H161.587V11.5663ZM164.595 9.41895L166.694 13.9572L166.814 13.9016L166.931 13.8396L164.595 9.41895ZM165.538 4.31579L169.058 0.764152L168.981 0.687714L168.9 0.614697L165.538 4.31579ZM164.468 3.63369L162.479 8.22115L162.601 8.27415L162.726 8.32056L164.468 3.63369ZM163.167 3.33053L163.442 -1.66191L163.305 -1.66947H163.167V3.33053ZM153.709 3.33053V-1.66947H148.709V3.33053H153.709ZM153.709 9.77263H148.709V14.7726H153.709V9.77263ZM161.587 6.51579H153.683V16.5158H161.587V6.51579ZM148.683 11.5158V19.6758H158.683V11.5158H148.683ZM153.683 14.6758H151.771V24.6758H153.683V14.6758ZM156.771 19.6758V1.58737H146.771V19.6758H156.771ZM151.771 6.58737H163.422V-3.41263H151.771V6.58737ZM163.056 6.57396C163.103 6.57735 163.135 6.58147 163.155 6.58462C163.175 6.58774 163.184 6.59004 163.184 6.59012C163.184 6.59015 163.178 6.58866 163.169 6.58506C163.159 6.58143 163.149 6.57715 163.14 6.57289L167.58 -2.38762C166.29 -3.02652 165.002 -3.31011 163.788 -3.39921L163.056 6.57396ZM163.292 6.64512C163.347 6.6701 163.349 6.68315 163.321 6.65387L170.56 -0.245443C169.665 -1.1842 168.596 -1.92904 167.427 -2.45985L163.292 6.64512ZM163.321 6.65387C163.413 6.7498 163.465 6.82833 163.508 6.91861L172.514 2.57192C171.997 1.5001 171.335 0.568097 170.56 -0.245443L163.321 6.65387ZM163.433 6.75425C163.451 6.79659 163.448 6.79804 163.44 6.76238C163.431 6.72431 163.419 6.65551 163.419 6.56421H173.419C173.419 5.10805 173.064 3.81633 172.59 2.73629L163.433 6.75425ZM163.419 6.56421C163.419 6.55319 163.42 6.53866 163.422 6.52206C163.423 6.50548 163.426 6.49125 163.428 6.48071C163.43 6.47034 163.431 6.46719 163.429 6.47253C163.428 6.47811 163.423 6.49396 163.412 6.52143L172.713 10.1944C173.139 9.11454 173.419 7.91073 173.419 6.56421H163.419ZM163.412 6.52143C163.431 6.47267 163.45 6.43315 163.466 6.40418C163.481 6.37566 163.491 6.36052 163.492 6.35998C163.492 6.35986 163.483 6.37368 163.459 6.40343C163.435 6.43356 163.399 6.47616 163.346 6.53495L170.79 13.2124C171.385 12.5495 172.174 11.5585 172.713 10.1944L163.412 6.52143ZM163.549 6.32205C163.472 6.39825 163.415 6.44556 163.375 6.47596C163.335 6.50528 163.302 6.5261 163.268 6.54373L167.86 15.4268C168.978 14.8488 169.865 14.1411 170.587 13.4253L163.549 6.32205ZM163.268 6.54373C163.256 6.54959 163.237 6.55888 163.197 6.57104C163.154 6.58404 163.077 6.60387 162.949 6.62343L164.456 16.5092C165.539 16.3442 166.694 16.0295 167.86 15.4268L163.268 6.54373ZM163.703 6.56632H161.587V16.5663H163.703V6.56632ZM166.587 11.5663V11.5158H156.587V11.5663H166.587ZM163.95 14.739C164.984 14.6185 165.904 14.3225 166.694 13.9572L162.496 4.88068C162.522 4.86904 162.625 4.82574 162.792 4.80627L163.95 14.739ZM166.931 13.8396C167.626 13.4726 168.392 12.9734 169.109 12.2632L162.07 5.15994C162.226 5.00558 162.329 4.96105 162.259 4.99832L166.931 13.8396ZM169.109 12.2632C169.943 11.436 170.448 10.5522 170.776 9.85664L161.729 5.596C161.699 5.65833 161.796 5.43133 162.07 5.15994L169.109 12.2632ZM170.776 9.85664C171.301 8.74185 171.507 7.62407 171.507 6.53895H161.507C161.507 6.45278 161.515 6.30408 161.555 6.1165C161.595 5.92495 161.657 5.74749 161.729 5.596L170.776 9.85664ZM171.507 6.53895C171.507 5.49997 171.318 4.34738 170.776 3.196L161.729 7.45664C161.543 7.06316 161.507 6.71899 161.507 6.53895H171.507ZM170.776 3.196C170.352 2.29623 169.785 1.48493 169.058 0.764152L162.019 7.86743C161.972 7.82058 161.914 7.75478 161.856 7.67231C161.798 7.58996 161.756 7.51428 161.729 7.45664L170.776 3.196ZM168.9 0.614697C168.303 0.0718092 167.408 -0.607857 166.209 -1.05319L162.726 8.32056C162.527 8.24666 162.386 8.16508 162.302 8.11057C162.22 8.05671 162.179 8.01876 162.177 8.01689L168.9 0.614697ZM166.456 -0.953774C165.487 -1.37388 164.472 -1.60524 163.442 -1.66191L162.893 8.32297C162.781 8.31682 162.632 8.28757 162.479 8.22115L166.456 -0.953774ZM163.167 -1.66947H153.709V8.33053H163.167V-1.66947ZM148.709 3.33053V9.77263H158.709V3.33053H148.709ZM153.709 14.7726H163.371V4.77263H153.709V14.7726Z" fill="#808080" mask="url(#path-6-inside-2_6769_3)"/>
<mask id="path-8-inside-3_6769_3" fill="white">
<path d="M199.37 19.7011H197.305L193.634 12.88H183.104L179.433 19.7011H177.368L187.235 1.30948H187.26H187.872H188.356H188.841H189.427H189.453L199.37 19.7011ZM184.048 11.0611H192.665L188.382 3.05264H188.356L184.048 11.0611Z"/>
</mask>
<path d="M199.37 19.7011H197.305L193.634 12.88H183.104L179.433 19.7011H177.368L187.235 1.30948H187.26H187.872H188.356H188.841H189.427H189.453L199.37 19.7011ZM184.048 11.0611H192.665L188.382 3.05264H188.356L184.048 11.0611Z" fill="#808080"/>
<path d="M199.37 19.7011V24.7011H207.747L203.771 17.3279L199.37 19.7011ZM197.305 19.7011L192.902 22.0708L194.318 24.7011H197.305V19.7011ZM193.634 12.88L198.037 10.5103L196.621 7.88H193.634V12.88ZM183.104 12.88V7.88H180.117L178.702 10.5103L183.104 12.88ZM179.433 19.7011V24.7011H182.42L183.836 22.0708L179.433 19.7011ZM177.368 19.7011L172.962 17.3374L169.012 24.7011H177.368V19.7011ZM187.235 1.30948V-3.69052H184.243L182.829 -1.05421L187.235 1.30948ZM189.453 1.30948L193.854 -1.06368L192.437 -3.69052H189.453V1.30948ZM184.048 11.0611L179.645 8.69209L175.68 16.0611H184.048V11.0611ZM192.665 11.0611V16.0611H201.009L197.074 8.70298L192.665 11.0611ZM188.382 3.05264L192.791 0.694562L191.378 -1.94736H188.382V3.05264ZM188.356 3.05264V-1.94736H185.369L183.953 0.683672L188.356 3.05264ZM199.37 14.7011H197.305V24.7011H199.37V14.7011ZM201.708 17.3314L198.037 10.5103L189.231 15.2497L192.902 22.0708L201.708 17.3314ZM193.634 7.88H183.104V17.88H193.634V7.88ZM178.702 10.5103L175.03 17.3314L183.836 22.0708L187.507 15.2497L178.702 10.5103ZM179.433 14.7011H177.368V24.7011H179.433V14.7011ZM181.774 22.0647L191.641 3.67317L182.829 -1.05421L172.962 17.3374L181.774 22.0647ZM187.235 6.30948H187.26V-3.69052H187.235V6.30948ZM187.26 6.30948H187.872V-3.69052H187.26V6.30948ZM187.872 6.30948H188.356V-3.69052H187.872V6.30948ZM188.356 6.30948H188.841V-3.69052H188.356V6.30948ZM188.841 6.30948H189.427V-3.69052H188.841V6.30948ZM189.427 6.30948H189.453V-3.69052H189.427V6.30948ZM185.052 3.68264L194.969 22.0742L203.771 17.3279L193.854 -1.06368L185.052 3.68264ZM184.048 16.0611H192.665V6.06106H184.048V16.0611ZM197.074 8.70298L192.791 0.694562L183.973 5.41071L188.256 13.4191L197.074 8.70298ZM188.382 -1.94736H188.356V8.05264H188.382V-1.94736ZM183.953 0.683672L179.645 8.69209L188.451 13.43L192.76 5.4216L183.953 0.683672Z" fill="#808080" mask="url(#path-8-inside-3_6769_3)"/>
<mask id="path-10-inside-4_6769_3" fill="white">
<path d="M211.276 17.8316H214.081V19.6253H206.815V17.8316H209.619V3.35579H206.815V1.5621H214.081V3.35579H211.276V17.8316Z"/>
</mask>
<path d="M211.276 17.8316H214.081V19.6253H206.815V17.8316H209.619V3.35579H206.815V1.5621H214.081V3.35579H211.276V17.8316Z" fill="#808080"/>
<path d="M211.276 17.8316H206.276V22.8316H211.276V17.8316ZM214.081 17.8316H219.081V12.8316H214.081V17.8316ZM214.081 19.6253V24.6253H219.081V19.6253H214.081ZM206.815 19.6253H201.815V24.6253H206.815V19.6253ZM206.815 17.8316V12.8316H201.815V17.8316H206.815ZM209.619 17.8316V22.8316H214.619V17.8316H209.619ZM209.619 3.35579H214.619V-1.64421H209.619V3.35579ZM206.815 3.35579H201.815V8.35579H206.815V3.35579ZM206.815 1.5621V-3.4379H201.815V1.5621H206.815ZM214.081 1.5621H219.081V-3.4379H214.081V1.5621ZM214.081 3.35579V8.35579H219.081V3.35579H214.081ZM211.276 3.35579V-1.64421H206.276V3.35579H211.276ZM211.276 22.8316H214.081V12.8316H211.276V22.8316ZM209.081 17.8316V19.6253H219.081V17.8316H209.081ZM214.081 14.6253H206.815V24.6253H214.081V14.6253ZM211.815 19.6253V17.8316H201.815V19.6253H211.815ZM206.815 22.8316H209.619V12.8316H206.815V22.8316ZM214.619 17.8316V3.35579H204.619V17.8316H214.619ZM209.619 -1.64421H206.815V8.35579H209.619V-1.64421ZM211.815 3.35579V1.5621H201.815V3.35579H211.815ZM206.815 6.5621H214.081V-3.4379H206.815V6.5621ZM209.081 1.5621V3.35579H219.081V1.5621H209.081ZM214.081 -1.64421H211.276V8.35579H214.081V-1.64421ZM206.276 3.35579V17.8316H216.276V3.35579H206.276Z" fill="#808080" mask="url(#path-10-inside-4_6769_3)"/>
<mask id="path-12-inside-5_6769_3" fill="white">
<path d="M241.335 19.7263H239.474H239.448L224.661 4.1642V19.7263H222.825V1.53683H224.687L239.499 17.0989V1.5621H241.36V19.7263H241.335Z"/>
</mask>
<path d="M241.335 19.7263H239.474H239.448L224.661 4.1642V19.7263H222.825V1.53683H224.687L239.499 17.0989V1.5621H241.36V19.7263H241.335Z" fill="#808080"/>
<path d="M239.448 19.7263L235.823 23.1704L237.302 24.7263H239.448V19.7263ZM224.661 4.1642L228.286 0.720085L219.661 -8.35663V4.1642H224.661ZM224.661 19.7263V24.7263H229.661V19.7263H224.661ZM222.825 19.7263H217.825V24.7263H222.825V19.7263ZM222.825 1.53683V-3.46317H217.825V1.53683H222.825ZM224.687 1.53683L228.308 -1.9104L226.83 -3.46317H224.687V1.53683ZM239.499 17.0989L235.877 20.5462L244.499 29.6041V17.0989H239.499ZM239.499 1.5621V-3.4379H234.499V1.5621H239.499ZM241.36 1.5621H246.36V-3.4379H241.36V1.5621ZM241.36 19.7263V24.7263H246.36V19.7263H241.36ZM241.335 14.7263H239.474V24.7263H241.335V14.7263ZM239.474 14.7263H239.448V24.7263H239.474V14.7263ZM243.073 16.2822L228.286 0.720085L221.036 7.60832L235.823 23.1704L243.073 16.2822ZM219.661 4.1642V19.7263H229.661V4.1642H219.661ZM224.661 14.7263H222.825V24.7263H224.661V14.7263ZM227.825 19.7263V1.53683H217.825V19.7263H227.825ZM222.825 6.53683H224.687V-3.46317H222.825V6.53683ZM221.065 4.98407L235.877 20.5462L243.121 13.6517L228.308 -1.9104L221.065 4.98407ZM244.499 17.0989V1.5621H234.499V17.0989H244.499ZM239.499 6.5621H241.36V-3.4379H239.499V6.5621ZM236.36 1.5621V19.7263H246.36V1.5621H236.36ZM241.36 14.7263H241.335V24.7263H241.36V14.7263Z" fill="#808080" mask="url(#path-12-inside-5_6769_3)"/>
<path d="M142.44 48.779H140.579V40.3411H128.239V48.779H126.378V30.5895H128.239V38.5474H140.604V30.5895H142.465V48.779H142.44Z" fill="#808080"/>
<path d="M161.383 30.6147C162.708 30.6147 163.932 30.8421 165.105 31.3221C166.278 31.8021 167.298 32.459 168.139 33.2674C169.006 34.0758 169.694 35.0358 170.204 36.1474C170.714 37.2337 170.969 38.4211 170.969 39.6842C170.969 40.9474 170.714 42.1095 170.204 43.2211C169.694 44.3074 169.006 45.2674 168.139 46.1011C167.272 46.9095 166.252 47.5663 165.105 48.0463C163.932 48.5263 162.708 48.7537 161.383 48.7537C160.057 48.7537 158.833 48.5263 157.66 48.0463C156.513 47.5663 155.493 46.9095 154.627 46.1011C153.76 45.2926 153.071 44.3326 152.561 43.2211C152.052 42.1347 151.797 40.9474 151.797 39.6842C151.797 38.4211 152.052 37.259 152.561 36.1474C153.071 35.0611 153.76 34.1011 154.627 33.2674C155.493 32.459 156.513 31.8021 157.66 31.3221C158.833 30.8421 160.082 30.6147 161.383 30.6147ZM161.383 47.0611C162.453 47.0611 163.473 46.859 164.417 46.48C165.36 46.1011 166.201 45.5705 166.89 44.8884C167.603 44.2316 168.139 43.4484 168.572 42.539C168.98 41.6295 169.184 40.6695 169.184 39.659C169.184 38.6484 168.98 37.6884 168.572 36.779C168.164 35.8947 167.603 35.1116 166.89 34.4295C166.176 33.7726 165.36 33.2421 164.417 32.8379C163.473 32.459 162.453 32.2569 161.383 32.2569C160.312 32.2569 159.292 32.459 158.349 32.8379C157.405 33.2168 156.59 33.7474 155.876 34.4295C155.162 35.0863 154.627 35.8695 154.193 36.779C153.785 37.6632 153.581 38.6232 153.581 39.659C153.581 40.6695 153.785 41.6547 154.193 42.539C154.601 43.4484 155.162 44.2316 155.876 44.8884C156.59 45.5453 157.405 46.0758 158.349 46.48C159.292 46.859 160.312 47.0611 161.383 47.0611Z" fill="#808080"/>
<path d="M196.591 30.6147V40.9474C196.591 42.0084 196.362 43.019 195.928 43.979C195.495 44.939 194.908 45.7474 194.144 46.4547C193.379 47.1621 192.512 47.7179 191.492 48.1221C190.472 48.5263 189.402 48.7284 188.254 48.7284C187.082 48.7284 186.011 48.5263 184.991 48.1221C183.971 47.7179 183.104 47.1621 182.339 46.4547C181.575 45.7474 180.988 44.9137 180.555 43.979C180.121 43.019 179.892 42.0084 179.892 40.9474V30.6147H181.728V40.3663C181.753 40.4674 181.753 40.5684 181.753 40.6695C181.753 40.7705 181.753 40.8716 181.753 40.9726C181.779 41.8063 181.957 42.5895 182.288 43.3474C182.62 44.08 183.079 44.7116 183.665 45.2674C184.252 45.8232 184.94 46.2526 185.705 46.5558C186.495 46.8842 187.336 47.0358 188.229 47.0358C189.121 47.0358 189.962 46.8842 190.753 46.5558C191.543 46.2274 192.231 45.7979 192.843 45.2674C193.455 44.7369 193.889 44.08 194.246 43.3474C194.577 42.6147 194.755 41.8316 194.755 40.9726V40.5432V40.3663V30.6147H196.591Z" fill="#808080"/>
<path d="M218.619 39.659C219.129 39.8105 219.613 40.0126 220.021 40.2905C220.454 40.5684 220.811 40.8968 221.117 41.3011C221.423 41.68 221.678 42.1095 221.857 42.5895C222.035 43.0695 222.137 43.5495 222.137 44.08C222.137 44.7116 222.009 45.3179 221.755 45.8737C221.5 46.4295 221.143 46.9347 220.709 47.339C220.276 47.7684 219.766 48.0969 219.18 48.3242C218.593 48.5516 217.956 48.6779 217.293 48.6779H210.409H210.307C209.644 48.6526 209.033 48.5263 208.472 48.299C207.885 48.0716 207.401 47.7432 206.968 47.3137C206.534 46.9095 206.203 46.4295 205.948 45.8737C205.693 45.3179 205.565 44.7369 205.565 44.1053H207.452C207.452 44.4842 207.528 44.8379 207.707 45.1916C207.86 45.52 208.089 45.8232 208.344 46.0758C208.599 46.3284 208.931 46.5305 209.288 46.6821C209.644 46.8337 210.027 46.9095 210.435 46.9095H217.191V46.8842C217.216 46.8842 217.242 46.8842 217.267 46.8842C217.267 46.8842 217.293 46.8842 217.344 46.8842C217.752 46.8842 218.134 46.8084 218.517 46.6569C218.874 46.5053 219.205 46.3032 219.46 46.0505C219.715 45.7979 219.944 45.4695 220.097 45.1411C220.25 44.7874 220.352 44.4337 220.352 44.0295C220.352 44.0042 220.352 43.979 220.327 43.9537V43.979V43.9284V43.9032V43.8779V43.8274V43.8021V43.7769V43.7263C220.301 43.7011 220.301 43.7011 220.301 43.6758C220.301 43.6 220.301 43.5747 220.276 43.5495V43.499V43.4737C220.276 43.4484 220.276 43.4484 220.25 43.4484C220.25 43.4484 220.225 43.4484 220.225 43.4232V43.3726L220.199 43.3474V43.2969C220.199 43.2716 220.199 43.2716 220.174 43.2463C220.174 43.2211 220.174 43.1958 220.148 43.1958C220.148 43.1958 220.148 43.1705 220.148 43.1453C220.123 43.1453 220.123 43.1453 220.123 43.12C220.123 43.0947 220.123 43.0947 220.097 43.0947C220.097 43.0947 220.072 43.0695 220.072 43.0442C220.046 43.0442 220.046 43.0442 220.046 43.019V42.9937C220.021 42.9684 220.021 42.9684 220.021 42.9432C219.995 42.9179 219.995 42.9179 219.995 42.8926C219.97 42.8674 219.97 42.8674 219.97 42.8421C219.944 42.8169 219.944 42.7916 219.919 42.7663C219.893 42.7411 219.893 42.7158 219.868 42.6905L219.842 42.6653V42.64L219.791 42.5895L219.766 42.539L219.74 42.4884L219.664 42.4126L219.613 42.3621C219.613 42.3369 219.613 42.3368 219.587 42.3116L219.511 42.2105L219.46 42.16L219.434 42.1095C219.409 42.1095 219.409 42.1095 219.409 42.1095C219.409 42.1095 219.409 42.1095 219.384 42.1095C219.358 42.0842 219.358 42.0842 219.333 42.059C219.333 42.0337 219.307 42.0337 219.256 42.0084V41.9579L219.205 41.9074C219.18 41.9074 219.18 41.9074 219.18 41.9074C219.18 41.9074 219.18 41.9074 219.154 41.9074L219.103 41.8569L219.052 41.8316C219.027 41.8063 218.976 41.7811 218.95 41.7558L218.899 41.7305C218.899 41.7053 218.874 41.7053 218.848 41.7053V41.68L218.797 41.6547C218.772 41.6547 218.772 41.6547 218.772 41.6547C218.772 41.6547 218.772 41.6547 218.746 41.6547C218.721 41.6295 218.67 41.6042 218.644 41.6042C218.568 41.579 218.542 41.5537 218.517 41.5537C218.491 41.5284 218.491 41.5284 218.466 41.5284C218.44 41.5032 218.44 41.5032 218.415 41.5032C218.389 41.4779 218.389 41.4779 218.364 41.4779H218.338C218.313 41.4526 218.313 41.4526 218.287 41.4526C218.262 41.4274 218.236 41.4274 218.211 41.4274C218.211 41.4274 218.185 41.4274 218.134 41.4021C218.109 41.4021 218.109 41.4021 218.083 41.4021C218.058 41.4021 218.058 41.4021 218.032 41.4021H217.981V41.3768H217.93C217.624 41.3011 217.114 41.1747 216.426 41.0484C215.738 40.8968 214.973 40.7705 214.157 40.619C214.03 40.5937 213.877 40.5684 213.749 40.5432C213.622 40.5179 213.469 40.4926 213.341 40.4674C213.112 40.4421 212.857 40.3916 212.627 40.3411C212.398 40.2905 212.143 40.24 211.914 40.2147C211.888 40.2147 211.888 40.2147 211.863 40.2147C211.863 40.2147 211.837 40.2147 211.812 40.2147C211.735 40.2147 211.659 40.1895 211.557 40.1642H211.48H211.429C211.404 40.139 211.378 40.139 211.353 40.139C211.327 40.139 211.302 40.139 211.276 40.139C211.251 40.139 211.225 40.139 211.2 40.139C211.174 40.139 211.149 40.139 211.123 40.1137H211.021C210.843 40.0884 210.664 40.0632 210.511 40.0379C210.358 40.0126 210.205 39.9874 210.078 39.9621C209.925 39.9369 209.772 39.9116 209.644 39.8863C209.517 39.8611 209.415 39.8611 209.313 39.8358C209.211 39.8105 209.135 39.8105 209.058 39.7853C208.548 39.659 208.064 39.4568 207.656 39.179C207.222 38.9011 206.866 38.5726 206.56 38.1684C206.254 37.7895 205.999 37.36 205.82 36.88C205.642 36.4 205.54 35.8947 205.54 35.3642C205.54 34.7326 205.667 34.1516 205.922 33.5705C206.177 33.0147 206.509 32.5347 206.942 32.1053C207.375 31.7011 207.86 31.3726 208.446 31.12C209.033 30.8674 209.644 30.7411 210.307 30.7158H210.409H217.293H217.573C218.185 30.7411 218.772 30.8926 219.307 31.12C219.842 31.3474 220.301 31.6758 220.709 32.0547C221.117 32.4337 221.449 32.8632 221.704 33.3684C221.958 33.8737 222.111 34.4042 222.162 34.96H220.276C220.225 34.6316 220.123 34.3284 219.944 34.0253C219.791 33.7221 219.587 33.4695 219.333 33.2421C219.078 33.0147 218.797 32.8379 218.491 32.7116C218.185 32.5853 217.828 32.5095 217.471 32.4842H217.395H217.293H217.165H210.537H210.409H210.307C209.925 32.5095 209.542 32.5853 209.186 32.7368C208.829 32.8884 208.523 33.0905 208.268 33.3432C208.013 33.5958 207.809 33.8989 207.656 34.2526C207.503 34.5811 207.426 34.96 207.426 35.339V35.4147V35.4905V35.5411V35.5916V35.6168V35.6674V35.6926L207.452 35.7179V35.7684V35.7937V35.8442C207.477 35.8695 207.477 35.8695 207.477 35.8947V35.9453V35.9705L207.503 35.9958V36.0463V36.0716L207.528 36.0968V36.1474C207.554 36.1726 207.554 36.1726 207.554 36.1979C207.554 36.2232 207.554 36.2232 207.579 36.2232L207.605 36.2484C207.63 36.2737 207.63 36.299 207.656 36.3242C207.656 36.3495 207.681 36.3747 207.707 36.4C207.707 36.4253 207.707 36.4505 207.732 36.4758C207.732 36.5011 207.732 36.5011 207.758 36.5263C207.758 36.5516 207.758 36.5516 207.783 36.5516V36.5768L207.809 36.6274C207.834 36.6274 207.834 36.6526 207.834 36.6779H207.86C207.86 36.7032 207.86 36.7284 207.885 36.7284V36.7537L207.911 36.779L207.936 36.8042V36.8295C207.962 36.8547 207.962 36.8547 207.962 36.88H207.987C207.987 36.9053 207.987 36.9305 208.013 36.9305L208.064 36.9811V37.0063L208.089 37.0568L208.14 37.1074L208.242 37.2084L208.344 37.3347C208.37 37.3347 208.37 37.3347 208.37 37.3347C208.37 37.3347 208.37 37.3347 208.395 37.3347L208.446 37.3853L208.497 37.4358L208.548 37.4611C208.548 37.4863 208.548 37.4863 208.574 37.4863V37.5116C208.599 37.5116 208.599 37.5116 208.625 37.5368L208.65 37.5621H208.676C208.676 37.5874 208.676 37.5874 208.701 37.5874L208.727 37.6126L208.752 37.6379C208.778 37.6379 208.778 37.6379 208.803 37.6632C208.829 37.6632 208.829 37.6632 208.829 37.6632C208.829 37.6632 208.829 37.6632 208.854 37.6632L209.16 37.84C209.186 37.84 209.237 37.8653 209.262 37.8905C209.288 37.8905 209.313 37.8905 209.339 37.9158H209.39L209.415 37.9411H209.466C209.491 37.9663 209.491 37.9663 209.517 37.9663H209.542C209.542 37.9916 209.568 37.9916 209.593 37.9916C209.619 37.9916 209.619 37.9916 209.644 38.0168H209.67H209.721L209.746 38.0421H209.797C209.823 38.0421 209.848 38.0421 209.874 38.0674H209.925C209.95 38.0674 209.976 38.0674 210.001 38.0926H210.078H210.129H210.154C210.18 38.0926 210.282 38.1179 210.486 38.1432C210.69 38.1684 210.945 38.219 211.276 38.2695C211.582 38.32 211.964 38.3705 212.398 38.4463C212.831 38.5221 213.265 38.5979 213.724 38.6737C213.902 38.699 214.004 38.7242 214.081 38.7495C214.896 38.8758 215.738 39.0274 216.554 39.2042C217.344 39.3053 218.032 39.4821 218.619 39.659Z" fill="#808080"/>
<path d="M245.541 48.779H230.907V30.6147H245.541V32.3832H232.743V38.5726H245.541V40.3411H232.743V47.0105H245.541V48.779Z" fill="#808080"/>
<path d="M243.604 24.8042H126.327V26.0674H243.604V24.8042Z" fill="#808080"/>
</svg>
