<svg width="28" height="28" viewBox="0 0 28 28" fill="none" xmlns="http://www.w3.org/2000/svg">
<g id="instagram (1) 1" clip-path="url(#clip0_176_51)">
<g id="Group">
<path id="Vector" d="M14 9.11628C10.8336 9.11628 9.11628 11.7209 9.11628 14.0547C9.11628 16.9302 11.7209 18.8837 14 18.8837C16.9302 18.8837 18.8837 16.2791 18.8837 14.0547C18.8837 11.7209 17.1664 9.11628 14 9.11628ZM14 9.11628C10.8336 9.11628 9.11628 11.7209 9.11628 14.0547C9.11628 16.9302 11.7209 18.8837 14 18.8837C16.9302 18.8837 18.8837 16.2791 18.8837 14.0547C18.8837 11.7209 17.1664 9.11628 14 9.11628ZM23.8984 0H4.10156C1.8375 0 0 1.8375 0 4.10156V23.8984C0 26.1625 1.8375 28 4.10156 28H23.8984C26.1625 28 28 26.1625 28 23.8984V4.10156C28 1.8375 26.1625 0 23.8984 0ZM14 21.814C9.9313 21.814 6.18605 18.1234 6.18605 14.0547C6.18605 9.98588 9.9313 6.18605 14 6.18605C18.0687 6.18605 21.814 9.98588 21.814 14.0547C21.814 18.1234 18.0687 21.814 14 21.814ZM23.0234 6.67188C22.1211 6.67188 21.3828 5.93359 21.3828 5.03125C21.3828 4.12891 22.1211 3.39062 23.0234 3.39062C23.9258 3.39062 24.6641 4.12891 24.6641 5.03125C24.6641 5.93359 23.9258 6.67188 23.0234 6.67188ZM14 9.11628C10.8336 9.11628 9.11628 11.7209 9.11628 14.0547C9.11628 16.9302 11.7209 18.8837 14 18.8837C16.9302 18.8837 18.8837 16.2791 18.8837 14.0547C18.8837 11.7209 17.1664 9.11628 14 9.11628ZM14 9.11628C10.8336 9.11628 9.11628 11.7209 9.11628 14.0547C9.11628 16.9302 11.7209 18.8837 14 18.8837C16.9302 18.8837 18.8837 16.2791 18.8837 14.0547C18.8837 11.7209 17.1664 9.11628 14 9.11628ZM14 9.11628C10.8336 9.11628 9.11628 11.7209 9.11628 14.0547C9.11628 16.9302 11.7209 18.8837 14 18.8837C16.9302 18.8837 18.8837 16.2791 18.8837 14.0547C18.8837 11.7209 17.1664 9.11628 14 9.11628Z" fill="white"/>
</g>
</g>
<defs>
<clipPath id="clip0_176_51">
<rect width="28" height="28" fill="white"/>
</clipPath>
</defs>
</svg>
