<svg width="15" height="14" viewBox="0 0 15 14" fill="none" xmlns="http://www.w3.org/2000/svg">
<g id="next (1) 3" clip-path="url(#clip0_265_240)">
<g id="Group">
<g id="Group_2">
<path id="Vector" d="M10.8123 5.69739L2.4731 0.343777C2.13045 0.123314 1.77407 0.00695801 1.46896 0.00695801C0.799091 0.00695801 0.35498 0.531353 0.35498 1.37522V12.6319C0.35498 13.0441 0.483414 13.3886 0.673817 13.6283C0.867135 13.8713 1.16957 13.9999 1.4963 13.9999C1.80129 13.9999 2.14357 13.8833 2.4861 13.6632L10.8178 8.30961C11.3534 7.96508 11.6471 7.50136 11.6469 7.00327C11.6469 6.50542 11.3486 6.04169 10.8123 5.69739Z" fill="#808080"/>
</g>
</g>
<g id="Group_3">
<g id="Group_4">
<g id="Group_5">
<path id="Vector_2" d="M13.8663 13.9964L13.8564 13.9963C13.8548 13.9963 13.8532 13.9964 13.8516 13.9964H13.8663Z" fill="#808080"/>
<path id="Vector_3" d="M13.8407 0L13.496 0.000907257C13.0446 0.000907257 12.6538 0.344304 12.6538 0.766179V13.223C12.6538 13.6454 13.0381 13.9921 13.4901 13.9921L13.8563 13.9964C14.3061 13.9941 14.6448 13.6445 14.6448 13.2237V0.765385C14.6448 0.34351 14.2925 0 13.8407 0Z" fill="#808080"/>
</g>
</g>
</g>
</g>
<defs>
<clipPath id="clip0_265_240">
<rect width="15" height="14" fill="white"/>
</clipPath>
</defs>
</svg>
