<svg width="18" height="18" viewBox="0 0 18 18" fill="none" xmlns="http://www.w3.org/2000/svg">
<g id="russia 2" clip-path="url(#clip0_286_156)">
<path id="Vector" d="M9.00255 18.002C13.9729 18.002 18.0022 13.9727 18.0022 9.00237C18.0022 4.03201 13.9729 0.00274658 9.00255 0.00274658C4.0322 0.00274658 0.00292969 4.03201 0.00292969 9.00237C0.00292969 13.9727 4.0322 18.002 9.00255 18.002Z" fill="white"/>
<path id="Vector_2" d="M17.4856 5.99921H11.9404C12.1813 7.92176 12.1827 10.0401 11.9451 11.9651H17.4974C17.8216 11.0364 17.9998 10.0391 17.9998 9.00005C17.9999 7.94733 17.8176 6.93781 17.4856 5.99921Z" fill="#2B479D"/>
<path id="Vector_3" d="M11.9404 5.99922H17.4855C17.4847 5.99637 17.4838 5.99397 17.4827 5.99139C16.3309 2.74361 13.368 0.354115 9.80811 0.0369263C11.1858 0.792069 11.5883 3.18457 11.9404 5.99922Z" fill="#EFECEC"/>
<path id="Vector_4" d="M9.80835 17.9626C13.3746 17.6449 16.3416 15.2471 17.489 11.9907C17.492 11.982 17.4945 11.9734 17.4976 11.9651H11.9452C11.5957 14.795 11.1916 17.2043 9.80835 17.9626Z" fill="#E63026"/>
<path id="Vector_5" d="M0 9.00005C0 10.0393 0.178488 11.0364 0.502326 11.9651H12.4083C12.6462 10.04 12.6445 7.92176 12.4039 5.99921H0.514297C0.182326 6.93785 0 7.94737 0 9.00005Z" fill="#3757A6"/>
<path id="Vector_6" d="M0.517132 5.99146C0.516296 5.99401 0.515422 5.99644 0.514282 5.99929H12.4039C12.0515 3.1846 11.1858 0.79214 9.80825 0.0369974C9.54179 0.0133992 9.27237 6.10356e-05 8.99983 6.10356e-05C5.08469 2.30352e-05 1.7553 2.50048 0.517132 5.99146Z" fill="#EFEFEF"/>
<path id="Vector_7" d="M12.4083 11.965H0.502319C0.505321 11.9734 0.508133 11.9819 0.510983 11.9906C1.74421 15.4905 5.0784 17.9998 8.9998 17.9998C9.27238 17.9998 9.5418 17.9864 9.80822 17.9626C11.1916 17.2043 12.0589 14.795 12.4083 11.965Z" fill="#E73B36"/>
</g>
<defs>
<clipPath id="clip0_286_156">
<rect width="18" height="18" fill="white"/>
</clipPath>
</defs>
</svg>
