<svg width="18" height="18" viewBox="0 0 18 18" fill="none" xmlns="http://www.w3.org/2000/svg">
<g id="spain (1) 2" clip-path="url(#clip0_286_138)">
<g id="Group">
<path id="Vector" d="M8.99988 18C11.8795 18 14.441 16.6465 16.0883 14.5423H11.3482C10.7363 16.5821 10.3947 18 8.99988 18Z" fill="#C42126"/>
<path id="Vector_2" d="M8.46571 17.9846C8.46415 17.9846 8.46274 17.9843 8.46118 17.9843C8.46274 17.9843 8.46429 17.9846 8.46571 17.9846Z" fill="#C42126"/>
<path id="Vector_3" d="M11.3482 3.45774H16.0885C14.441 1.35386 11.8795 0 8.99988 0C10.3947 0 10.7363 1.41793 11.3482 3.45774Z" fill="#C42126"/>
<path id="Vector_4" d="M8.46118 0.0157162C8.46274 0.0157162 8.46415 0.015344 8.46571 0.015344C8.46429 0.0152908 8.46274 0.0152908 8.46118 0.0157162Z" fill="#C42126"/>
</g>
<path id="Vector_5" d="M16.0887 3.45776H11.3483C12.3049 6.64638 12.3049 11.3541 11.3483 14.5422H16.0882C17.2848 13.0143 18 11.0915 18 9.00008C18.0001 6.90885 17.2849 4.98586 16.0887 3.45776Z" fill="#FFC40C"/>
<g id="Group_2">
<path id="Vector_6" d="M8.99995 17.9995C8.82089 17.9995 8.64297 17.9944 8.46619 17.9845C8.64547 17.9941 8.82374 17.9995 8.99995 17.9995Z" fill="#C42126"/>
<path id="Vector_7" d="M8.46619 0.0152775C8.64293 0.00508024 8.82089 0 8.99995 0C8.82374 0 8.64547 0.00563245 8.46619 0.0152775Z" fill="#C42126"/>
</g>
<g id="Group_3">
<path id="Vector_8" d="M12.0103 14.5423H1.91174C3.45545 16.5143 5.8025 17.8271 8.46116 17.9843C8.46287 17.9843 8.46443 17.9845 8.46614 17.9845C8.64292 17.9948 8.82084 18 8.9999 18C10.3948 18 11.3982 16.5821 12.0103 14.5423Z" fill="#D32030"/>
<path id="Vector_9" d="M1.91174 3.45774H12.0103C11.3982 1.41793 10.3948 0 8.99994 0C8.82088 0 8.64296 0.00524412 8.46618 0.0157704C8.46447 0.0157704 8.46291 0.0160364 8.4612 0.0160364C5.8025 0.173094 3.45545 1.48603 1.91174 3.45774Z" fill="#D32030"/>
</g>
<path id="Vector_10" d="M0 9.00008C0 11.0915 0.715215 13.0143 1.91175 14.5422H12.0103C12.967 11.3539 12.967 6.64619 12.0103 3.45776H1.91175C0.715215 4.98586 0 6.90885 0 9.00008Z" fill="#FFD034"/>
</g>
<defs>
<clipPath id="clip0_286_138">
<rect width="18" height="18" fill="white"/>
</clipPath>
</defs>
</svg>
