<svg width="21" height="21" viewBox="0 0 21 21" fill="none" xmlns="http://www.w3.org/2000/svg">
<g id="whatsapp (1) 3" clip-path="url(#clip0_286_176)">
<path id="Vector" d="M0.487851 21C0.369931 21 0.255216 20.9534 0.17014 20.8673C0.0579882 20.7539 0.0147295 20.5892 0.0568667 20.4352L1.42208 15.4499C0.572125 13.9129 0.123998 12.1743 0.124639 10.4093C0.127042 4.66953 4.79802 0 10.5373 0C13.3211 0.00112152 15.9368 1.08547 17.9028 3.05294C19.8685 5.02057 20.9506 7.63612 20.9498 10.4176C20.9473 16.1576 16.2763 20.8274 10.5373 20.8274C10.5373 20.8274 10.533 20.8274 10.5328 20.8274C8.85648 20.8268 7.19455 20.4183 5.71478 19.6444L0.601125 20.9854C0.563634 20.9952 0.525502 21 0.487851 21Z" fill="#E5E5E5"/>
<path id="Vector_2" d="M0.487915 20.5531L1.90167 15.3905C1.02961 13.8795 0.570908 12.1654 0.571548 10.4095C0.573791 4.9161 5.04417 0.446838 10.5374 0.446838C13.2031 0.44796 15.7052 1.48553 17.5868 3.36872C19.4682 5.25191 20.504 7.75515 20.5031 10.4175C20.5007 15.9107 16.0296 20.3806 10.5374 20.3806C10.5371 20.3806 10.5375 20.3806 10.5374 20.3806H10.5331C8.8652 20.3799 7.22649 19.9616 5.77092 19.1677L0.487915 20.5531ZM6.01557 17.3642L6.31822 17.5435C7.58971 18.2981 9.04752 18.6972 10.5342 18.698H10.5374C15.1026 18.698 18.8184 14.9829 18.8203 10.4168C18.8211 8.20408 17.9604 6.12334 16.3965 4.55817C14.8325 2.99301 12.753 2.13056 10.5404 2.1296C5.97151 2.1296 2.25591 5.84424 2.25415 10.4101C2.25351 11.9748 2.69122 13.4985 3.52051 14.817L3.71758 15.1304L2.8806 18.1861L6.01557 17.3642Z" fill="white"/>
<path id="Vector_3" d="M0.834351 20.2053L2.19924 15.2211C1.35714 13.7625 0.914459 12.1076 0.91494 10.4127C0.917023 5.10947 5.2328 0.794983 10.5355 0.794983C13.1092 0.796104 15.5248 1.79778 17.3409 3.61577C19.1574 5.43375 20.1572 7.85031 20.1562 10.4202C20.154 15.7235 15.8381 20.0385 10.536 20.0385C10.5355 20.0385 10.5361 20.0385 10.536 20.0385H10.5317C8.92164 20.0379 7.33949 19.6338 5.93439 18.868L0.834351 20.2053Z" fill="#64B161"/>
<g id="Group">
<path id="Vector_4" d="M0.487915 20.5531L1.90167 15.3905C1.02961 13.8795 0.570908 12.1654 0.571548 10.4095C0.573791 4.9161 5.04417 0.446838 10.5374 0.446838C13.2031 0.44796 15.7052 1.48553 17.5868 3.36872C19.4682 5.25191 20.504 7.75515 20.5031 10.4175C20.5007 15.9107 16.0296 20.3806 10.5374 20.3806C10.5371 20.3806 10.5375 20.3806 10.5374 20.3806H10.5331C8.8652 20.3799 7.22649 19.9616 5.77092 19.1677L0.487915 20.5531ZM6.01557 17.3642L6.31822 17.5435C7.58971 18.2981 9.04752 18.6972 10.5342 18.698H10.5374C15.1026 18.698 18.8184 14.9829 18.8203 10.4168C18.8211 8.20408 17.9604 6.12334 16.3965 4.55817C14.8325 2.99301 12.753 2.13056 10.5404 2.1296C5.97151 2.1296 2.25591 5.84424 2.25415 10.4101C2.25351 11.9748 2.69122 13.4985 3.52051 14.817L3.71758 15.1304L2.8806 18.1861L6.01557 17.3642Z" fill="white"/>
<path id="Vector_5" fill-rule="evenodd" clip-rule="evenodd" d="M8.04664 6.24446C7.86014 5.82982 7.66372 5.82149 7.4862 5.81428C7.34104 5.80803 7.1749 5.80835 7.00907 5.80835C6.84309 5.80835 6.57328 5.87084 6.34513 6.11997C6.11682 6.36911 5.47339 6.97153 5.47339 8.19671C5.47339 9.42205 6.3658 10.6059 6.49029 10.7722C6.61478 10.9383 8.21294 13.5329 10.7439 14.5311C12.8474 15.3607 13.2753 15.1956 13.7319 15.1541C14.1886 15.1126 15.2051 14.5517 15.4126 13.9703C15.6203 13.3889 15.6203 12.8906 15.5579 12.7863C15.4956 12.6826 15.3296 12.6203 15.0807 12.4958C14.8317 12.3713 13.6075 11.7688 13.3791 11.6858C13.1508 11.6026 12.9849 11.5613 12.8189 11.8106C12.6527 12.0595 12.1759 12.6203 12.0306 12.7863C11.8853 12.9528 11.74 12.9736 11.491 12.8489C11.242 12.7241 10.44 12.4614 9.48859 11.613C8.74839 10.9531 8.24851 10.1379 8.10319 9.88861C7.95804 9.63963 8.10079 9.51658 8.21262 9.38056C8.41402 9.13558 8.75191 8.69515 8.83491 8.52916C8.9179 8.36286 8.8764 8.21754 8.81424 8.09289C8.75191 7.9684 8.2679 6.73697 8.04664 6.24446Z" fill="white"/>
</g>
</g>
<defs>
<clipPath id="clip0_286_176">
<rect width="21" height="21" fill="white"/>
</clipPath>
</defs>
</svg>
